<svg width="124" height="117" viewBox="0 0 124 117" fill="none" xmlns="http://www.w3.org/2000/svg">
<path d="M37.2261 104.022C32.4257 102.712 28.1246 100.668 24.3078 97.8944C20.5296 95.0584 17.5222 91.4945 15.2794 87.1814C13.0732 82.9387 11.9331 77.8212 11.9331 71.7671C11.9331 67.7298 12.7041 63.9762 14.2345 60.4867C15.8443 56.9318 18.1634 53.9834 21.2039 51.6186L21.2091 51.6145C24.2974 49.194 28.1871 47.5657 32.9488 46.7865L34.4547 46.5401V43.7121L33.7433 43.1731C30.8983 41.0178 28.9159 38.7552 27.7022 36.4088C26.4747 34.0356 25.8556 31.4538 25.8556 28.6348C25.8556 23.2145 27.7867 18.949 31.6388 15.6705L31.6413 15.6684C35.5861 12.2989 41.1725 10.5025 48.6286 10.5025C51.8153 10.5025 54.7556 10.9758 57.4629 11.9064C60.1101 12.8164 62.1985 14.1979 63.7892 16.0273L63.8035 16.0437L63.8182 16.0598C65.3801 17.7705 66.2149 19.9996 66.2149 22.902C66.2149 25.2433 65.5219 27.3221 64.1172 29.1951L64.1025 29.2147L64.0884 29.2346C62.9231 30.8796 61.232 31.7526 58.7292 31.7526C57.0164 31.7526 55.961 31.3273 55.302 30.7232C55.0624 30.5036 54.8648 30.3103 54.7043 30.1425C55.6557 29.3923 56.5231 28.4599 57.3153 27.3707L57.3369 27.3411L57.3572 27.3106C58.3149 25.874 58.7508 24.1928 58.7508 22.356C58.7508 19.1521 57.6007 16.4733 55.2184 14.5448C52.9522 12.7103 50.2202 11.8244 47.1272 11.8244C42.1144 11.8244 38.0725 13.3632 35.3648 16.7128C32.8199 19.7716 31.5452 23.3622 31.5452 27.4063C31.5452 30.981 32.2937 34.1689 33.8661 36.9013C35.4414 39.6386 37.7848 41.8163 40.8128 43.4544L41.2127 43.6707H46.1717C46.983 43.6707 47.5766 43.7264 47.9901 43.8078C48.0724 44.0551 48.1594 44.4931 48.1973 45.1912C48.1902 45.6423 48.0654 46.0755 47.7881 46.5192L47.7693 46.5492L47.7517 46.58L47.7488 46.585C47.7197 46.5969 47.6185 46.6305 47.4002 46.6305H42.5449L42.4673 46.6373C38.0086 47.025 34.231 48.3957 31.2552 50.8527C28.3849 53.133 26.245 55.9709 24.8558 59.3447C23.4945 62.6508 22.8096 66.0676 22.8096 69.5832C22.8096 75.7835 24.2439 81.2653 27.1774 85.9589C30.0927 90.6234 34.1284 94.2132 39.2385 96.7201L39.2566 96.729L39.2749 96.7374C44.4568 99.1365 50.2706 100.316 56.6818 100.316C63.5761 100.316 69.9041 98.8978 75.6333 96.0343C81.4425 93.1764 86.0993 89.2011 89.5596 84.1077C93.1379 78.8838 94.9219 72.9775 94.9219 66.4438C94.9219 62.9357 94.2398 59.5648 92.8773 56.3456C91.5807 53.0645 89.5724 50.3486 86.8578 48.2373C84.0422 46.0474 80.636 44.9926 76.7465 44.9926C75.0393 44.9926 73.1574 45.3638 71.1283 46.0402L71.1156 46.0444L71.1029 46.0489C69.0276 46.7752 67.238 47.9262 65.763 49.4995C64.0902 51.1854 63.3782 53.3802 63.4867 55.8752L63.488 55.9051L63.4903 55.9349C63.6073 57.4564 64.1349 58.8856 65.0151 60.2058L65.0354 60.2363L65.0569 60.2659C66.1268 61.737 67.7336 62.5581 69.6097 62.8891L69.6606 62.8981L69.7119 62.9042C71.5229 63.1172 73.2315 62.9149 74.7692 62.2052C76.0267 61.6248 77.111 60.9501 77.9392 60.1461C78.0551 60.323 78.1842 60.534 78.3265 60.7831L78.3498 60.8238L78.3752 60.8632C78.902 61.6827 79.1557 62.8092 78.9275 64.4112C78.6256 66.4417 77.7577 67.9082 76.3576 68.9607C74.9817 69.9725 73.2781 70.5171 71.1502 70.5171C68.2524 70.5171 66.0078 69.413 64.2581 67.1368C62.4511 64.6956 61.4807 61.5066 61.4807 57.4351C61.4807 52.9175 62.306 49.393 63.8246 46.7465C65.4939 43.9981 67.644 41.8546 70.2825 40.2857C73.1146 38.6566 76.2613 37.4471 79.7342 36.6657L79.7549 36.661L79.7755 36.6559C83.3426 35.7641 86.9542 35.0952 90.6108 34.6492C94.4245 34.1952 98.0554 33.7867 101.504 33.4238L101.527 33.4213L101.55 33.4183C105.085 32.9531 108.16 32.2956 110.756 31.4305L110.779 31.4229L110.801 31.4146C113.024 30.6063 114.939 29.4263 116.508 27.8573C118.187 26.1784 119.063 24.1511 118.942 21.8521L118.941 21.8247L118.939 21.7974C118.815 20.3182 118.249 18.9964 117.263 17.8869C116.12 16.6016 114.341 15.9625 112.365 15.6661L112.337 15.6619L112.308 15.6585C110.498 15.4455 108.789 15.6478 107.251 16.3575C106.013 16.9291 104.935 17.5768 104.06 18.3201C103.935 18.1418 103.797 17.9357 103.645 17.6995C103.119 16.8802 102.865 15.754 103.093 14.1526C103.404 12.0599 104.212 10.7258 105.37 9.88952L105.396 9.87082L105.421 9.85122C106.781 8.79323 108.316 8.19199 110.067 8.03915C111.959 7.88195 113.698 8.15514 115.313 8.8404C117.35 9.83054 118.686 11.2988 119.423 13.2887L119.427 13.2992L119.431 13.3096C120.26 15.4644 120.622 17.588 120.541 19.6936L120.54 19.7118L120.54 19.73C120.457 24.3122 118.931 28.1623 115.966 31.3749L115.957 31.3842L115.949 31.3936C112.996 34.6842 109.033 37.2632 103.988 39.091C99.0173 40.8341 93.5367 41.7167 87.5296 41.7167H82.6595L86.3635 44.8786C89.9438 47.9349 92.6558 51.2632 94.5378 54.8561L94.5455 54.8708L94.5535 54.8854C96.4951 58.4309 97.4722 62.3182 97.4722 66.5803C97.4722 74.9211 95.4578 82.0227 91.4985 87.964C87.5033 93.868 82.1184 98.4366 75.2995 101.672C68.569 104.818 60.9726 106.367 52.4751 106.279C47.2629 106.19 42.1883 105.439 37.247 104.027L37.2366 104.024L37.2261 104.022Z" fill="#25C5DA"/>
<path d="M37.2261 104.022C32.4257 102.712 28.1246 100.668 24.3078 97.8944C20.5296 95.0584 17.5222 91.4945 15.2794 87.1814C13.0732 82.9387 11.9331 77.8212 11.9331 71.7671C11.9331 67.7298 12.7041 63.9762 14.2345 60.4867C15.8443 56.9318 18.1634 53.9834 21.2039 51.6186L21.2091 51.6145C24.2974 49.194 28.1871 47.5657 32.9488 46.7865L34.4547 46.5401V43.7121L33.7433 43.1731C30.8983 41.0178 28.9159 38.7552 27.7022 36.4088C26.4747 34.0356 25.8556 31.4538 25.8556 28.6348C25.8556 23.2145 27.7867 18.949 31.6388 15.6705L31.6413 15.6684C35.5861 12.2989 41.1725 10.5025 48.6286 10.5025C51.8153 10.5025 54.7556 10.9758 57.4629 11.9064C60.1101 12.8164 62.1985 14.1979 63.7892 16.0273L63.8035 16.0437L63.8182 16.0598C65.3801 17.7705 66.2149 19.9996 66.2149 22.902C66.2149 25.2433 65.5219 27.3221 64.1172 29.1951L64.1025 29.2147L64.0884 29.2346C62.9231 30.8796 61.232 31.7526 58.7292 31.7526C57.0164 31.7526 55.961 31.3273 55.302 30.7232C55.0624 30.5036 54.8648 30.3103 54.7043 30.1425C55.6557 29.3923 56.5231 28.4599 57.3153 27.3707L57.3369 27.3411L57.3572 27.3106C58.3149 25.874 58.7508 24.1928 58.7508 22.356C58.7508 19.1521 57.6007 16.4733 55.2184 14.5448C52.9522 12.7103 50.2202 11.8244 47.1272 11.8244C42.1144 11.8244 38.0725 13.3632 35.3648 16.7128C32.8199 19.7716 31.5452 23.3622 31.5452 27.4063C31.5452 30.981 32.2937 34.1689 33.8661 36.9013C35.4414 39.6386 37.7848 41.8163 40.8128 43.4544L41.2127 43.6707H46.1717C46.983 43.6707 47.5766 43.7264 47.9901 43.8078C48.0724 44.0551 48.1594 44.4931 48.1973 45.1912C48.1902 45.6423 48.0654 46.0755 47.7881 46.5192L47.7693 46.5492L47.7517 46.58L47.7488 46.585C47.7197 46.5969 47.6185 46.6305 47.4002 46.6305H42.5449L42.4673 46.6373C38.0086 47.025 34.231 48.3957 31.2552 50.8527C28.3849 53.133 26.245 55.9709 24.8558 59.3447C23.4945 62.6508 22.8096 66.0676 22.8096 69.5832C22.8096 75.7835 24.2439 81.2653 27.1774 85.9589C30.0927 90.6234 34.1284 94.2132 39.2385 96.7201L39.2566 96.729L39.2749 96.7374C44.4568 99.1365 50.2706 100.316 56.6818 100.316C63.5761 100.316 69.9041 98.8978 75.6333 96.0343C81.4425 93.1764 86.0993 89.2011 89.5596 84.1077C93.1379 78.8838 94.9219 72.9775 94.9219 66.4438C94.9219 62.9357 94.2398 59.5648 92.8773 56.3456C91.5807 53.0645 89.5724 50.3486 86.8578 48.2373C84.0422 46.0474 80.636 44.9926 76.7465 44.9926C75.0393 44.9926 73.1574 45.3638 71.1283 46.0402L71.1156 46.0444L71.1029 46.0489C69.0276 46.7752 67.238 47.9262 65.763 49.4995C64.0902 51.1854 63.3782 53.3802 63.4867 55.8752L63.488 55.9051L63.4903 55.9349C63.6073 57.4564 64.1349 58.8856 65.0151 60.2058L65.0354 60.2363L65.0569 60.2659C66.1268 61.737 67.7336 62.5581 69.6097 62.8891L69.6606 62.8981L69.7119 62.9042C71.5229 63.1172 73.2315 62.9149 74.7692 62.2052C76.0267 61.6248 77.111 60.9501 77.9392 60.1461C78.0551 60.323 78.1842 60.534 78.3265 60.7831L78.3498 60.8238L78.3752 60.8632C78.902 61.6827 79.1557 62.8092 78.9275 64.4112C78.6256 66.4417 77.7577 67.9082 76.3576 68.9607C74.9817 69.9725 73.2781 70.5171 71.1502 70.5171C68.2524 70.5171 66.0078 69.413 64.2581 67.1368C62.4511 64.6956 61.4807 61.5066 61.4807 57.4351C61.4807 52.9175 62.306 49.393 63.8246 46.7465C65.4939 43.9981 67.644 41.8546 70.2825 40.2857C73.1146 38.6566 76.2613 37.4471 79.7342 36.6657L79.7549 36.661L79.7755 36.6559C83.3426 35.7641 86.9542 35.0952 90.6108 34.6492C94.4245 34.1952 98.0554 33.7867 101.504 33.4238L101.527 33.4213L101.55 33.4183C105.085 32.9531 108.16 32.2956 110.756 31.4305L110.779 31.4229L110.801 31.4146C113.024 30.6063 114.939 29.4263 116.508 27.8573C118.187 26.1784 119.063 24.1511 118.942 21.8521L118.941 21.8247L118.939 21.7974C118.815 20.3182 118.249 18.9964 117.263 17.8869C116.12 16.6016 114.341 15.9625 112.365 15.6661L112.337 15.6619L112.308 15.6585C110.498 15.4455 108.789 15.6478 107.251 16.3575C106.013 16.9291 104.935 17.5768 104.06 18.3201C103.935 18.1418 103.797 17.9357 103.645 17.6995C103.119 16.8802 102.865 15.754 103.093 14.1526C103.404 12.0599 104.212 10.7258 105.37 9.88952L105.396 9.87082L105.421 9.85122C106.781 8.79323 108.316 8.19199 110.067 8.03915C111.959 7.88195 113.698 8.15514 115.313 8.8404C117.35 9.83054 118.686 11.2988 119.423 13.2887L119.427 13.2992L119.431 13.3096C120.26 15.4644 120.622 17.588 120.541 19.6936L120.54 19.7118L120.54 19.73C120.457 24.3122 118.931 28.1623 115.966 31.3749L115.957 31.3842L115.949 31.3936C112.996 34.6842 109.033 37.2632 103.988 39.091C99.0173 40.8341 93.5367 41.7167 87.5296 41.7167H82.6595L86.3635 44.8786C89.9438 47.9349 92.6558 51.2632 94.5378 54.8561L94.5455 54.8708L94.5535 54.8854C96.4951 58.4309 97.4722 62.3182 97.4722 66.5803C97.4722 74.9211 95.4578 82.0227 91.4985 87.964C87.5033 93.868 82.1184 98.4366 75.2995 101.672C68.569 104.818 60.9726 106.367 52.4751 106.279C47.2629 106.19 42.1883 105.439 37.247 104.027L37.2366 104.024L37.2261 104.022Z" fill="url(#paint0_linear_242_546)" fill-opacity="0.19"/>
<path d="M37.2261 104.022C32.4257 102.712 28.1246 100.668 24.3078 97.8944C20.5296 95.0584 17.5222 91.4945 15.2794 87.1814C13.0732 82.9387 11.9331 77.8212 11.9331 71.7671C11.9331 67.7298 12.7041 63.9762 14.2345 60.4867C15.8443 56.9318 18.1634 53.9834 21.2039 51.6186L21.2091 51.6145C24.2974 49.194 28.1871 47.5657 32.9488 46.7865L34.4547 46.5401V43.7121L33.7433 43.1731C30.8983 41.0178 28.9159 38.7552 27.7022 36.4088C26.4747 34.0356 25.8556 31.4538 25.8556 28.6348C25.8556 23.2145 27.7867 18.949 31.6388 15.6705L31.6413 15.6684C35.5861 12.2989 41.1725 10.5025 48.6286 10.5025C51.8153 10.5025 54.7556 10.9758 57.4629 11.9064C60.1101 12.8164 62.1985 14.1979 63.7892 16.0273L63.8035 16.0437L63.8182 16.0598C65.3801 17.7705 66.2149 19.9996 66.2149 22.902C66.2149 25.2433 65.5219 27.3221 64.1172 29.1951L64.1025 29.2147L64.0884 29.2346C62.9231 30.8796 61.232 31.7526 58.7292 31.7526C57.0164 31.7526 55.961 31.3273 55.302 30.7232C55.0624 30.5036 54.8648 30.3103 54.7043 30.1425C55.6557 29.3923 56.5231 28.4599 57.3153 27.3707L57.3369 27.3411L57.3572 27.3106C58.3149 25.874 58.7508 24.1928 58.7508 22.356C58.7508 19.1521 57.6007 16.4733 55.2184 14.5448C52.9522 12.7103 50.2202 11.8244 47.1272 11.8244C42.1144 11.8244 38.0725 13.3632 35.3648 16.7128C32.8199 19.7716 31.5452 23.3622 31.5452 27.4063C31.5452 30.981 32.2937 34.1689 33.8661 36.9013C35.4414 39.6386 37.7848 41.8163 40.8128 43.4544L41.2127 43.6707H46.1717C46.983 43.6707 47.5766 43.7264 47.9901 43.8078C48.0724 44.0551 48.1594 44.4931 48.1973 45.1912C48.1902 45.6423 48.0654 46.0755 47.7881 46.5192L47.7693 46.5492L47.7517 46.58L47.7488 46.585C47.7197 46.5969 47.6185 46.6305 47.4002 46.6305H42.5449L42.4673 46.6373C38.0086 47.025 34.231 48.3957 31.2552 50.8527C28.3849 53.133 26.245 55.9709 24.8558 59.3447C23.4945 62.6508 22.8096 66.0676 22.8096 69.5832C22.8096 75.7835 24.2439 81.2653 27.1774 85.9589C30.0927 90.6234 34.1284 94.2132 39.2385 96.7201L39.2566 96.729L39.2749 96.7374C44.4568 99.1365 50.2706 100.316 56.6818 100.316C63.5761 100.316 69.9041 98.8978 75.6333 96.0343C81.4425 93.1764 86.0993 89.2011 89.5596 84.1077C93.1379 78.8838 94.9219 72.9775 94.9219 66.4438C94.9219 62.9357 94.2398 59.5648 92.8773 56.3456C91.5807 53.0645 89.5724 50.3486 86.8578 48.2373C84.0422 46.0474 80.636 44.9926 76.7465 44.9926C75.0393 44.9926 73.1574 45.3638 71.1283 46.0402L71.1156 46.0444L71.1029 46.0489C69.0276 46.7752 67.238 47.9262 65.763 49.4995C64.0902 51.1854 63.3782 53.3802 63.4867 55.8752L63.488 55.9051L63.4903 55.9349C63.6073 57.4564 64.1349 58.8856 65.0151 60.2058L65.0354 60.2363L65.0569 60.2659C66.1268 61.737 67.7336 62.5581 69.6097 62.8891L69.6606 62.8981L69.7119 62.9042C71.5229 63.1172 73.2315 62.9149 74.7692 62.2052C76.0267 61.6248 77.111 60.9501 77.9392 60.1461C78.0551 60.323 78.1842 60.534 78.3265 60.7831L78.3498 60.8238L78.3752 60.8632C78.902 61.6827 79.1557 62.8092 78.9275 64.4112C78.6256 66.4417 77.7577 67.9082 76.3576 68.9607C74.9817 69.9725 73.2781 70.5171 71.1502 70.5171C68.2524 70.5171 66.0078 69.413 64.2581 67.1368C62.4511 64.6956 61.4807 61.5066 61.4807 57.4351C61.4807 52.9175 62.306 49.393 63.8246 46.7465C65.4939 43.9981 67.644 41.8546 70.2825 40.2857C73.1146 38.6566 76.2613 37.4471 79.7342 36.6657L79.7549 36.661L79.7755 36.6559C83.3426 35.7641 86.9542 35.0952 90.6108 34.6492C94.4245 34.1952 98.0554 33.7867 101.504 33.4238L101.527 33.4213L101.55 33.4183C105.085 32.9531 108.16 32.2956 110.756 31.4305L110.779 31.4229L110.801 31.4146C113.024 30.6063 114.939 29.4263 116.508 27.8573C118.187 26.1784 119.063 24.1511 118.942 21.8521L118.941 21.8247L118.939 21.7974C118.815 20.3182 118.249 18.9964 117.263 17.8869C116.12 16.6016 114.341 15.9625 112.365 15.6661L112.337 15.6619L112.308 15.6585C110.498 15.4455 108.789 15.6478 107.251 16.3575C106.013 16.9291 104.935 17.5768 104.06 18.3201C103.935 18.1418 103.797 17.9357 103.645 17.6995C103.119 16.8802 102.865 15.754 103.093 14.1526C103.404 12.0599 104.212 10.7258 105.37 9.88952L105.396 9.87082L105.421 9.85122C106.781 8.79323 108.316 8.19199 110.067 8.03915C111.959 7.88195 113.698 8.15514 115.313 8.8404C117.35 9.83054 118.686 11.2988 119.423 13.2887L119.427 13.2992L119.431 13.3096C120.26 15.4644 120.622 17.588 120.541 19.6936L120.54 19.7118L120.54 19.73C120.457 24.3122 118.931 28.1623 115.966 31.3749L115.957 31.3842L115.949 31.3936C112.996 34.6842 109.033 37.2632 103.988 39.091C99.0173 40.8341 93.5367 41.7167 87.5296 41.7167H82.6595L86.3635 44.8786C89.9438 47.9349 92.6558 51.2632 94.5378 54.8561L94.5455 54.8708L94.5535 54.8854C96.4951 58.4309 97.4722 62.3182 97.4722 66.5803C97.4722 74.9211 95.4578 82.0227 91.4985 87.964C87.5033 93.868 82.1184 98.4366 75.2995 101.672C68.569 104.818 60.9726 106.367 52.4751 106.279C47.2629 106.19 42.1883 105.439 37.247 104.027L37.2366 104.024L37.2261 104.022Z" fill="url(#paint1_linear_242_546)" fill-opacity="0.8334" style="mix-blend-mode:overlay"/>
<path d="M37.2261 104.022C32.4257 102.712 28.1246 100.668 24.3078 97.8944C20.5296 95.0584 17.5222 91.4945 15.2794 87.1814C13.0732 82.9387 11.9331 77.8212 11.9331 71.7671C11.9331 67.7298 12.7041 63.9762 14.2345 60.4867C15.8443 56.9318 18.1634 53.9834 21.2039 51.6186L21.2091 51.6145C24.2974 49.194 28.1871 47.5657 32.9488 46.7865L34.4547 46.5401V43.7121L33.7433 43.1731C30.8983 41.0178 28.9159 38.7552 27.7022 36.4088C26.4747 34.0356 25.8556 31.4538 25.8556 28.6348C25.8556 23.2145 27.7867 18.949 31.6388 15.6705L31.6413 15.6684C35.5861 12.2989 41.1725 10.5025 48.6286 10.5025C51.8153 10.5025 54.7556 10.9758 57.4629 11.9064C60.1101 12.8164 62.1985 14.1979 63.7892 16.0273L63.8035 16.0437L63.8182 16.0598C65.3801 17.7705 66.2149 19.9996 66.2149 22.902C66.2149 25.2433 65.5219 27.3221 64.1172 29.1951L64.1025 29.2147L64.0884 29.2346C62.9231 30.8796 61.232 31.7526 58.7292 31.7526C57.0164 31.7526 55.961 31.3273 55.302 30.7232C55.0624 30.5036 54.8648 30.3103 54.7043 30.1425C55.6557 29.3923 56.5231 28.4599 57.3153 27.3707L57.3369 27.3411L57.3572 27.3106C58.3149 25.874 58.7508 24.1928 58.7508 22.356C58.7508 19.1521 57.6007 16.4733 55.2184 14.5448C52.9522 12.7103 50.2202 11.8244 47.1272 11.8244C42.1144 11.8244 38.0725 13.3632 35.3648 16.7128C32.8199 19.7716 31.5452 23.3622 31.5452 27.4063C31.5452 30.981 32.2937 34.1689 33.8661 36.9013C35.4414 39.6386 37.7848 41.8163 40.8128 43.4544L41.2127 43.6707H46.1717C46.983 43.6707 47.5766 43.7264 47.9901 43.8078C48.0724 44.0551 48.1594 44.4931 48.1973 45.1912C48.1902 45.6423 48.0654 46.0755 47.7881 46.5192L47.7693 46.5492L47.7517 46.58L47.7488 46.585C47.7197 46.5969 47.6185 46.6305 47.4002 46.6305H42.5449L42.4673 46.6373C38.0086 47.025 34.231 48.3957 31.2552 50.8527C28.3849 53.133 26.245 55.9709 24.8558 59.3447C23.4945 62.6508 22.8096 66.0676 22.8096 69.5832C22.8096 75.7835 24.2439 81.2653 27.1774 85.9589C30.0927 90.6234 34.1284 94.2132 39.2385 96.7201L39.2566 96.729L39.2749 96.7374C44.4568 99.1365 50.2706 100.316 56.6818 100.316C63.5761 100.316 69.9041 98.8978 75.6333 96.0343C81.4425 93.1764 86.0993 89.2011 89.5596 84.1077C93.1379 78.8838 94.9219 72.9775 94.9219 66.4438C94.9219 62.9357 94.2398 59.5648 92.8773 56.3456C91.5807 53.0645 89.5724 50.3486 86.8578 48.2373C84.0422 46.0474 80.636 44.9926 76.7465 44.9926C75.0393 44.9926 73.1574 45.3638 71.1283 46.0402L71.1156 46.0444L71.1029 46.0489C69.0276 46.7752 67.238 47.9262 65.763 49.4995C64.0902 51.1854 63.3782 53.3802 63.4867 55.8752L63.488 55.9051L63.4903 55.9349C63.6073 57.4564 64.1349 58.8856 65.0151 60.2058L65.0354 60.2363L65.0569 60.2659C66.1268 61.737 67.7336 62.5581 69.6097 62.8891L69.6606 62.8981L69.7119 62.9042C71.5229 63.1172 73.2315 62.9149 74.7692 62.2052C76.0267 61.6248 77.111 60.9501 77.9392 60.1461C78.0551 60.323 78.1842 60.534 78.3265 60.7831L78.3498 60.8238L78.3752 60.8632C78.902 61.6827 79.1557 62.8092 78.9275 64.4112C78.6256 66.4417 77.7577 67.9082 76.3576 68.9607C74.9817 69.9725 73.2781 70.5171 71.1502 70.5171C68.2524 70.5171 66.0078 69.413 64.2581 67.1368C62.4511 64.6956 61.4807 61.5066 61.4807 57.4351C61.4807 52.9175 62.306 49.393 63.8246 46.7465C65.4939 43.9981 67.644 41.8546 70.2825 40.2857C73.1146 38.6566 76.2613 37.4471 79.7342 36.6657L79.7549 36.661L79.7755 36.6559C83.3426 35.7641 86.9542 35.0952 90.6108 34.6492C94.4245 34.1952 98.0554 33.7867 101.504 33.4238L101.527 33.4213L101.55 33.4183C105.085 32.9531 108.16 32.2956 110.756 31.4305L110.779 31.4229L110.801 31.4146C113.024 30.6063 114.939 29.4263 116.508 27.8573C118.187 26.1784 119.063 24.1511 118.942 21.8521L118.941 21.8247L118.939 21.7974C118.815 20.3182 118.249 18.9964 117.263 17.8869C116.12 16.6016 114.341 15.9625 112.365 15.6661L112.337 15.6619L112.308 15.6585C110.498 15.4455 108.789 15.6478 107.251 16.3575C106.013 16.9291 104.935 17.5768 104.06 18.3201C103.935 18.1418 103.797 17.9357 103.645 17.6995C103.119 16.8802 102.865 15.754 103.093 14.1526C103.404 12.0599 104.212 10.7258 105.37 9.88952L105.396 9.87082L105.421 9.85122C106.781 8.79323 108.316 8.19199 110.067 8.03915C111.959 7.88195 113.698 8.15514 115.313 8.8404C117.35 9.83054 118.686 11.2988 119.423 13.2887L119.427 13.2992L119.431 13.3096C120.26 15.4644 120.622 17.588 120.541 19.6936L120.54 19.7118L120.54 19.73C120.457 24.3122 118.931 28.1623 115.966 31.3749L115.957 31.3842L115.949 31.3936C112.996 34.6842 109.033 37.2632 103.988 39.091C99.0173 40.8341 93.5367 41.7167 87.5296 41.7167H82.6595L86.3635 44.8786C89.9438 47.9349 92.6558 51.2632 94.5378 54.8561L94.5455 54.8708L94.5535 54.8854C96.4951 58.4309 97.4722 62.3182 97.4722 66.5803C97.4722 74.9211 95.4578 82.0227 91.4985 87.964C87.5033 93.868 82.1184 98.4366 75.2995 101.672C68.569 104.818 60.9726 106.367 52.4751 106.279C47.2629 106.19 42.1883 105.439 37.247 104.027L37.2366 104.024L37.2261 104.022Z" fill="url(#paint2_linear_242_546)" fill-opacity="0.68" style="mix-blend-mode:overlay"/>
<defs>
<linearGradient id="paint0_linear_242_546" x1="66.2426" y1="7.99597" x2="66.2426" y2="106.282" gradientUnits="userSpaceOnUse">
<stop stop-color="white"/>
<stop offset="1" stop-color="white" stop-opacity="0"/>
</linearGradient>
<linearGradient id="paint1_linear_242_546" x1="66.2426" y1="7.99597" x2="66.2426" y2="106.282" gradientUnits="userSpaceOnUse">
<stop stop-color="#F8D362"/>
<stop offset="1" stop-color="#F8D362" stop-opacity="0"/>
</linearGradient>
<linearGradient id="paint2_linear_242_546" x1="11.9331" y1="57.1392" x2="66.2426" y2="106.282" gradientUnits="userSpaceOnUse">
<stop stop-color="#F2E2B8" stop-opacity="0.7"/>
<stop offset="1" stop-color="#FFE7AB" stop-opacity="0"/>
</linearGradient>
</defs>
</svg>
