<svg width="84" height="85" viewBox="0 0 84 85" fill="none" xmlns="http://www.w3.org/2000/svg">
<path d="M29.9999 42.5V14.15C29.9999 7.43974 35.4397 2 42.1499 2C48.8601 2 54.2999 7.43974 54.2999 14.15V42.5M29.9999 42.5C29.9999 49.2102 35.4397 54.65 42.1499 54.65M29.9999 42.5C29.9999 35.7898 35.4397 30.35 42.1499 30.35M29.9999 42.5V70.85C29.9999 77.5602 35.4397 83 42.1499 83C48.8601 83 54.2999 77.5602 54.2999 70.85V42.5M42.1499 54.65C48.8601 54.65 54.2999 49.2102 54.2999 42.5M42.1499 54.65H70.4999C77.2101 54.65 82.6499 49.2102 82.6499 42.5C82.6499 35.7898 77.2101 30.35 70.4999 30.35H42.1499M42.1499 54.65H13.7999C7.08964 54.65 1.6499 49.2102 1.6499 42.5C1.6499 35.7898 7.08964 30.35 13.7999 30.35H42.1499M54.2999 42.5C54.2999 35.7898 48.8601 30.35 42.1499 30.35M33.5586 33.9083L53.6051 13.8617C58.3499 9.11681 66.0429 9.11681 70.7879 13.8617C75.5326 18.6066 75.5326 26.2995 70.7879 31.0443L50.7414 51.0908M33.5586 33.9083C28.8137 38.6531 28.8137 46.346 33.5586 51.0908M33.5586 33.9083C38.3036 29.1633 45.9964 29.1638 50.7412 33.9087M33.5586 33.9083L13.5129 53.9552C8.76803 58.7 8.76803 66.393 13.5129 71.1378C18.2578 75.8827 25.9508 75.8827 30.6955 71.1378L50.7414 51.0908M33.5586 51.0908C38.3034 55.8358 45.9964 55.8358 50.7414 51.0908M33.5586 51.0908L53.605 71.1378C58.35 75.8827 66.0429 75.8827 70.7877 71.1378C75.5327 66.393 75.5327 58.7 70.7877 53.955L50.7412 33.9087M33.5586 51.0908L13.5129 31.0445C8.76803 26.2995 8.76803 18.6066 13.5129 13.8617C18.2578 9.11681 25.9508 9.11681 30.6957 13.8617L50.7412 33.9087M50.7414 51.0908C55.4863 46.346 55.4862 38.6535 50.7412 33.9087" stroke="#25C5DA" stroke-width="1.35" stroke-linecap="round" stroke-linejoin="round"/>
<path d="M29.9999 42.5V14.15C29.9999 7.43974 35.4397 2 42.1499 2C48.8601 2 54.2999 7.43974 54.2999 14.15V42.5M29.9999 42.5C29.9999 49.2102 35.4397 54.65 42.1499 54.65M29.9999 42.5C29.9999 35.7898 35.4397 30.35 42.1499 30.35M29.9999 42.5V70.85C29.9999 77.5602 35.4397 83 42.1499 83C48.8601 83 54.2999 77.5602 54.2999 70.85V42.5M42.1499 54.65C48.8601 54.65 54.2999 49.2102 54.2999 42.5M42.1499 54.65H70.4999C77.2101 54.65 82.6499 49.2102 82.6499 42.5C82.6499 35.7898 77.2101 30.35 70.4999 30.35H42.1499M42.1499 54.65H13.7999C7.08964 54.65 1.6499 49.2102 1.6499 42.5C1.6499 35.7898 7.08964 30.35 13.7999 30.35H42.1499M54.2999 42.5C54.2999 35.7898 48.8601 30.35 42.1499 30.35M33.5586 33.9083L53.6051 13.8617C58.3499 9.11681 66.0429 9.11681 70.7879 13.8617C75.5326 18.6066 75.5326 26.2995 70.7879 31.0443L50.7414 51.0908M33.5586 33.9083C28.8137 38.6531 28.8137 46.346 33.5586 51.0908M33.5586 33.9083C38.3036 29.1633 45.9964 29.1638 50.7412 33.9087M33.5586 33.9083L13.5129 53.9552C8.76803 58.7 8.76803 66.393 13.5129 71.1378C18.2578 75.8827 25.9508 75.8827 30.6955 71.1378L50.7414 51.0908M33.5586 51.0908C38.3034 55.8358 45.9964 55.8358 50.7414 51.0908M33.5586 51.0908L53.605 71.1378C58.35 75.8827 66.0429 75.8827 70.7877 71.1378C75.5327 66.393 75.5327 58.7 70.7877 53.955L50.7412 33.9087M33.5586 51.0908L13.5129 31.0445C8.76803 26.2995 8.76803 18.6066 13.5129 13.8617C18.2578 9.11681 25.9508 9.11681 30.6957 13.8617L50.7412 33.9087M50.7414 51.0908C55.4863 46.346 55.4862 38.6535 50.7412 33.9087" stroke="url(#paint0_linear_137_721)" stroke-opacity="0.38" stroke-width="1.35" stroke-linecap="round" stroke-linejoin="round"/>
<path d="M29.9999 42.5V14.15C29.9999 7.43974 35.4397 2 42.1499 2C48.8601 2 54.2999 7.43974 54.2999 14.15V42.5M29.9999 42.5C29.9999 49.2102 35.4397 54.65 42.1499 54.65M29.9999 42.5C29.9999 35.7898 35.4397 30.35 42.1499 30.35M29.9999 42.5V70.85C29.9999 77.5602 35.4397 83 42.1499 83C48.8601 83 54.2999 77.5602 54.2999 70.85V42.5M42.1499 54.65C48.8601 54.65 54.2999 49.2102 54.2999 42.5M42.1499 54.65H70.4999C77.2101 54.65 82.6499 49.2102 82.6499 42.5C82.6499 35.7898 77.2101 30.35 70.4999 30.35H42.1499M42.1499 54.65H13.7999C7.08964 54.65 1.6499 49.2102 1.6499 42.5C1.6499 35.7898 7.08964 30.35 13.7999 30.35H42.1499M54.2999 42.5C54.2999 35.7898 48.8601 30.35 42.1499 30.35M33.5586 33.9083L53.6051 13.8617C58.3499 9.11681 66.0429 9.11681 70.7879 13.8617C75.5326 18.6066 75.5326 26.2995 70.7879 31.0443L50.7414 51.0908M33.5586 33.9083C28.8137 38.6531 28.8137 46.346 33.5586 51.0908M33.5586 33.9083C38.3036 29.1633 45.9964 29.1638 50.7412 33.9087M33.5586 33.9083L13.5129 53.9552C8.76803 58.7 8.76803 66.393 13.5129 71.1378C18.2578 75.8827 25.9508 75.8827 30.6955 71.1378L50.7414 51.0908M33.5586 51.0908C38.3034 55.8358 45.9964 55.8358 50.7414 51.0908M33.5586 51.0908L53.605 71.1378C58.35 75.8827 66.0429 75.8827 70.7877 71.1378C75.5327 66.393 75.5327 58.7 70.7877 53.955L50.7412 33.9087M33.5586 51.0908L13.5129 31.0445C8.76803 26.2995 8.76803 18.6066 13.5129 13.8617C18.2578 9.11681 25.9508 9.11681 30.6957 13.8617L50.7412 33.9087M50.7414 51.0908C55.4863 46.346 55.4862 38.6535 50.7412 33.9087" stroke="url(#paint1_linear_137_721)" stroke-opacity="0.8334" stroke-width="1.35" stroke-linecap="round" stroke-linejoin="round" style="mix-blend-mode:overlay"/>
<defs>
<linearGradient id="paint0_linear_137_721" x1="42.1499" y1="2" x2="42.1499" y2="83" gradientUnits="userSpaceOnUse">
<stop stop-color="white"/>
<stop offset="1" stop-color="white" stop-opacity="0"/>
</linearGradient>
<linearGradient id="paint1_linear_137_721" x1="42.1499" y1="2" x2="42.1499" y2="83" gradientUnits="userSpaceOnUse">
<stop stop-color="#F8D362"/>
<stop offset="1" stop-color="#F8D362" stop-opacity="0"/>
</linearGradient>
</defs>
</svg>
