<svg width="24" height="22" viewBox="0 0 24 22" fill="none" xmlns="http://www.w3.org/2000/svg">
<path d="M8.98726 21.6379C7.84694 21.6186 6.73561 21.4543 5.65328 21.1451C4.59027 20.8552 3.63356 20.401 2.78315 19.7825C1.93274 19.1447 1.25628 18.3426 0.75377 17.3762C0.251257 16.4099 0 15.2599 0 13.9263C0 13.0179 0.173947 12.1675 0.521841 11.3751C0.889062 10.5633 1.42057 9.88686 2.11635 9.34569C2.83147 8.7852 3.72053 8.41798 4.78354 8.24403V8.15706C4.14573 7.67387 3.68188 7.15203 3.39196 6.59153C3.10205 6.03104 2.9571 5.42222 2.9571 4.76509C2.9571 3.50881 3.41129 2.49412 4.31968 1.72102C5.2474 0.928595 6.53267 0.532384 8.1755 0.532384C8.89062 0.532384 9.55742 0.638684 10.1759 0.851286C10.7944 1.06389 11.2969 1.39245 11.6834 1.83698C12.0893 2.28152 12.2922 2.85167 12.2922 3.54746C12.2922 4.12729 12.1183 4.64913 11.7704 5.11298C11.4418 5.57684 10.9587 5.80877 10.3209 5.80877C9.89565 5.80877 9.56708 5.70247 9.33515 5.48987C9.10322 5.27727 8.98726 5.12265 8.98726 5.02601C8.98726 4.98736 9.06457 4.91005 9.21919 4.79408C9.39313 4.65879 9.55742 4.48484 9.71204 4.27224C9.86666 4.04031 9.94397 3.76006 9.94397 3.4315C9.94397 2.85168 9.74103 2.39748 9.33515 2.06891C8.92928 1.74035 8.43643 1.57606 7.8566 1.57606C6.8709 1.57606 6.13646 1.87564 5.65328 2.47479C5.17009 3.05461 4.9285 3.73107 4.9285 4.50417C4.9285 5.91507 5.51798 6.93943 6.69696 7.57723H7.65366C7.88559 7.57723 8.0692 7.59656 8.2045 7.63521C8.35912 7.67387 8.44609 7.88647 8.46542 8.27302C8.46542 8.44697 8.4171 8.61125 8.32046 8.76587C8.24315 8.90116 8.10786 8.96881 7.91458 8.96881H6.89989C6.01083 9.04612 5.28605 9.3167 4.72556 9.78056C4.16506 10.2251 3.74952 10.7759 3.47894 11.4331C3.20835 12.0902 3.07306 12.7666 3.07306 13.4624C3.07306 14.7187 3.36297 15.8107 3.9428 16.7384C4.52262 17.6662 5.32471 18.3813 6.34906 18.8838C7.39274 19.367 8.57172 19.6086 9.88598 19.6086C11.2969 19.6086 12.5822 19.3186 13.7418 18.7388C14.9208 18.159 15.8582 17.3569 16.5539 16.3326C17.2691 15.2889 17.6266 14.1099 17.6266 12.7956C17.6266 12.0999 17.4913 11.4331 17.2207 10.7953C16.9695 10.1574 16.5829 9.6356 16.0611 9.22973C15.5393 8.82385 14.9015 8.62091 14.1477 8.62091C13.8384 8.62091 13.4809 8.68856 13.075 8.82385C12.6885 8.95914 12.3599 9.17175 12.0893 9.46166C11.8187 9.73224 11.6931 10.0898 11.7124 10.5343C11.7318 10.7856 11.8187 11.0272 11.9733 11.2591C12.128 11.4717 12.3696 11.607 12.6981 11.665C13.0267 11.7036 13.3166 11.665 13.5679 11.549C13.8191 11.4331 14.0124 11.3074 14.1477 11.1721C14.3023 11.0368 14.3989 10.9692 14.4376 10.9692C14.5342 10.9885 14.6599 11.1335 14.8145 11.4041C14.9884 11.6746 15.0464 12.0129 14.9884 12.4188C14.9111 12.9406 14.6792 13.3465 14.2926 13.6364C13.9254 13.907 13.4809 14.0423 12.959 14.0423C12.2246 14.0423 11.6351 13.7523 11.1906 13.1725C10.7461 12.5734 10.5238 11.8099 10.5238 10.8822C10.5238 9.8772 10.7074 9.05578 11.0746 8.41798C11.4612 7.78017 11.9637 7.27766 12.5822 6.91044C13.22 6.54321 13.9254 6.27263 14.6985 6.09868C15.4716 5.90541 16.2544 5.76045 17.0468 5.66382C17.8585 5.56718 18.6316 5.48021 19.3661 5.4029C20.1005 5.30626 20.7287 5.17097 21.2505 4.99702C21.6757 4.8424 22.0333 4.62013 22.3232 4.33022C22.6131 4.04031 22.7484 3.71175 22.7291 3.34453C22.7097 3.1126 22.6228 2.90966 22.4681 2.73571C22.3135 2.56176 22.0429 2.4458 21.6564 2.38782C21.3278 2.34916 21.0379 2.38782 20.7867 2.50378C20.5354 2.61975 20.3325 2.74537 20.1778 2.88067C20.0425 3.01596 19.9556 3.0836 19.9169 3.0836C19.8396 3.06428 19.714 2.91932 19.54 2.64874C19.3661 2.37815 19.3081 2.03992 19.3661 1.63405C19.4434 1.11221 19.656 0.725657 20.0039 0.4744C20.3518 0.203816 20.748 0.0491969 21.1925 0.0105425C21.6564 -0.028113 22.0913 0.0395329 22.4971 0.21348C23.019 0.464737 23.3765 0.851286 23.5698 1.37313C23.7631 1.87564 23.8501 2.37815 23.8307 2.88067C23.8114 3.94367 23.4538 4.85206 22.7581 5.60583C22.0816 6.3596 21.1829 6.93943 20.0619 7.3453C18.9602 7.73185 17.7522 7.92513 16.438 7.92513C17.2304 8.60159 17.8392 9.34569 18.2644 10.1574C18.709 10.9692 18.9312 11.8583 18.9312 12.8246C18.9312 14.6607 18.4867 16.2456 17.5976 17.5792C16.7086 18.8934 15.5103 19.9081 14.0027 20.6232C12.5145 21.319 10.8427 21.6573 8.98726 21.6379Z" fill="white"/>
<path fill-rule="evenodd" clip-rule="evenodd" d="M5.65328 21.1451C6.73561 21.4543 7.84694 21.6186 8.98726 21.6379C10.8427 21.6573 12.5145 21.319 14.0027 20.6232C15.5103 19.9081 16.7086 18.8934 17.5976 17.5792C18.4867 16.2456 18.9312 14.6607 18.9312 12.8246C18.9312 11.8583 18.709 10.9692 18.2644 10.1574C17.9201 9.50001 17.4552 8.88694 16.87 8.31825C16.7326 8.18477 16.5886 8.05372 16.438 7.92513C16.6356 7.92513 16.8308 7.92076 17.0236 7.91202C18.1131 7.86264 19.1258 7.67374 20.0619 7.3453C21.1829 6.93943 22.0816 6.3596 22.7581 5.60583C23.4538 4.85206 23.8114 3.94368 23.8307 2.88067C23.8501 2.37815 23.7631 1.87564 23.5698 1.37313C23.3765 0.851286 23.019 0.464737 22.4971 0.21348C22.0913 0.0395328 21.6564 -0.028113 21.1925 0.0105426C20.748 0.0491971 20.3518 0.203816 20.0039 0.4744C19.656 0.725657 19.4434 1.11221 19.3661 1.63405C19.3081 2.03992 19.3661 2.37815 19.54 2.64874C19.714 2.91932 19.8396 3.06428 19.9169 3.0836C19.9556 3.0836 20.0425 3.01596 20.1778 2.88067C20.3325 2.74537 20.5354 2.61975 20.7867 2.50378C21.0379 2.38782 21.3278 2.34916 21.6564 2.38782C22.0429 2.4458 22.3135 2.56176 22.4681 2.73571C22.6228 2.90966 22.7097 3.1126 22.7291 3.34453C22.7484 3.71175 22.6131 4.04031 22.3232 4.33022C22.0333 4.62013 21.6757 4.8424 21.2505 4.99702C20.7287 5.17097 20.1005 5.30626 19.3661 5.4029C18.6316 5.48021 17.8585 5.56718 17.0468 5.66382C16.2544 5.76045 15.4716 5.90541 14.6985 6.09868C13.9254 6.27263 13.22 6.54321 12.5822 6.91044C11.9637 7.27766 11.4612 7.78017 11.0746 8.41798C10.7074 9.05578 10.5238 9.8772 10.5238 10.8822C10.5238 11.8099 10.7461 12.5734 11.1906 13.1725C11.6351 13.7523 12.2246 14.0423 12.959 14.0423C13.4809 14.0423 13.9254 13.907 14.2926 13.6364C14.6792 13.3465 14.9111 12.9406 14.9884 12.4188C15.0464 12.0129 14.9884 11.6746 14.8145 11.4041C14.6599 11.1335 14.5342 10.9885 14.4376 10.9692C14.3989 10.9692 14.3023 11.0368 14.1477 11.1721C14.0124 11.3074 13.8191 11.4331 13.5679 11.549C13.3166 11.665 13.0267 11.7036 12.6981 11.665C12.3696 11.607 12.128 11.4717 11.9733 11.2591C11.8187 11.0272 11.7318 10.7856 11.7124 10.5343C11.6931 10.0898 11.8187 9.73224 12.0893 9.46166C12.3599 9.17175 12.6885 8.95914 13.075 8.82385C13.4809 8.68856 13.8384 8.62091 14.1477 8.62091C14.9015 8.62091 15.5393 8.82385 16.0611 9.22973C16.5829 9.6356 16.9695 10.1574 17.2207 10.7953C17.4913 11.4331 17.6266 12.0999 17.6266 12.7956C17.6266 14.1099 17.2691 15.2889 16.5539 16.3326C15.8582 17.3569 14.9208 18.159 13.7418 18.7388C12.5822 19.3186 11.2969 19.6086 9.88598 19.6086C8.57172 19.6086 7.39274 19.367 6.34906 18.8838C5.32471 18.3813 4.52262 17.6662 3.9428 16.7384C3.36297 15.8107 3.07306 14.7187 3.07306 13.4624C3.07306 12.7666 3.20835 12.0902 3.47894 11.4331C3.74952 10.7759 4.16506 10.2251 4.72556 9.78056C5.28605 9.3167 6.01083 9.04612 6.89989 8.96881H7.91458C8.10786 8.96881 8.24315 8.90116 8.32046 8.76587C8.4171 8.61125 8.46542 8.44697 8.46542 8.27302C8.44609 7.88647 8.35912 7.67387 8.2045 7.63521C8.0692 7.59656 7.88559 7.57723 7.65366 7.57723H6.69696C5.51798 6.93943 4.9285 5.91507 4.9285 4.50417C4.9285 3.73107 5.17009 3.05461 5.65328 2.47479C6.13646 1.87564 6.8709 1.57606 7.8566 1.57606C8.43643 1.57606 8.92928 1.74035 9.33515 2.06891C9.74103 2.39748 9.94397 2.85168 9.94397 3.4315C9.94397 3.76006 9.86666 4.04031 9.71204 4.27224C9.55742 4.48484 9.39313 4.65879 9.21919 4.79408C9.06457 4.91005 8.98726 4.98736 8.98726 5.02601C8.98726 5.12265 9.10322 5.27727 9.33515 5.48987C9.56708 5.70247 9.89565 5.80877 10.3209 5.80877C10.9587 5.80877 11.4418 5.57684 11.7704 5.11298C12.1183 4.64913 12.2922 4.12729 12.2922 3.54746C12.2922 2.85167 12.0893 2.28152 11.6834 1.83698C11.2969 1.39245 10.7944 1.06389 10.1759 0.851286C9.55742 0.638684 8.89062 0.532384 8.1755 0.532384C6.53267 0.532384 5.2474 0.928595 4.31968 1.72102C3.41129 2.49412 2.9571 3.50881 2.9571 4.76509C2.9571 5.42222 3.10205 6.03104 3.39196 6.59153C3.63038 7.05247 3.98643 7.48726 4.46013 7.89591C4.55754 7.97995 4.65992 8.06288 4.76729 8.14471C4.77269 8.14883 4.77811 8.15294 4.78354 8.15706V8.24403C4.75826 8.24817 4.73308 8.25241 4.708 8.25677C4.5872 8.27774 4.46869 8.30125 4.35246 8.3273C3.47793 8.52325 2.73256 8.86272 2.11635 9.34569C1.42057 9.88686 0.889062 10.5633 0.521841 11.3751C0.173947 12.1675 0 13.0179 0 13.9263C0 15.2599 0.251256 16.4099 0.75377 17.3762C1.25628 18.3426 1.93274 19.1447 2.78315 19.7825C3.63356 20.401 4.59027 20.8552 5.65328 21.1451ZM3.02082 19.4608C3.82957 20.0485 4.74102 20.4817 5.75852 20.7592L5.76317 20.7605C6.81107 21.0599 7.88725 21.2191 8.99266 21.238C10.795 21.2566 12.4056 20.9282 13.8323 20.2614C15.2778 19.5755 16.4189 18.6073 17.2655 17.3562C18.1042 16.0978 18.5312 14.5931 18.5312 12.8246C18.5312 11.9223 18.3244 11.0998 17.9136 10.3496L17.91 10.3431C17.5115 9.58231 16.9372 8.87718 16.1783 8.22935L15.3533 7.52513H16.438C17.712 7.52513 18.874 7.33795 19.9276 6.96851C20.9967 6.58115 21.8355 6.03494 22.4604 5.33867L22.4641 5.33449C23.0908 4.6556 23.4132 3.84229 23.4308 2.87339L23.4309 2.86529C23.448 2.42075 23.3717 1.9722 23.1965 1.51672L23.1947 1.51206C23.0399 1.09423 22.7598 0.786002 22.3315 0.577695C21.9915 0.43352 21.6253 0.375964 21.2264 0.409103C20.858 0.44127 20.5355 0.567663 20.2495 0.790141L20.2439 0.794508L20.2381 0.798672C19.9971 0.972723 19.8274 1.25106 19.7619 1.69176C19.714 2.02871 19.7677 2.2631 19.8765 2.43243C19.904 2.47526 19.9294 2.51335 19.9527 2.54702C20.1372 2.39327 20.3622 2.25912 20.619 2.1406C20.9493 1.98817 21.3158 1.94498 21.7031 1.99056L21.7158 1.99204C22.1371 2.05524 22.5201 2.19214 22.7671 2.46996C22.9792 2.7086 23.1012 2.99313 23.1277 3.31131L23.1287 3.32349C23.1547 3.81768 22.9659 4.25323 22.606 4.61307C22.2707 4.94842 21.8616 5.20043 21.3872 5.37294L21.3771 5.37663C20.8244 5.56085 20.1699 5.70058 19.4183 5.79948L19.408 5.80083C18.6757 5.87792 17.9045 5.96453 17.0945 6.06096C16.3187 6.1556 15.5524 6.29753 14.7955 6.48674L14.7863 6.48904C14.0504 6.65462 13.3839 6.91075 12.7841 7.25574C12.2265 7.58731 11.7721 8.04028 11.4191 8.6214C11.0987 9.17985 10.9238 9.9249 10.9238 10.8822C10.9238 11.7439 11.1291 12.4171 11.5099 12.9317C11.878 13.4104 12.3493 13.6423 12.959 13.6423C13.4076 13.6423 13.7655 13.5275 14.0541 13.3153C14.3472 13.0949 14.5292 12.788 14.5926 12.361C14.6405 12.0241 14.5869 11.7897 14.478 11.6204L14.4724 11.6116L14.4672 11.6025C14.442 11.5584 14.4188 11.5201 14.3976 11.4869C14.2219 11.6528 13.9956 11.7922 13.7355 11.9122C13.4052 12.0646 13.0388 12.1078 12.6514 12.0622L12.64 12.0609L12.6286 12.0589C12.2267 11.988 11.8806 11.8117 11.6499 11.4944L11.6451 11.4878L11.6405 11.481C11.452 11.1982 11.3387 10.8917 11.3136 10.565L11.3126 10.5517C11.2894 10.0176 11.4421 9.54615 11.8015 9.18382C12.1168 8.84752 12.4994 8.60151 12.9429 8.44631L12.9485 8.44434C13.3807 8.30027 13.7825 8.22091 14.1477 8.22091C14.9773 8.22091 15.7049 8.44598 16.3067 8.91399C16.8859 9.36451 17.3144 9.94404 17.591 10.6438C17.8813 11.3298 18.0266 12.0481 18.0266 12.7956C18.0266 14.1871 17.6466 15.4454 16.8842 16.5582C16.1474 17.6426 15.1559 18.4889 13.9195 19.0972C12.6998 19.7068 11.3529 20.0086 9.88598 20.0086C8.52196 20.0086 7.28439 19.7576 6.18101 19.2468L6.17285 19.243C5.08451 18.7091 4.22472 17.9442 3.6036 16.9504C2.97842 15.9502 2.67306 14.7823 2.67306 13.4624C2.67306 12.7133 2.81903 11.9851 3.10907 11.2808C3.40532 10.5613 3.86173 9.95599 4.47375 9.46974C5.10929 8.94504 5.91541 8.6529 6.86524 8.57031L6.88254 8.56881H7.91458C7.94814 8.56881 7.96719 8.56492 7.97603 8.56239L7.97708 8.56056L7.98126 8.55387C8.03832 8.46257 8.0638 8.37405 8.06534 8.282C8.05784 8.14428 8.0413 8.05582 8.02556 8.00395C7.93995 7.98811 7.81844 7.97723 7.65366 7.97723H6.59569L6.50663 7.92905C5.86087 7.57971 5.36043 7.11488 5.02392 6.53012C4.68804 5.94646 4.5285 5.26604 4.5285 4.50417C4.5285 3.64106 4.80065 2.87422 5.34395 2.22116C5.92352 1.50424 6.78805 1.17606 7.8566 1.17606C8.5173 1.17606 9.10182 1.36538 9.58683 1.75802C10.0977 2.17156 10.344 2.74609 10.344 3.4315C10.344 3.82463 10.2506 4.18544 10.0449 4.49412L10.0403 4.50091L10.0355 4.50751C9.87091 4.73386 9.69082 4.9288 9.49348 5.08713C9.52452 5.1189 9.56159 5.15481 9.60544 5.19501C9.74094 5.31922 9.96003 5.40877 10.3209 5.40877C10.8473 5.40877 11.2004 5.22562 11.444 4.88178L11.4503 4.8729C11.7463 4.47828 11.8922 4.04074 11.8922 3.54746C11.8922 2.93486 11.7162 2.4661 11.388 2.10669L11.3815 2.09953C11.046 1.7137 10.6054 1.4219 10.0459 1.22956C9.47296 1.03262 8.8505 0.932383 8.1755 0.932383C6.59472 0.932383 5.41299 1.31321 4.57948 2.02517C3.76567 2.71777 3.3571 3.61895 3.3571 4.76509C3.3571 5.36101 3.48795 5.90645 3.74725 6.40776C4.00346 6.90311 4.42244 7.38167 5.02508 7.83822L5.18354 7.95826V8.58389L4.84814 8.63878C3.83927 8.80387 3.01616 9.14866 2.36311 9.66051L2.36193 9.66144C1.71858 10.1618 1.22791 10.7856 0.887205 11.5379C0.563257 12.2766 0.4 13.0712 0.4 13.9263C0.4 15.2099 0.641711 16.2937 1.10866 17.1917C1.58375 18.1053 2.22068 18.8601 3.02082 19.4608Z" fill="#25C5DA"/>
</svg>
