<svg width="124" height="116" viewBox="0 0 124 116" fill="none" xmlns="http://www.w3.org/2000/svg">
<path d="M37.2261 99.6768C32.4257 98.3676 28.1246 96.3235 24.3078 93.5497C20.5296 90.7137 17.5222 87.1497 15.2794 82.8366C13.0732 78.5939 11.9331 73.4765 11.9331 67.4223C11.9331 63.385 12.7041 59.6314 14.2345 56.142C15.8443 52.587 18.1634 49.6386 21.2039 47.2739L21.2091 47.2697C24.2974 44.8492 28.1871 43.221 32.9488 42.4418L34.4547 42.1954V39.3673L33.7433 38.8283C30.8983 36.673 28.9159 34.4105 27.7022 32.0641C26.4747 29.6909 25.8556 27.1091 25.8556 24.29C25.8556 18.8698 27.7867 14.6042 31.6388 11.3258L31.6413 11.3237C35.5861 7.95415 41.1725 6.1578 48.6286 6.1578C51.8153 6.1578 54.7556 6.63107 57.4629 7.5617C60.1101 8.47168 62.1985 9.85321 63.7892 11.6826L63.8035 11.699L63.8182 11.715C65.3801 13.4258 66.2149 15.6549 66.2149 18.5573C66.2149 20.8986 65.5219 22.9773 64.1172 24.8504L64.1025 24.8699L64.0884 24.8899C62.9231 26.5349 61.232 27.4079 58.7292 27.4079C57.0164 27.4079 55.961 26.9826 55.302 26.3785C55.0624 26.1588 54.8648 25.9656 54.7043 25.7978C55.6557 25.0476 56.5231 24.1152 57.3153 23.026L57.3369 22.9963L57.3572 22.9659C58.3149 21.5293 58.7508 19.8481 58.7508 18.0113C58.7508 14.8073 57.6007 12.1286 55.2184 10.2001C52.9522 8.36553 50.2202 7.47964 47.1272 7.47964C42.1144 7.47964 38.0725 9.01845 35.3648 12.3681C32.8199 15.4268 31.5452 19.0175 31.5452 23.0616C31.5452 26.6363 32.2937 29.8242 33.8661 32.5565C35.4414 35.2938 37.7848 37.4715 40.8128 39.1097L41.2127 39.326H46.1717C46.983 39.326 47.5766 39.3817 47.9901 39.4631C48.0724 39.7104 48.1594 40.1483 48.1973 40.8465C48.1902 41.2976 48.0654 41.7308 47.7881 42.1744L47.7693 42.2045L47.7517 42.2352L47.7488 42.2403C47.7197 42.2522 47.6185 42.2858 47.4002 42.2858H42.5449L42.4673 42.2925C38.0086 42.6802 34.231 44.0509 31.2552 46.508C28.3849 48.7883 26.245 51.6262 24.8558 55C23.4945 58.306 22.8096 61.7229 22.8096 65.2384C22.8096 71.4388 24.2439 76.9205 27.1774 81.6142C30.0927 86.2787 34.1284 89.8685 39.2385 92.3753L39.2566 92.3842L39.2749 92.3927C44.4568 94.7917 50.2706 95.9713 56.6818 95.9713C63.5761 95.9713 69.9041 94.5531 75.6333 91.6896C81.4425 88.8316 86.0993 84.8564 89.5596 79.763C93.1379 74.5391 94.9219 68.6328 94.9219 62.099C94.9219 58.591 94.2398 55.2201 92.8773 52.0008C91.5807 48.7198 89.5724 46.0039 86.8578 43.8925C84.0422 41.7027 80.636 40.6478 76.7465 40.6478C75.0393 40.6478 73.1574 41.0191 71.1283 41.6955L71.1156 41.6997L71.1029 41.7041C69.0276 42.4305 67.238 43.5815 65.763 45.1548C64.0902 46.8406 63.3782 49.0355 63.4867 51.5305L63.488 51.5604L63.4903 51.5902C63.6073 53.1117 64.1349 54.5409 65.0151 55.8611L65.0354 55.8915L65.0569 55.9212C66.1268 57.3922 67.7336 58.2133 69.6097 58.5444L69.6606 58.5534L69.7119 58.5594C71.5229 58.7725 73.2315 58.5702 74.7692 57.8605C76.0267 57.2801 77.111 56.6054 77.9392 55.8014C78.0551 55.9783 78.1842 56.1893 78.3265 56.4384L78.3498 56.4791L78.3752 56.5185C78.902 57.338 79.1557 58.4645 78.9275 60.0665C78.6256 62.097 77.7577 63.5635 76.3576 64.616C74.9817 65.6277 73.2781 66.1723 71.1502 66.1723C68.2524 66.1723 66.0078 65.0683 64.2581 62.7921C62.4511 60.3508 61.4807 57.1619 61.4807 53.0904C61.4807 48.5727 62.306 45.0483 63.8246 42.4018C65.4939 39.6534 67.644 37.5099 70.2825 35.941C73.1146 34.3119 76.2613 33.1024 79.7342 32.321L79.7549 32.3163L79.7755 32.3111C83.3426 31.4194 86.9542 30.7505 90.6108 30.3045C94.4245 29.8505 98.0554 29.442 101.504 29.079L101.527 29.0766L101.55 29.0736C105.085 28.6084 108.16 27.9509 110.756 27.0858L110.779 27.0781L110.801 27.0698C113.024 26.2616 114.939 25.0816 116.508 23.5126C118.187 21.8337 119.063 19.8064 118.942 17.5074L118.941 17.48L118.939 17.4527C118.815 15.9734 118.249 14.6516 117.263 13.5422C116.12 12.2568 114.341 11.6178 112.365 11.3214L112.337 11.3171L112.308 11.3138C110.498 11.1007 108.789 11.3031 107.251 12.0128C106.013 12.5844 104.935 13.2321 104.06 13.9754C103.935 13.7971 103.797 13.591 103.645 13.3547C103.119 12.5355 102.865 11.4093 103.093 9.8079C103.404 7.71519 104.212 6.38111 105.37 5.54479L105.396 5.5261L105.421 5.50649C106.781 4.4485 108.316 3.84726 110.067 3.69442C111.959 3.53722 113.698 3.81041 115.313 4.49567C117.35 5.48582 118.686 6.95403 119.423 8.94393L119.427 8.95443L119.431 8.96488C120.26 11.1196 120.622 13.2433 120.541 15.3489L120.54 15.367L120.54 15.3852C120.457 19.9675 118.931 23.8175 115.966 27.0302L115.957 27.0395L115.949 27.0488C112.996 30.3395 109.033 32.9185 103.988 34.7463C99.0173 36.4894 93.5367 37.372 87.5296 37.372H82.6595L86.3635 40.5339C89.9438 43.5902 92.6558 46.9184 94.5378 50.5114L94.5455 50.5261L94.5535 50.5407C96.4951 54.0862 97.4722 57.9734 97.4722 62.2355C97.4722 70.5764 95.4578 77.6779 91.4985 83.6193C87.5033 89.5233 82.1184 94.0919 75.2995 97.3275C68.569 100.473 60.9726 102.022 52.4751 101.934C47.2629 101.845 42.1883 101.094 37.247 99.6826L37.2366 99.6797L37.2261 99.6768Z" fill="url(#paint0_linear_185_109)"/>
<path d="M37.2261 99.6768C32.4257 98.3676 28.1246 96.3235 24.3078 93.5497C20.5296 90.7137 17.5222 87.1497 15.2794 82.8366C13.0732 78.5939 11.9331 73.4765 11.9331 67.4223C11.9331 63.385 12.7041 59.6314 14.2345 56.142C15.8443 52.587 18.1634 49.6386 21.2039 47.2739L21.2091 47.2697C24.2974 44.8492 28.1871 43.221 32.9488 42.4418L34.4547 42.1954V39.3673L33.7433 38.8283C30.8983 36.673 28.9159 34.4105 27.7022 32.0641C26.4747 29.6909 25.8556 27.1091 25.8556 24.29C25.8556 18.8698 27.7867 14.6042 31.6388 11.3258L31.6413 11.3237C35.5861 7.95415 41.1725 6.1578 48.6286 6.1578C51.8153 6.1578 54.7556 6.63107 57.4629 7.5617C60.1101 8.47168 62.1985 9.85321 63.7892 11.6826L63.8035 11.699L63.8182 11.715C65.3801 13.4258 66.2149 15.6549 66.2149 18.5573C66.2149 20.8986 65.5219 22.9773 64.1172 24.8504L64.1025 24.8699L64.0884 24.8899C62.9231 26.5349 61.232 27.4079 58.7292 27.4079C57.0164 27.4079 55.961 26.9826 55.302 26.3785C55.0624 26.1588 54.8648 25.9656 54.7043 25.7978C55.6557 25.0476 56.5231 24.1152 57.3153 23.026L57.3369 22.9963L57.3572 22.9659C58.3149 21.5293 58.7508 19.8481 58.7508 18.0113C58.7508 14.8073 57.6007 12.1286 55.2184 10.2001C52.9522 8.36553 50.2202 7.47964 47.1272 7.47964C42.1144 7.47964 38.0725 9.01845 35.3648 12.3681C32.8199 15.4268 31.5452 19.0175 31.5452 23.0616C31.5452 26.6363 32.2937 29.8242 33.8661 32.5565C35.4414 35.2938 37.7848 37.4715 40.8128 39.1097L41.2127 39.326H46.1717C46.983 39.326 47.5766 39.3817 47.9901 39.4631C48.0724 39.7104 48.1594 40.1483 48.1973 40.8465C48.1902 41.2976 48.0654 41.7308 47.7881 42.1744L47.7693 42.2045L47.7517 42.2352L47.7488 42.2403C47.7197 42.2522 47.6185 42.2858 47.4002 42.2858H42.5449L42.4673 42.2925C38.0086 42.6802 34.231 44.0509 31.2552 46.508C28.3849 48.7883 26.245 51.6262 24.8558 55C23.4945 58.306 22.8096 61.7229 22.8096 65.2384C22.8096 71.4388 24.2439 76.9205 27.1774 81.6142C30.0927 86.2787 34.1284 89.8685 39.2385 92.3753L39.2566 92.3842L39.2749 92.3927C44.4568 94.7917 50.2706 95.9713 56.6818 95.9713C63.5761 95.9713 69.9041 94.5531 75.6333 91.6896C81.4425 88.8316 86.0993 84.8564 89.5596 79.763C93.1379 74.5391 94.9219 68.6328 94.9219 62.099C94.9219 58.591 94.2398 55.2201 92.8773 52.0008C91.5807 48.7198 89.5724 46.0039 86.8578 43.8925C84.0422 41.7027 80.636 40.6478 76.7465 40.6478C75.0393 40.6478 73.1574 41.0191 71.1283 41.6955L71.1156 41.6997L71.1029 41.7041C69.0276 42.4305 67.238 43.5815 65.763 45.1548C64.0902 46.8406 63.3782 49.0355 63.4867 51.5305L63.488 51.5604L63.4903 51.5902C63.6073 53.1117 64.1349 54.5409 65.0151 55.8611L65.0354 55.8915L65.0569 55.9212C66.1268 57.3922 67.7336 58.2133 69.6097 58.5444L69.6606 58.5534L69.7119 58.5594C71.5229 58.7725 73.2315 58.5702 74.7692 57.8605C76.0267 57.2801 77.111 56.6054 77.9392 55.8014C78.0551 55.9783 78.1842 56.1893 78.3265 56.4384L78.3498 56.4791L78.3752 56.5185C78.902 57.338 79.1557 58.4645 78.9275 60.0665C78.6256 62.097 77.7577 63.5635 76.3576 64.616C74.9817 65.6277 73.2781 66.1723 71.1502 66.1723C68.2524 66.1723 66.0078 65.0683 64.2581 62.7921C62.4511 60.3508 61.4807 57.1619 61.4807 53.0904C61.4807 48.5727 62.306 45.0483 63.8246 42.4018C65.4939 39.6534 67.644 37.5099 70.2825 35.941C73.1146 34.3119 76.2613 33.1024 79.7342 32.321L79.7549 32.3163L79.7755 32.3111C83.3426 31.4194 86.9542 30.7505 90.6108 30.3045C94.4245 29.8505 98.0554 29.442 101.504 29.079L101.527 29.0766L101.55 29.0736C105.085 28.6084 108.16 27.9509 110.756 27.0858L110.779 27.0781L110.801 27.0698C113.024 26.2616 114.939 25.0816 116.508 23.5126C118.187 21.8337 119.063 19.8064 118.942 17.5074L118.941 17.48L118.939 17.4527C118.815 15.9734 118.249 14.6516 117.263 13.5422C116.12 12.2568 114.341 11.6178 112.365 11.3214L112.337 11.3171L112.308 11.3138C110.498 11.1007 108.789 11.3031 107.251 12.0128C106.013 12.5844 104.935 13.2321 104.06 13.9754C103.935 13.7971 103.797 13.591 103.645 13.3547C103.119 12.5355 102.865 11.4093 103.093 9.8079C103.404 7.71519 104.212 6.38111 105.37 5.54479L105.396 5.5261L105.421 5.50649C106.781 4.4485 108.316 3.84726 110.067 3.69442C111.959 3.53722 113.698 3.81041 115.313 4.49567C117.35 5.48582 118.686 6.95403 119.423 8.94393L119.427 8.95443L119.431 8.96488C120.26 11.1196 120.622 13.2433 120.541 15.3489L120.54 15.367L120.54 15.3852C120.457 19.9675 118.931 23.8175 115.966 27.0302L115.957 27.0395L115.949 27.0488C112.996 30.3395 109.033 32.9185 103.988 34.7463C99.0173 36.4894 93.5367 37.372 87.5296 37.372H82.6595L86.3635 40.5339C89.9438 43.5902 92.6558 46.9184 94.5378 50.5114L94.5455 50.5261L94.5535 50.5407C96.4951 54.0862 97.4722 57.9734 97.4722 62.2355C97.4722 70.5764 95.4578 77.6779 91.4985 83.6193C87.5033 89.5233 82.1184 94.0919 75.2995 97.3275C68.569 100.473 60.9726 102.022 52.4751 101.934C47.2629 101.845 42.1883 101.094 37.247 99.6826L37.2366 99.6797L37.2261 99.6768Z" fill="#25C5DA"/>
<path d="M37.2261 99.6768C32.4257 98.3676 28.1246 96.3235 24.3078 93.5497C20.5296 90.7137 17.5222 87.1497 15.2794 82.8366C13.0732 78.5939 11.9331 73.4765 11.9331 67.4223C11.9331 63.385 12.7041 59.6314 14.2345 56.142C15.8443 52.587 18.1634 49.6386 21.2039 47.2739L21.2091 47.2697C24.2974 44.8492 28.1871 43.221 32.9488 42.4418L34.4547 42.1954V39.3673L33.7433 38.8283C30.8983 36.673 28.9159 34.4105 27.7022 32.0641C26.4747 29.6909 25.8556 27.1091 25.8556 24.29C25.8556 18.8698 27.7867 14.6042 31.6388 11.3258L31.6413 11.3237C35.5861 7.95415 41.1725 6.1578 48.6286 6.1578C51.8153 6.1578 54.7556 6.63107 57.4629 7.5617C60.1101 8.47168 62.1985 9.85321 63.7892 11.6826L63.8035 11.699L63.8182 11.715C65.3801 13.4258 66.2149 15.6549 66.2149 18.5573C66.2149 20.8986 65.5219 22.9773 64.1172 24.8504L64.1025 24.8699L64.0884 24.8899C62.9231 26.5349 61.232 27.4079 58.7292 27.4079C57.0164 27.4079 55.961 26.9826 55.302 26.3785C55.0624 26.1588 54.8648 25.9656 54.7043 25.7978C55.6557 25.0476 56.5231 24.1152 57.3153 23.026L57.3369 22.9963L57.3572 22.9659C58.3149 21.5293 58.7508 19.8481 58.7508 18.0113C58.7508 14.8073 57.6007 12.1286 55.2184 10.2001C52.9522 8.36553 50.2202 7.47964 47.1272 7.47964C42.1144 7.47964 38.0725 9.01845 35.3648 12.3681C32.8199 15.4268 31.5452 19.0175 31.5452 23.0616C31.5452 26.6363 32.2937 29.8242 33.8661 32.5565C35.4414 35.2938 37.7848 37.4715 40.8128 39.1097L41.2127 39.326H46.1717C46.983 39.326 47.5766 39.3817 47.9901 39.4631C48.0724 39.7104 48.1594 40.1483 48.1973 40.8465C48.1902 41.2976 48.0654 41.7308 47.7881 42.1744L47.7693 42.2045L47.7517 42.2352L47.7488 42.2403C47.7197 42.2522 47.6185 42.2858 47.4002 42.2858H42.5449L42.4673 42.2925C38.0086 42.6802 34.231 44.0509 31.2552 46.508C28.3849 48.7883 26.245 51.6262 24.8558 55C23.4945 58.306 22.8096 61.7229 22.8096 65.2384C22.8096 71.4388 24.2439 76.9205 27.1774 81.6142C30.0927 86.2787 34.1284 89.8685 39.2385 92.3753L39.2566 92.3842L39.2749 92.3927C44.4568 94.7917 50.2706 95.9713 56.6818 95.9713C63.5761 95.9713 69.9041 94.5531 75.6333 91.6896C81.4425 88.8316 86.0993 84.8564 89.5596 79.763C93.1379 74.5391 94.9219 68.6328 94.9219 62.099C94.9219 58.591 94.2398 55.2201 92.8773 52.0008C91.5807 48.7198 89.5724 46.0039 86.8578 43.8925C84.0422 41.7027 80.636 40.6478 76.7465 40.6478C75.0393 40.6478 73.1574 41.0191 71.1283 41.6955L71.1156 41.6997L71.1029 41.7041C69.0276 42.4305 67.238 43.5815 65.763 45.1548C64.0902 46.8406 63.3782 49.0355 63.4867 51.5305L63.488 51.5604L63.4903 51.5902C63.6073 53.1117 64.1349 54.5409 65.0151 55.8611L65.0354 55.8915L65.0569 55.9212C66.1268 57.3922 67.7336 58.2133 69.6097 58.5444L69.6606 58.5534L69.7119 58.5594C71.5229 58.7725 73.2315 58.5702 74.7692 57.8605C76.0267 57.2801 77.111 56.6054 77.9392 55.8014C78.0551 55.9783 78.1842 56.1893 78.3265 56.4384L78.3498 56.4791L78.3752 56.5185C78.902 57.338 79.1557 58.4645 78.9275 60.0665C78.6256 62.097 77.7577 63.5635 76.3576 64.616C74.9817 65.6277 73.2781 66.1723 71.1502 66.1723C68.2524 66.1723 66.0078 65.0683 64.2581 62.7921C62.4511 60.3508 61.4807 57.1619 61.4807 53.0904C61.4807 48.5727 62.306 45.0483 63.8246 42.4018C65.4939 39.6534 67.644 37.5099 70.2825 35.941C73.1146 34.3119 76.2613 33.1024 79.7342 32.321L79.7549 32.3163L79.7755 32.3111C83.3426 31.4194 86.9542 30.7505 90.6108 30.3045C94.4245 29.8505 98.0554 29.442 101.504 29.079L101.527 29.0766L101.55 29.0736C105.085 28.6084 108.16 27.9509 110.756 27.0858L110.779 27.0781L110.801 27.0698C113.024 26.2616 114.939 25.0816 116.508 23.5126C118.187 21.8337 119.063 19.8064 118.942 17.5074L118.941 17.48L118.939 17.4527C118.815 15.9734 118.249 14.6516 117.263 13.5422C116.12 12.2568 114.341 11.6178 112.365 11.3214L112.337 11.3171L112.308 11.3138C110.498 11.1007 108.789 11.3031 107.251 12.0128C106.013 12.5844 104.935 13.2321 104.06 13.9754C103.935 13.7971 103.797 13.591 103.645 13.3547C103.119 12.5355 102.865 11.4093 103.093 9.8079C103.404 7.71519 104.212 6.38111 105.37 5.54479L105.396 5.5261L105.421 5.50649C106.781 4.4485 108.316 3.84726 110.067 3.69442C111.959 3.53722 113.698 3.81041 115.313 4.49567C117.35 5.48582 118.686 6.95403 119.423 8.94393L119.427 8.95443L119.431 8.96488C120.26 11.1196 120.622 13.2433 120.541 15.3489L120.54 15.367L120.54 15.3852C120.457 19.9675 118.931 23.8175 115.966 27.0302L115.957 27.0395L115.949 27.0488C112.996 30.3395 109.033 32.9185 103.988 34.7463C99.0173 36.4894 93.5367 37.372 87.5296 37.372H82.6595L86.3635 40.5339C89.9438 43.5902 92.6558 46.9184 94.5378 50.5114L94.5455 50.5261L94.5535 50.5407C96.4951 54.0862 97.4722 57.9734 97.4722 62.2355C97.4722 70.5764 95.4578 77.6779 91.4985 83.6193C87.5033 89.5233 82.1184 94.0919 75.2995 97.3275C68.569 100.473 60.9726 102.022 52.4751 101.934C47.2629 101.845 42.1883 101.094 37.247 99.6826L37.2366 99.6797L37.2261 99.6768Z" fill="url(#paint1_linear_185_109)" fill-opacity="0.19"/>
<path d="M37.2261 99.6768C32.4257 98.3676 28.1246 96.3235 24.3078 93.5497C20.5296 90.7137 17.5222 87.1497 15.2794 82.8366C13.0732 78.5939 11.9331 73.4765 11.9331 67.4223C11.9331 63.385 12.7041 59.6314 14.2345 56.142C15.8443 52.587 18.1634 49.6386 21.2039 47.2739L21.2091 47.2697C24.2974 44.8492 28.1871 43.221 32.9488 42.4418L34.4547 42.1954V39.3673L33.7433 38.8283C30.8983 36.673 28.9159 34.4105 27.7022 32.0641C26.4747 29.6909 25.8556 27.1091 25.8556 24.29C25.8556 18.8698 27.7867 14.6042 31.6388 11.3258L31.6413 11.3237C35.5861 7.95415 41.1725 6.1578 48.6286 6.1578C51.8153 6.1578 54.7556 6.63107 57.4629 7.5617C60.1101 8.47168 62.1985 9.85321 63.7892 11.6826L63.8035 11.699L63.8182 11.715C65.3801 13.4258 66.2149 15.6549 66.2149 18.5573C66.2149 20.8986 65.5219 22.9773 64.1172 24.8504L64.1025 24.8699L64.0884 24.8899C62.9231 26.5349 61.232 27.4079 58.7292 27.4079C57.0164 27.4079 55.961 26.9826 55.302 26.3785C55.0624 26.1588 54.8648 25.9656 54.7043 25.7978C55.6557 25.0476 56.5231 24.1152 57.3153 23.026L57.3369 22.9963L57.3572 22.9659C58.3149 21.5293 58.7508 19.8481 58.7508 18.0113C58.7508 14.8073 57.6007 12.1286 55.2184 10.2001C52.9522 8.36553 50.2202 7.47964 47.1272 7.47964C42.1144 7.47964 38.0725 9.01845 35.3648 12.3681C32.8199 15.4268 31.5452 19.0175 31.5452 23.0616C31.5452 26.6363 32.2937 29.8242 33.8661 32.5565C35.4414 35.2938 37.7848 37.4715 40.8128 39.1097L41.2127 39.326H46.1717C46.983 39.326 47.5766 39.3817 47.9901 39.4631C48.0724 39.7104 48.1594 40.1483 48.1973 40.8465C48.1902 41.2976 48.0654 41.7308 47.7881 42.1744L47.7693 42.2045L47.7517 42.2352L47.7488 42.2403C47.7197 42.2522 47.6185 42.2858 47.4002 42.2858H42.5449L42.4673 42.2925C38.0086 42.6802 34.231 44.0509 31.2552 46.508C28.3849 48.7883 26.245 51.6262 24.8558 55C23.4945 58.306 22.8096 61.7229 22.8096 65.2384C22.8096 71.4388 24.2439 76.9205 27.1774 81.6142C30.0927 86.2787 34.1284 89.8685 39.2385 92.3753L39.2566 92.3842L39.2749 92.3927C44.4568 94.7917 50.2706 95.9713 56.6818 95.9713C63.5761 95.9713 69.9041 94.5531 75.6333 91.6896C81.4425 88.8316 86.0993 84.8564 89.5596 79.763C93.1379 74.5391 94.9219 68.6328 94.9219 62.099C94.9219 58.591 94.2398 55.2201 92.8773 52.0008C91.5807 48.7198 89.5724 46.0039 86.8578 43.8925C84.0422 41.7027 80.636 40.6478 76.7465 40.6478C75.0393 40.6478 73.1574 41.0191 71.1283 41.6955L71.1156 41.6997L71.1029 41.7041C69.0276 42.4305 67.238 43.5815 65.763 45.1548C64.0902 46.8406 63.3782 49.0355 63.4867 51.5305L63.488 51.5604L63.4903 51.5902C63.6073 53.1117 64.1349 54.5409 65.0151 55.8611L65.0354 55.8915L65.0569 55.9212C66.1268 57.3922 67.7336 58.2133 69.6097 58.5444L69.6606 58.5534L69.7119 58.5594C71.5229 58.7725 73.2315 58.5702 74.7692 57.8605C76.0267 57.2801 77.111 56.6054 77.9392 55.8014C78.0551 55.9783 78.1842 56.1893 78.3265 56.4384L78.3498 56.4791L78.3752 56.5185C78.902 57.338 79.1557 58.4645 78.9275 60.0665C78.6256 62.097 77.7577 63.5635 76.3576 64.616C74.9817 65.6277 73.2781 66.1723 71.1502 66.1723C68.2524 66.1723 66.0078 65.0683 64.2581 62.7921C62.4511 60.3508 61.4807 57.1619 61.4807 53.0904C61.4807 48.5727 62.306 45.0483 63.8246 42.4018C65.4939 39.6534 67.644 37.5099 70.2825 35.941C73.1146 34.3119 76.2613 33.1024 79.7342 32.321L79.7549 32.3163L79.7755 32.3111C83.3426 31.4194 86.9542 30.7505 90.6108 30.3045C94.4245 29.8505 98.0554 29.442 101.504 29.079L101.527 29.0766L101.55 29.0736C105.085 28.6084 108.16 27.9509 110.756 27.0858L110.779 27.0781L110.801 27.0698C113.024 26.2616 114.939 25.0816 116.508 23.5126C118.187 21.8337 119.063 19.8064 118.942 17.5074L118.941 17.48L118.939 17.4527C118.815 15.9734 118.249 14.6516 117.263 13.5422C116.12 12.2568 114.341 11.6178 112.365 11.3214L112.337 11.3171L112.308 11.3138C110.498 11.1007 108.789 11.3031 107.251 12.0128C106.013 12.5844 104.935 13.2321 104.06 13.9754C103.935 13.7971 103.797 13.591 103.645 13.3547C103.119 12.5355 102.865 11.4093 103.093 9.8079C103.404 7.71519 104.212 6.38111 105.37 5.54479L105.396 5.5261L105.421 5.50649C106.781 4.4485 108.316 3.84726 110.067 3.69442C111.959 3.53722 113.698 3.81041 115.313 4.49567C117.35 5.48582 118.686 6.95403 119.423 8.94393L119.427 8.95443L119.431 8.96488C120.26 11.1196 120.622 13.2433 120.541 15.3489L120.54 15.367L120.54 15.3852C120.457 19.9675 118.931 23.8175 115.966 27.0302L115.957 27.0395L115.949 27.0488C112.996 30.3395 109.033 32.9185 103.988 34.7463C99.0173 36.4894 93.5367 37.372 87.5296 37.372H82.6595L86.3635 40.5339C89.9438 43.5902 92.6558 46.9184 94.5378 50.5114L94.5455 50.5261L94.5535 50.5407C96.4951 54.0862 97.4722 57.9734 97.4722 62.2355C97.4722 70.5764 95.4578 77.6779 91.4985 83.6193C87.5033 89.5233 82.1184 94.0919 75.2995 97.3275C68.569 100.473 60.9726 102.022 52.4751 101.934C47.2629 101.845 42.1883 101.094 37.247 99.6826L37.2366 99.6797L37.2261 99.6768Z" fill="url(#paint2_linear_185_109)" fill-opacity="0.8334" style="mix-blend-mode:overlay"/>
<defs>
<linearGradient id="paint0_linear_185_109" x1="66.2426" y1="3.65125" x2="66.2426" y2="101.938" gradientUnits="userSpaceOnUse">
<stop stop-color="#AAAAAA"/>
<stop offset="1"/>
</linearGradient>
<linearGradient id="paint1_linear_185_109" x1="66.2426" y1="3.65125" x2="66.2426" y2="101.938" gradientUnits="userSpaceOnUse">
<stop stop-color="white"/>
<stop offset="1" stop-color="white" stop-opacity="0"/>
</linearGradient>
<linearGradient id="paint2_linear_185_109" x1="66.2426" y1="3.65125" x2="66.2426" y2="101.938" gradientUnits="userSpaceOnUse">
<stop stop-color="#F8D362"/>
<stop offset="1" stop-color="#F8D362" stop-opacity="0"/>
</linearGradient>
</defs>
</svg>
