<svg width="124" height="116" viewBox="0 0 124 116" fill="none" xmlns="http://www.w3.org/2000/svg">
<path d="M37.2261 103.677C32.4257 102.368 28.1246 100.323 24.3078 97.5497C20.5296 94.7137 17.5222 91.1497 15.2794 86.8366C13.0732 82.5939 11.9331 77.4765 11.9331 71.4223C11.9331 67.385 12.7041 63.6314 14.2345 60.142C15.8443 56.587 18.1634 53.6386 21.2039 51.2739L21.2091 51.2697C24.2974 48.8492 28.1871 47.221 32.9488 46.4418L34.4547 46.1954V43.3673L33.7433 42.8283C30.8983 40.673 28.9159 38.4105 27.7022 36.0641C26.4747 33.6909 25.8556 31.1091 25.8556 28.29C25.8556 22.8698 27.7867 18.6042 31.6388 15.3258L31.6413 15.3237C35.5861 11.9542 41.1725 10.1578 48.6286 10.1578C51.8153 10.1578 54.7556 10.6311 57.4629 11.5617C60.1101 12.4717 62.1985 13.8532 63.7892 15.6826L63.8035 15.699L63.8182 15.715C65.3801 17.4258 66.2149 19.6549 66.2149 22.5573C66.2149 24.8986 65.5219 26.9773 64.1172 28.8504L64.1025 28.8699L64.0884 28.8899C62.9231 30.5349 61.232 31.4079 58.7292 31.4079C57.0164 31.4079 55.961 30.9826 55.302 30.3785C55.0624 30.1588 54.8648 29.9656 54.7043 29.7978C55.6557 29.0476 56.5231 28.1152 57.3153 27.026L57.3369 26.9963L57.3572 26.9659C58.3149 25.5293 58.7508 23.8481 58.7508 22.0113C58.7508 18.8073 57.6007 16.1286 55.2184 14.2001C52.9522 12.3655 50.2202 11.4796 47.1272 11.4796C42.1144 11.4796 38.0725 13.0185 35.3648 16.3681C32.8199 19.4268 31.5452 23.0175 31.5452 27.0616C31.5452 30.6363 32.2937 33.8242 33.8661 36.5565C35.4414 39.2938 37.7848 41.4715 40.8128 43.1097L41.2127 43.326H46.1717C46.983 43.326 47.5766 43.3817 47.9901 43.4631C48.0724 43.7104 48.1594 44.1483 48.1973 44.8465C48.1902 45.2976 48.0654 45.7308 47.7881 46.1744L47.7693 46.2045L47.7517 46.2352L47.7488 46.2403C47.7197 46.2522 47.6185 46.2858 47.4002 46.2858H42.5449L42.4673 46.2925C38.0086 46.6802 34.231 48.0509 31.2552 50.508C28.3849 52.7883 26.245 55.6262 24.8558 59C23.4945 62.306 22.8096 65.7229 22.8096 69.2384C22.8096 75.4388 24.2439 80.9205 27.1774 85.6142C30.0927 90.2787 34.1284 93.8685 39.2385 96.3753L39.2566 96.3842L39.2749 96.3927C44.4568 98.7917 50.2706 99.9713 56.6818 99.9713C63.5761 99.9713 69.9041 98.5531 75.6333 95.6896C81.4425 92.8316 86.0993 88.8564 89.5596 83.763C93.1379 78.5391 94.9219 72.6328 94.9219 66.099C94.9219 62.591 94.2398 59.2201 92.8773 56.0008C91.5807 52.7198 89.5724 50.0039 86.8578 47.8925C84.0422 45.7027 80.636 44.6478 76.7465 44.6478C75.0393 44.6478 73.1574 45.0191 71.1283 45.6955L71.1156 45.6997L71.1029 45.7041C69.0276 46.4305 67.238 47.5815 65.763 49.1548C64.0902 50.8406 63.3782 53.0355 63.4867 55.5305L63.488 55.5604L63.4903 55.5902C63.6073 57.1117 64.1349 58.5409 65.0151 59.8611L65.0354 59.8915L65.0569 59.9212C66.1268 61.3922 67.7336 62.2133 69.6097 62.5444L69.6606 62.5534L69.7119 62.5594C71.5229 62.7725 73.2315 62.5702 74.7692 61.8605C76.0267 61.2801 77.111 60.6054 77.9392 59.8014C78.0551 59.9783 78.1842 60.1893 78.3265 60.4384L78.3498 60.4791L78.3752 60.5185C78.902 61.338 79.1557 62.4645 78.9275 64.0665C78.6256 66.097 77.7577 67.5635 76.3576 68.616C74.9817 69.6277 73.2781 70.1723 71.1502 70.1723C68.2524 70.1723 66.0078 69.0683 64.2581 66.7921C62.4511 64.3508 61.4807 61.1619 61.4807 57.0904C61.4807 52.5727 62.306 49.0483 63.8246 46.4018C65.4939 43.6534 67.644 41.5099 70.2825 39.941C73.1146 38.3119 76.2613 37.1024 79.7342 36.321L79.7549 36.3163L79.7755 36.3111C83.3426 35.4194 86.9542 34.7505 90.6108 34.3045C94.4245 33.8505 98.0554 33.442 101.504 33.079L101.527 33.0766L101.55 33.0736C105.085 32.6084 108.16 31.9509 110.756 31.0858L110.779 31.0781L110.801 31.0698C113.024 30.2616 114.939 29.0816 116.508 27.5126C118.187 25.8337 119.063 23.8064 118.942 21.5074L118.941 21.48L118.939 21.4527C118.815 19.9734 118.249 18.6516 117.263 17.5422C116.12 16.2568 114.341 15.6178 112.365 15.3214L112.337 15.3171L112.308 15.3138C110.498 15.1007 108.789 15.3031 107.251 16.0128C106.013 16.5844 104.935 17.2321 104.06 17.9754C103.935 17.7971 103.797 17.591 103.645 17.3547C103.119 16.5355 102.865 15.4093 103.093 13.8079C103.404 11.7152 104.212 10.3811 105.37 9.54479L105.396 9.5261L105.421 9.50649C106.781 8.4485 108.316 7.84726 110.067 7.69442C111.959 7.53722 113.698 7.81041 115.313 8.49567C117.35 9.48582 118.686 10.954 119.423 12.9439L119.427 12.9544L119.431 12.9649C120.26 15.1196 120.622 17.2433 120.541 19.3489L120.54 19.367L120.54 19.3852C120.457 23.9675 118.931 27.8175 115.966 31.0302L115.957 31.0395L115.949 31.0488C112.996 34.3395 109.033 36.9185 103.988 38.7463C99.0173 40.4894 93.5367 41.372 87.5296 41.372H82.6595L86.3635 44.5339C89.9438 47.5902 92.6558 50.9184 94.5378 54.5114L94.5455 54.5261L94.5535 54.5407C96.4951 58.0862 97.4722 61.9734 97.4722 66.2355C97.4722 74.5764 95.4578 81.6779 91.4985 87.6193C87.5033 93.5233 82.1184 98.0919 75.2995 101.327C68.569 104.473 60.9726 106.022 52.4751 105.934C47.2629 105.845 42.1883 105.094 37.247 103.683L37.2366 103.68L37.2261 103.677Z" fill="url(#paint0_linear_242_543)"/>
<path d="M37.2261 103.677C32.4257 102.368 28.1246 100.323 24.3078 97.5497C20.5296 94.7137 17.5222 91.1497 15.2794 86.8366C13.0732 82.5939 11.9331 77.4765 11.9331 71.4223C11.9331 67.385 12.7041 63.6314 14.2345 60.142C15.8443 56.587 18.1634 53.6386 21.2039 51.2739L21.2091 51.2697C24.2974 48.8492 28.1871 47.221 32.9488 46.4418L34.4547 46.1954V43.3673L33.7433 42.8283C30.8983 40.673 28.9159 38.4105 27.7022 36.0641C26.4747 33.6909 25.8556 31.1091 25.8556 28.29C25.8556 22.8698 27.7867 18.6042 31.6388 15.3258L31.6413 15.3237C35.5861 11.9542 41.1725 10.1578 48.6286 10.1578C51.8153 10.1578 54.7556 10.6311 57.4629 11.5617C60.1101 12.4717 62.1985 13.8532 63.7892 15.6826L63.8035 15.699L63.8182 15.715C65.3801 17.4258 66.2149 19.6549 66.2149 22.5573C66.2149 24.8986 65.5219 26.9773 64.1172 28.8504L64.1025 28.8699L64.0884 28.8899C62.9231 30.5349 61.232 31.4079 58.7292 31.4079C57.0164 31.4079 55.961 30.9826 55.302 30.3785C55.0624 30.1588 54.8648 29.9656 54.7043 29.7978C55.6557 29.0476 56.5231 28.1152 57.3153 27.026L57.3369 26.9963L57.3572 26.9659C58.3149 25.5293 58.7508 23.8481 58.7508 22.0113C58.7508 18.8073 57.6007 16.1286 55.2184 14.2001C52.9522 12.3655 50.2202 11.4796 47.1272 11.4796C42.1144 11.4796 38.0725 13.0185 35.3648 16.3681C32.8199 19.4268 31.5452 23.0175 31.5452 27.0616C31.5452 30.6363 32.2937 33.8242 33.8661 36.5565C35.4414 39.2938 37.7848 41.4715 40.8128 43.1097L41.2127 43.326H46.1717C46.983 43.326 47.5766 43.3817 47.9901 43.4631C48.0724 43.7104 48.1594 44.1483 48.1973 44.8465C48.1902 45.2976 48.0654 45.7308 47.7881 46.1744L47.7693 46.2045L47.7517 46.2352L47.7488 46.2403C47.7197 46.2522 47.6185 46.2858 47.4002 46.2858H42.5449L42.4673 46.2925C38.0086 46.6802 34.231 48.0509 31.2552 50.508C28.3849 52.7883 26.245 55.6262 24.8558 59C23.4945 62.306 22.8096 65.7229 22.8096 69.2384C22.8096 75.4388 24.2439 80.9205 27.1774 85.6142C30.0927 90.2787 34.1284 93.8685 39.2385 96.3753L39.2566 96.3842L39.2749 96.3927C44.4568 98.7917 50.2706 99.9713 56.6818 99.9713C63.5761 99.9713 69.9041 98.5531 75.6333 95.6896C81.4425 92.8316 86.0993 88.8564 89.5596 83.763C93.1379 78.5391 94.9219 72.6328 94.9219 66.099C94.9219 62.591 94.2398 59.2201 92.8773 56.0008C91.5807 52.7198 89.5724 50.0039 86.8578 47.8925C84.0422 45.7027 80.636 44.6478 76.7465 44.6478C75.0393 44.6478 73.1574 45.0191 71.1283 45.6955L71.1156 45.6997L71.1029 45.7041C69.0276 46.4305 67.238 47.5815 65.763 49.1548C64.0902 50.8406 63.3782 53.0355 63.4867 55.5305L63.488 55.5604L63.4903 55.5902C63.6073 57.1117 64.1349 58.5409 65.0151 59.8611L65.0354 59.8915L65.0569 59.9212C66.1268 61.3922 67.7336 62.2133 69.6097 62.5444L69.6606 62.5534L69.7119 62.5594C71.5229 62.7725 73.2315 62.5702 74.7692 61.8605C76.0267 61.2801 77.111 60.6054 77.9392 59.8014C78.0551 59.9783 78.1842 60.1893 78.3265 60.4384L78.3498 60.4791L78.3752 60.5185C78.902 61.338 79.1557 62.4645 78.9275 64.0665C78.6256 66.097 77.7577 67.5635 76.3576 68.616C74.9817 69.6277 73.2781 70.1723 71.1502 70.1723C68.2524 70.1723 66.0078 69.0683 64.2581 66.7921C62.4511 64.3508 61.4807 61.1619 61.4807 57.0904C61.4807 52.5727 62.306 49.0483 63.8246 46.4018C65.4939 43.6534 67.644 41.5099 70.2825 39.941C73.1146 38.3119 76.2613 37.1024 79.7342 36.321L79.7549 36.3163L79.7755 36.3111C83.3426 35.4194 86.9542 34.7505 90.6108 34.3045C94.4245 33.8505 98.0554 33.442 101.504 33.079L101.527 33.0766L101.55 33.0736C105.085 32.6084 108.16 31.9509 110.756 31.0858L110.779 31.0781L110.801 31.0698C113.024 30.2616 114.939 29.0816 116.508 27.5126C118.187 25.8337 119.063 23.8064 118.942 21.5074L118.941 21.48L118.939 21.4527C118.815 19.9734 118.249 18.6516 117.263 17.5422C116.12 16.2568 114.341 15.6178 112.365 15.3214L112.337 15.3171L112.308 15.3138C110.498 15.1007 108.789 15.3031 107.251 16.0128C106.013 16.5844 104.935 17.2321 104.06 17.9754C103.935 17.7971 103.797 17.591 103.645 17.3547C103.119 16.5355 102.865 15.4093 103.093 13.8079C103.404 11.7152 104.212 10.3811 105.37 9.54479L105.396 9.5261L105.421 9.50649C106.781 8.4485 108.316 7.84726 110.067 7.69442C111.959 7.53722 113.698 7.81041 115.313 8.49567C117.35 9.48582 118.686 10.954 119.423 12.9439L119.427 12.9544L119.431 12.9649C120.26 15.1196 120.622 17.2433 120.541 19.3489L120.54 19.367L120.54 19.3852C120.457 23.9675 118.931 27.8175 115.966 31.0302L115.957 31.0395L115.949 31.0488C112.996 34.3395 109.033 36.9185 103.988 38.7463C99.0173 40.4894 93.5367 41.372 87.5296 41.372H82.6595L86.3635 44.5339C89.9438 47.5902 92.6558 50.9184 94.5378 54.5114L94.5455 54.5261L94.5535 54.5407C96.4951 58.0862 97.4722 61.9734 97.4722 66.2355C97.4722 74.5764 95.4578 81.6779 91.4985 87.6193C87.5033 93.5233 82.1184 98.0919 75.2995 101.327C68.569 104.473 60.9726 106.022 52.4751 105.934C47.2629 105.845 42.1883 105.094 37.247 103.683L37.2366 103.68L37.2261 103.677Z" fill="url(#paint1_linear_242_543)" fill-opacity="0.4"/>
<defs>
<linearGradient id="paint0_linear_242_543" x1="66.2426" y1="7.65125" x2="66.2426" y2="105.938" gradientUnits="userSpaceOnUse">
<stop stop-color="#F4D0FF"/>
<stop offset="0.25" stop-color="#E1C7FF"/>
<stop offset="0.5" stop-color="#C1C3F9"/>
<stop offset="0.75" stop-color="#94BDF1"/>
<stop offset="1" stop-color="#67BBEA"/>
</linearGradient>
<linearGradient id="paint1_linear_242_543" x1="66.2426" y1="7.65125" x2="66.2426" y2="105.938" gradientUnits="userSpaceOnUse">
<stop stop-color="white" stop-opacity="0.75"/>
<stop offset="1" stop-color="white" stop-opacity="0.5"/>
</linearGradient>
</defs>
</svg>
