<svg preserveAspectRatio="none" width="1440" height="22" viewBox="0 0 1440 22" fill="none" xmlns="http://www.w3.org/2000/svg">
<path d="M486.857 16.1412C300.343 -5.80168 157.714 6.99832 109.714 16.1412V22H486.857V16.1412Z" fill="white" fill-opacity="0.5"/>
<path d="M1177.56 20.7134C991.045 -1.22942 848.417 11.5706 800.417 20.7134V22H1177.56V20.7134Z" fill="white" fill-opacity="0.5"/>
<path d="M675.143 21.1412C488.629 -0.801682 346 11.9983 298 21.1412V22H675.143V21.1412Z" fill="white" fill-opacity="0.5"/>
<path d="M1346.59 22C1239.19 5.90413 1151.06 11.7454 1094.13 22H1346.59Z" fill="white" fill-opacity="0.5"/>
<path d="M43.4299 5.39045C126.478 16.819 358.859 32.819 624.002 5.39045C627.49 5.02973 631.977 4.61299 637.303 4.17913C664.554 1.3644 693.444 0.493217 720.171 0.640675C746.898 0.493218 775.788 1.3644 803.039 4.17911C808.364 4.61298 812.851 5.02972 816.34 5.39045C1081.48 32.819 1313.86 16.819 1396.91 5.39045C1396.91 5.39045 1425 1.8601 1440 1.8601V22H-6.10352e-05L0.0013692 1.8601C14.9973 1.8601 43.4299 5.39045 43.4299 5.39045Z" fill="white"/>
</svg>
