<svg width="58" height="95" viewBox="0 0 58 95" fill="none" xmlns="http://www.w3.org/2000/svg">
<path fill-rule="evenodd" clip-rule="evenodd" d="M53.5156 65.8937C49.9374 66.9387 37.5379 70.0272 28.829 65.5839C20.1186 61.1399 7.71642 64.2302 4.14062 65.2747L4.14062 65.5834C4.14062 79.5271 15.2129 90.796 28.829 90.796C42.344 90.796 53.3527 79.6939 53.5156 65.8937ZM3.14062 65.5839C3.14062 80.0608 14.6417 91.7966 28.829 91.7966C42.5178 91.7966 53.7057 80.8712 54.4751 67.0996C53.7054 80.8709 42.5176 91.796 28.829 91.796C14.6418 91.796 3.14092 80.0606 3.14062 65.5839Z" fill="url(#paint0_linear_330_2224)" fill-opacity="0.59"/>
<path d="M29 93.1246C44.1864 93.0488 56.5 81.3833 56.5 63.4744C56.5 58.2778 54.5217 53.0535 51.7497 48.2892C48.9802 43.5292 45.4396 39.2642 42.3645 35.996L42.3645 35.996L42.3585 35.9894C38.1935 31.4021 30.957 22.1233 29 7.83836C27.043 22.1233 19.8065 31.4021 15.6415 35.9894L15.6416 35.9895L15.6355 35.996C12.5604 39.2642 9.01976 43.5292 6.25026 48.2892C3.47835 53.0535 1.5 58.2778 1.5 63.4744C1.5 81.3833 13.8136 93.0488 29 93.1246Z" stroke="url(#paint1_linear_330_2224)"/>
<defs>
<linearGradient id="paint0_linear_330_2224" x1="29.6178" y1="99.1849" x2="29.6178" y2="64.3007" gradientUnits="userSpaceOnUse">
<stop stop-color="#77CCF9" stop-opacity="0.25"/>
<stop offset="1" stop-color="#D4FEFB"/>
</linearGradient>
<linearGradient id="paint1_linear_330_2224" x1="29" y1="0.457734" x2="29" y2="93.625" gradientUnits="userSpaceOnUse">
<stop stop-color="#D4FEFB"/>
<stop offset="1" stop-color="#77CCF9"/>
</linearGradient>
</defs>
</svg>
