<svg width="58" height="95" viewBox="0 0 58 95" fill="none" xmlns="http://www.w3.org/2000/svg">
<path fill-rule="evenodd" clip-rule="evenodd" d="M53.5156 66.3488C49.9374 67.3938 37.5379 70.4823 28.829 66.039C20.1186 61.5949 7.71642 64.6853 4.14062 65.7297V66.0384C4.14062 79.9822 15.2129 91.2511 28.829 91.2511C42.344 91.2511 53.3527 80.149 53.5156 66.3488ZM3.14062 66.039C3.14062 80.5159 14.6417 92.2516 28.829 92.2516C42.5178 92.2516 53.7057 81.3262 54.4751 67.5547C53.7054 81.326 42.5176 92.2511 28.829 92.2511C14.6418 92.2511 3.14092 80.5156 3.14062 66.039Z" fill="url(#paint0_linear_319_1872)" fill-opacity="0.59"/>
<path d="M1.75049 63.9295C1.75049 81.7079 13.9598 93.254 29.0005 93.3297C44.0412 93.254 56.2505 81.7079 56.2505 63.9295C56.2505 58.7941 54.2944 53.6142 51.5341 48.87C48.7775 44.1321 45.2505 39.8826 42.1829 36.6223L42.1828 36.6224L42.1739 36.6126C38.1511 32.1818 31.2695 23.3861 29.0005 9.94814C26.7315 23.3861 19.8499 32.1818 15.8271 36.6126L15.8272 36.6126L15.818 36.6223C12.7505 39.8826 9.22343 44.1321 6.46683 48.87C3.70662 53.6142 1.75049 58.7941 1.75049 63.9295Z" stroke="url(#paint1_linear_319_1872)" stroke-width="1.5"/>
<path d="M1.75049 63.9295C1.75049 81.7079 13.9598 93.254 29.0005 93.3297C44.0412 93.254 56.2505 81.7079 56.2505 63.9295C56.2505 58.7941 54.2944 53.6142 51.5341 48.87C48.7775 44.1321 45.2505 39.8826 42.1829 36.6223L42.1828 36.6224L42.1739 36.6126C38.1511 32.1818 31.2695 23.3861 29.0005 9.94814C26.7315 23.3861 19.8499 32.1818 15.8271 36.6126L15.8272 36.6126L15.818 36.6223C12.7505 39.8826 9.22343 44.1321 6.46683 48.87C3.70662 53.6142 1.75049 58.7941 1.75049 63.9295Z" stroke="url(#paint2_linear_319_1872)" stroke-opacity="0.25" stroke-width="1.5"/>
<defs>
<linearGradient id="paint0_linear_319_1872" x1="29.6178" y1="99.64" x2="29.6178" y2="64.7558" gradientUnits="userSpaceOnUse">
<stop stop-color="#77CCF9" stop-opacity="0.25"/>
<stop offset="1" stop-color="#D4FEFB"/>
</linearGradient>
<linearGradient id="paint1_linear_319_1872" x1="29.0005" y1="0.912811" x2="29.0005" y2="94.0801" gradientUnits="userSpaceOnUse">
<stop stop-color="#D4FEFB"/>
<stop offset="1" stop-color="#77CCF9"/>
</linearGradient>
<linearGradient id="paint2_linear_319_1872" x1="29.0005" y1="0.912811" x2="29.0005" y2="94.0801" gradientUnits="userSpaceOnUse">
<stop stop-color="white"/>
<stop offset="1" stop-color="white" stop-opacity="0"/>
</linearGradient>
</defs>
</svg>
