<svg width="58" height="95" viewBox="0 0 58 95" fill="none" xmlns="http://www.w3.org/2000/svg">
<path d="M2 63.9295C2 81.5775 14.1049 93.0041 29 93.0797C43.8951 93.0041 56 81.5775 56 63.9295C56 58.8553 54.0661 53.7198 51.3176 48.9958C48.5739 44.28 45.0604 40.0459 42.0004 36.7937L41.9943 36.7872L41.9883 36.7806C38.0852 32.4817 31.4971 24.0846 29 11.3419C26.5029 24.0846 19.9148 32.4817 16.0117 36.7806L16.0057 36.7872L15.9996 36.7937C12.9396 40.0459 9.42613 44.28 6.68243 48.9958C3.93391 53.7198 2 58.8553 2 63.9295Z" stroke="#25C5DA" stroke-width="2"/>
<path d="M2 63.9295C2 81.5775 14.1049 93.0041 29 93.0797C43.8951 93.0041 56 81.5775 56 63.9295C56 58.8553 54.0661 53.7198 51.3176 48.9958C48.5739 44.28 45.0604 40.0459 42.0004 36.7937L41.9943 36.7872L41.9883 36.7806C38.0852 32.4817 31.4971 24.0846 29 11.3419C26.5029 24.0846 19.9148 32.4817 16.0117 36.7806L16.0057 36.7872L15.9996 36.7937C12.9396 40.0459 9.42613 44.28 6.68243 48.9958C3.93391 53.7198 2 58.8553 2 63.9295Z" stroke="url(#paint0_linear_332_294)" stroke-opacity="0.22" stroke-width="2"/>
<path d="M2 63.9295C2 81.5775 14.1049 93.0041 29 93.0797C43.8951 93.0041 56 81.5775 56 63.9295C56 58.8553 54.0661 53.7198 51.3176 48.9958C48.5739 44.28 45.0604 40.0459 42.0004 36.7937L41.9943 36.7872L41.9883 36.7806C38.0852 32.4817 31.4971 24.0846 29 11.3419C26.5029 24.0846 19.9148 32.4817 16.0117 36.7806L16.0057 36.7872L15.9996 36.7937C12.9396 40.0459 9.42613 44.28 6.68243 48.9958C3.93391 53.7198 2 58.8553 2 63.9295Z" stroke="url(#paint1_linear_332_294)" stroke-width="2" style="mix-blend-mode:overlay"/>
<path d="M7.4082 69.8042C9.4365 80.1168 15.0477 86.2365 25.0761 88.502" stroke="#25C5DA" stroke-width="1.5"/>
<path d="M7.4082 69.8042C9.4365 80.1168 15.0477 86.2365 25.0761 88.502" stroke="url(#paint2_linear_332_294)" stroke-opacity="0.8334" stroke-width="1.5" style="mix-blend-mode:overlay"/>
<defs>
<linearGradient id="paint0_linear_332_294" x1="29" y1="94.0801" x2="29" y2="0.912812" gradientUnits="userSpaceOnUse">
<stop stop-color="white" stop-opacity="0"/>
<stop offset="1" stop-color="white"/>
</linearGradient>
<linearGradient id="paint1_linear_332_294" x1="29" y1="94.0801" x2="29" y2="0.912812" gradientUnits="userSpaceOnUse">
<stop stop-color="#F8D362" stop-opacity="0"/>
<stop offset="1" stop-color="#F8D362"/>
</linearGradient>
<linearGradient id="paint2_linear_332_294" x1="16.2421" y1="88.502" x2="16.2421" y2="69.8042" gradientUnits="userSpaceOnUse">
<stop stop-color="#F8D362" stop-opacity="0"/>
<stop offset="1" stop-color="#F8D362"/>
</linearGradient>
</defs>
</svg>
