<svg width="58" height="95" viewBox="0 0 58 95" fill="none" xmlns="http://www.w3.org/2000/svg">
<path d="M16.0117 36.7799C19.9148 32.481 26.5029 24.0839 29 11.3412C31.4971 24.0839 38.0852 32.481 41.9883 36.7799L41.9943 36.7865L42.0004 36.793C45.0604 40.0452 48.5739 44.2793 51.3176 48.9951C54.0661 53.7191 56 58.8546 56 63.9288C56 81.5748 43.8977 93.0008 29.0049 93.079C29.0033 93.079 29.0016 93.079 29 93.079C28.9999 93.079 28.9999 93.079 28.9998 93.079C14.1048 93.0033 2 81.5767 2 63.9288C2 58.8546 3.93391 53.7191 6.68243 48.9951C9.42613 44.2793 12.9396 40.0452 15.9996 36.793L16.0057 36.7865L16.0117 36.7799Z" stroke="url(#paint0_linear_332_301)" stroke-width="2"/>
<path d="M16.0117 36.7799C19.9148 32.481 26.5029 24.0839 29 11.3412C31.4971 24.0839 38.0852 32.481 41.9883 36.7799L41.9943 36.7865L42.0004 36.793C45.0604 40.0452 48.5739 44.2793 51.3176 48.9951C54.0661 53.7191 56 58.8546 56 63.9288C56 81.5748 43.8977 93.0008 29.0049 93.079C29.0033 93.079 29.0016 93.079 29 93.079C28.9999 93.079 28.9999 93.079 28.9998 93.079C14.1048 93.0033 2 81.5767 2 63.9288C2 58.8546 3.93391 53.7191 6.68243 48.9951C9.42613 44.2793 12.9396 40.0452 15.9996 36.793L16.0057 36.7865L16.0117 36.7799Z" stroke="url(#paint1_linear_332_301)" stroke-width="2"/>
<path d="M16.0117 36.7799C19.9148 32.481 26.5029 24.0839 29 11.3412C31.4971 24.0839 38.0852 32.481 41.9883 36.7799L41.9943 36.7865L42.0004 36.793C45.0604 40.0452 48.5739 44.2793 51.3176 48.9951C54.0661 53.7191 56 58.8546 56 63.9288C56 81.5748 43.8977 93.0008 29.0049 93.079C29.0033 93.079 29.0016 93.079 29 93.079C28.9999 93.079 28.9999 93.079 28.9998 93.079C14.1048 93.0033 2 81.5767 2 63.9288C2 58.8546 3.93391 53.7191 6.68243 48.9951C9.42613 44.2793 12.9396 40.0452 15.9996 36.793L16.0057 36.7865L16.0117 36.7799Z" stroke="url(#paint2_linear_332_301)" stroke-width="2" style="mix-blend-mode:lighten"/>
<path d="M16.0117 36.7799C19.9148 32.481 26.5029 24.0839 29 11.3412C31.4971 24.0839 38.0852 32.481 41.9883 36.7799L41.9943 36.7865L42.0004 36.793C45.0604 40.0452 48.5739 44.2793 51.3176 48.9951C54.0661 53.7191 56 58.8546 56 63.9288C56 81.5748 43.8977 93.0008 29.0049 93.079C29.0033 93.079 29.0016 93.079 29 93.079C28.9999 93.079 28.9999 93.079 28.9998 93.079C14.1048 93.0033 2 81.5767 2 63.9288C2 58.8546 3.93391 53.7191 6.68243 48.9951C9.42613 44.2793 12.9396 40.0452 15.9996 36.793L16.0057 36.7865L16.0117 36.7799Z" stroke="url(#paint3_linear_332_301)" stroke-opacity="0.19" stroke-width="2"/>
<path d="M16.0117 36.7799C19.9148 32.481 26.5029 24.0839 29 11.3412C31.4971 24.0839 38.0852 32.481 41.9883 36.7799L41.9943 36.7865L42.0004 36.793C45.0604 40.0452 48.5739 44.2793 51.3176 48.9951C54.0661 53.7191 56 58.8546 56 63.9288C56 81.5748 43.8977 93.0008 29.0049 93.079C29.0033 93.079 29.0016 93.079 29 93.079C28.9999 93.079 28.9999 93.079 28.9998 93.079C14.1048 93.0033 2 81.5767 2 63.9288C2 58.8546 3.93391 53.7191 6.68243 48.9951C9.42613 44.2793 12.9396 40.0452 15.9996 36.793L16.0057 36.7865L16.0117 36.7799Z" stroke="url(#paint4_linear_332_301)" stroke-opacity="0.8334" stroke-width="2" style="mix-blend-mode:overlay"/>
<path d="M16.0117 36.7799C19.9148 32.481 26.5029 24.0839 29 11.3412C31.4971 24.0839 38.0852 32.481 41.9883 36.7799L41.9943 36.7865L42.0004 36.793C45.0604 40.0452 48.5739 44.2793 51.3176 48.9951C54.0661 53.7191 56 58.8546 56 63.9288C56 81.5748 43.8977 93.0008 29.0049 93.079C29.0033 93.079 29.0016 93.079 29 93.079C28.9999 93.079 28.9999 93.079 28.9998 93.079C14.1048 93.0033 2 81.5767 2 63.9288C2 58.8546 3.93391 53.7191 6.68243 48.9951C9.42613 44.2793 12.9396 40.0452 15.9996 36.793L16.0057 36.7865L16.0117 36.7799Z" stroke="url(#paint5_linear_332_301)" stroke-opacity="0.21" stroke-width="2" style="mix-blend-mode:overlay"/>
<path d="M16.0117 36.7799C19.9148 32.481 26.5029 24.0839 29 11.3412C31.4971 24.0839 38.0852 32.481 41.9883 36.7799L41.9943 36.7865L42.0004 36.793C45.0604 40.0452 48.5739 44.2793 51.3176 48.9951C54.0661 53.7191 56 58.8546 56 63.9288C56 81.5748 43.8977 93.0008 29.0049 93.079C29.0033 93.079 29.0016 93.079 29 93.079C28.9999 93.079 28.9999 93.079 28.9998 93.079C14.1048 93.0033 2 81.5767 2 63.9288C2 58.8546 3.93391 53.7191 6.68243 48.9951C9.42613 44.2793 12.9396 40.0452 15.9996 36.793L16.0057 36.7865L16.0117 36.7799Z" stroke="url(#paint6_linear_332_301)" stroke-opacity="0.37" stroke-width="2"/>
<path d="M16.0117 36.7799C19.9148 32.481 26.5029 24.0839 29 11.3412C31.4971 24.0839 38.0852 32.481 41.9883 36.7799L41.9943 36.7865L42.0004 36.793C45.0604 40.0452 48.5739 44.2793 51.3176 48.9951C54.0661 53.7191 56 58.8546 56 63.9288C56 81.5748 43.8977 93.0008 29.0049 93.079C29.0033 93.079 29.0016 93.079 29 93.079C28.9999 93.079 28.9999 93.079 28.9998 93.079C14.1048 93.0033 2 81.5767 2 63.9288C2 58.8546 3.93391 53.7191 6.68243 48.9951C9.42613 44.2793 12.9396 40.0452 15.9996 36.793L16.0057 36.7865L16.0117 36.7799Z" stroke="url(#paint7_linear_332_301)" stroke-opacity="0.2" stroke-width="2"/>
<path d="M7.4082 69.8047C9.4365 80.1173 15.0477 86.237 25.0761 88.5025" stroke="url(#paint8_linear_332_301)" stroke-width="1.5"/>
<path d="M7.4082 69.8047C9.4365 80.1173 15.0477 86.237 25.0761 88.5025" stroke="url(#paint9_linear_332_301)" stroke-width="1.5"/>
<path d="M7.4082 69.8047C9.4365 80.1173 15.0477 86.237 25.0761 88.5025" stroke="url(#paint10_linear_332_301)" stroke-width="1.5" style="mix-blend-mode:lighten"/>
<path d="M7.4082 69.8047C9.4365 80.1173 15.0477 86.237 25.0761 88.5025" stroke="url(#paint11_linear_332_301)" stroke-opacity="0.19" stroke-width="1.5"/>
<path d="M7.4082 69.8047C9.4365 80.1173 15.0477 86.237 25.0761 88.5025" stroke="url(#paint12_linear_332_301)" stroke-opacity="0.8334" stroke-width="1.5" style="mix-blend-mode:overlay"/>
<path d="M7.4082 69.8047C9.4365 80.1173 15.0477 86.237 25.0761 88.5025" stroke="url(#paint13_linear_332_301)" stroke-opacity="0.21" stroke-width="1.5" style="mix-blend-mode:overlay"/>
<path d="M7.4082 69.8047C9.4365 80.1173 15.0477 86.237 25.0761 88.5025" stroke="url(#paint14_linear_332_301)" stroke-opacity="0.37" stroke-width="1.5"/>
<path d="M7.4082 69.8047C9.4365 80.1173 15.0477 86.237 25.0761 88.5025" stroke="url(#paint15_linear_332_301)" stroke-opacity="0.2" stroke-width="1.5"/>
<defs>
<linearGradient id="paint0_linear_332_301" x1="29" y1="0.912109" x2="29" y2="94.0794" gradientUnits="userSpaceOnUse">
<stop stop-color="#AAAAAA"/>
<stop offset="1"/>
</linearGradient>
<linearGradient id="paint1_linear_332_301" x1="1" y1="47.4957" x2="57" y2="47.4957" gradientUnits="userSpaceOnUse">
<stop stop-color="#25C5DA"/>
<stop offset="0.24" stop-color="#25AFDA"/>
</linearGradient>
<linearGradient id="paint2_linear_332_301" x1="1" y1="47.4957" x2="57" y2="47.4957" gradientUnits="userSpaceOnUse">
<stop stop-color="#3BD7DD"/>
<stop offset="0.24" stop-color="#25AFDA"/>
</linearGradient>
<linearGradient id="paint3_linear_332_301" x1="29" y1="0.912109" x2="29" y2="94.0794" gradientUnits="userSpaceOnUse">
<stop stop-color="white"/>
<stop offset="1" stop-color="white" stop-opacity="0"/>
</linearGradient>
<linearGradient id="paint4_linear_332_301" x1="29" y1="0.912109" x2="29" y2="94.0794" gradientUnits="userSpaceOnUse">
<stop stop-color="#F8D362"/>
<stop offset="1" stop-color="#F8D362" stop-opacity="0"/>
</linearGradient>
<linearGradient id="paint5_linear_332_301" x1="57" y1="0.912114" x2="0.502117" y2="1.21502" gradientUnits="userSpaceOnUse">
<stop stop-color="#FFBFDF"/>
<stop offset="1" stop-color="white" stop-opacity="0"/>
</linearGradient>
<linearGradient id="paint6_linear_332_301" x1="57" y1="0.912114" x2="0.502117" y2="1.21502" gradientUnits="userSpaceOnUse">
<stop stop-color="#FF5BAD"/>
<stop offset="1" stop-color="white" stop-opacity="0"/>
</linearGradient>
<linearGradient id="paint7_linear_332_301" x1="1" y1="8.10517" x2="57.424" y2="8.38432" gradientUnits="userSpaceOnUse">
<stop stop-color="white" stop-opacity="0"/>
<stop offset="1" stop-color="#FF5BAD"/>
</linearGradient>
<linearGradient id="paint8_linear_332_301" x1="16.2421" y1="69.8047" x2="16.2421" y2="88.5025" gradientUnits="userSpaceOnUse">
<stop stop-color="#AAAAAA"/>
<stop offset="1"/>
</linearGradient>
<linearGradient id="paint9_linear_332_301" x1="7.4082" y1="79.1536" x2="25.0761" y2="79.1536" gradientUnits="userSpaceOnUse">
<stop stop-color="#25C5DA"/>
<stop offset="0.24" stop-color="#25AFDA"/>
</linearGradient>
<linearGradient id="paint10_linear_332_301" x1="7.4082" y1="79.1536" x2="25.0761" y2="79.1536" gradientUnits="userSpaceOnUse">
<stop stop-color="#3BD7DD"/>
<stop offset="0.24" stop-color="#25AFDA"/>
</linearGradient>
<linearGradient id="paint11_linear_332_301" x1="16.2421" y1="69.8047" x2="16.2421" y2="88.5025" gradientUnits="userSpaceOnUse">
<stop stop-color="white"/>
<stop offset="1" stop-color="white" stop-opacity="0"/>
</linearGradient>
<linearGradient id="paint12_linear_332_301" x1="16.2421" y1="69.8047" x2="16.2421" y2="88.5025" gradientUnits="userSpaceOnUse">
<stop stop-color="#F8D362"/>
<stop offset="1" stop-color="#F8D362" stop-opacity="0"/>
</linearGradient>
<linearGradient id="paint13_linear_332_301" x1="25.0761" y1="69.8047" x2="7.25188" y2="69.9549" gradientUnits="userSpaceOnUse">
<stop stop-color="#FFBFDF"/>
<stop offset="1" stop-color="white" stop-opacity="0"/>
</linearGradient>
<linearGradient id="paint14_linear_332_301" x1="25.0761" y1="69.8047" x2="7.25188" y2="69.9549" gradientUnits="userSpaceOnUse">
<stop stop-color="#FF5BAD"/>
<stop offset="1" stop-color="white" stop-opacity="0"/>
</linearGradient>
<linearGradient id="paint15_linear_332_301" x1="7.4082" y1="71.2483" x2="25.2092" y2="71.3867" gradientUnits="userSpaceOnUse">
<stop stop-color="white" stop-opacity="0"/>
<stop offset="1" stop-color="#FF5BAD"/>
</linearGradient>
</defs>
</svg>
