<svg width="58" height="95" viewBox="0 0 58 95" fill="none" xmlns="http://www.w3.org/2000/svg">
<path fill-rule="evenodd" clip-rule="evenodd" d="M53.5156 66.3488C49.9374 67.3938 37.5379 70.4823 28.829 66.039C20.1186 61.5949 7.71642 64.6853 4.14062 65.7297V66.0384C4.14062 79.9822 15.2129 91.2511 28.829 91.2511C42.344 91.2511 53.3527 80.149 53.5156 66.3488ZM3.14062 66.039C3.14062 80.5159 14.6417 92.2516 28.829 92.2516C42.5178 92.2516 53.7057 81.3262 54.4751 67.5547C53.7054 81.326 42.5176 92.2511 28.829 92.2511C14.6418 92.2511 3.14092 80.5156 3.14062 66.039Z" fill="url(#paint0_linear_319_1872)" fill-opacity="0.59"/>
<path d="M29.0005 93.5797C44.1869 93.5039 56.5005 81.8384 56.5005 63.9295C56.5005 58.7329 54.5221 53.5086 51.7502 48.7443C48.9807 43.9842 45.4401 39.7193 42.365 36.451L42.365 36.4511L42.359 36.4445C38.194 31.8572 30.9575 22.5784 29.0005 8.29343C27.0435 22.5784 19.807 31.8572 15.642 36.4445L15.6421 36.4446L15.636 36.451C12.5609 39.7193 9.02024 43.9842 6.25075 48.7443C3.47883 53.5086 1.50049 58.7329 1.50049 63.9295C1.50049 81.8384 13.8141 93.5039 29.0005 93.5797Z" stroke="url(#paint1_linear_319_1872)"/>
<path d="M29.0005 93.5797C44.1869 93.5039 56.5005 81.8384 56.5005 63.9295C56.5005 58.7329 54.5221 53.5086 51.7502 48.7443C48.9807 43.9842 45.4401 39.7193 42.365 36.451L42.365 36.4511L42.359 36.4445C38.194 31.8572 30.9575 22.5784 29.0005 8.29343C27.0435 22.5784 19.807 31.8572 15.642 36.4445L15.6421 36.4446L15.636 36.451C12.5609 39.7193 9.02024 43.9842 6.25075 48.7443C3.47883 53.5086 1.50049 58.7329 1.50049 63.9295C1.50049 81.8384 13.8141 93.5039 29.0005 93.5797Z" stroke="url(#paint2_linear_319_1872)" stroke-opacity="0.61"/>
<defs>
<linearGradient id="paint0_linear_319_1872" x1="29.6178" y1="99.64" x2="29.6178" y2="64.7558" gradientUnits="userSpaceOnUse">
<stop stop-color="#77CCF9" stop-opacity="0.25"/>
<stop offset="1" stop-color="#D4FEFB"/>
</linearGradient>
<linearGradient id="paint1_linear_319_1872" x1="29.0005" y1="0.912811" x2="29.0005" y2="94.0801" gradientUnits="userSpaceOnUse">
<stop stop-color="#D4FEFB"/>
<stop offset="1" stop-color="#77CCF9"/>
</linearGradient>
<linearGradient id="paint2_linear_319_1872" x1="29.0005" y1="0.912811" x2="29.0005" y2="94.0801" gradientUnits="userSpaceOnUse">
<stop stop-color="white"/>
<stop offset="1" stop-color="white" stop-opacity="0"/>
</linearGradient>
</defs>
</svg>
