<svg width="20" height="20" viewBox="0 0 20 20" fill="none" xmlns="http://www.w3.org/2000/svg">
<path d="M16.6327 14.5066C16.3952 15.5234 15.6233 16.0948 14.5879 16.2878C13.6787 16.4548 12.9217 16.4956 12.1944 15.9093C11.3075 15.1634 11.2963 13.9277 12.0942 13.1484C12.725 12.5472 13.612 12.4247 14.9442 12.1909C15.1668 12.1501 15.3598 12.0982 15.5231 11.9163C15.7606 11.6491 15.6864 11.7642 15.6864 5.86007C15.6864 5.44445 15.4823 5.32941 15.0555 5.40363C14.7512 5.45558 8.16429 6.68761 8.16429 6.68761C7.78578 6.76925 7.66703 6.88058 7.66703 7.30734C7.66703 16.0169 7.70785 15.6161 7.57426 16.195C7.4184 16.8704 7.00277 17.3788 6.45355 17.6609C5.83012 18.006 4.70199 18.1581 4.10082 18.0468C2.49769 17.7462 1.93363 15.8944 3.02094 14.8331C3.65179 14.2319 4.53871 14.1095 5.87094 13.8757C6.09359 13.8349 6.28656 13.7829 6.44984 13.6011C6.82465 13.1743 6.51664 4.07882 6.64281 3.57414C6.6725 3.38117 6.75414 3.21789 6.90629 3.09543C7.06215 2.96554 7.34418 2.89132 7.40355 2.89132C14.9739 1.47375 15.8979 1.29191 16.0278 1.29191C16.4545 1.26222 16.6995 1.51457 16.6995 1.94503C16.7069 14.7292 16.7403 14.0427 16.6327 14.5066Z" fill="white"/>
</svg>
