<svg width="65" height="68" viewBox="0 0 65 68" fill="none" xmlns="http://www.w3.org/2000/svg">
<path fill-rule="evenodd" clip-rule="evenodd" d="M28.5381 67.4688C27.6003 67.4688 26.8696 67.2506 26.3462 66.8145C25.8228 66.4001 25.561 65.8221 25.561 65.0806C25.561 64.5353 25.7137 63.8701 26.019 63.085C26.3244 62.3216 26.4771 61.3184 26.4771 60.0752C26.4771 58.8538 26.6079 57.7197 26.8696 56.6729C27.1532 55.6042 27.6003 54.6118 28.2109 53.6958C27.6003 53.1287 27.0768 52.4963 26.6406 51.7983C26.2044 51.0786 25.6483 50.0317 24.9722 48.6577C24.4269 47.5672 23.9035 46.6839 23.4019 46.0078C22.9002 45.3099 22.6494 44.5356 22.6494 43.6851C22.6494 42.8781 22.9875 42.2783 23.6636 41.8857C24.3615 41.4714 25.3429 41.2642 26.6079 41.2642C29.007 41.2642 31.0462 41.9403 32.7256 43.2925C34.4049 44.6229 35.7244 46.2913 36.6841 48.2979C37.4692 48.0361 38.2762 47.5672 39.105 46.8911C39.9556 46.215 40.5881 45.528 41.0024 44.8301C41.2205 43.9141 41.3732 43.1616 41.4604 42.5728C41.5477 41.9621 41.5913 41.2642 41.5913 40.479C41.5913 37.4256 40.4681 35.1247 38.2217 33.5762C37.0467 32.7662 35.6231 32.1532 33.9176 31.7527C33.9351 32.3499 33.9739 32.9006 34.0333 33.4055C34.116 34.1085 34.2473 34.6716 34.4168 35.1075C34.7054 35.7864 35.0033 36.3052 35.3029 36.6811C35.7139 37.1714 35.9678 37.721 35.9678 38.3203C35.9678 38.7779 35.7429 39.1554 35.3487 39.3791C35.0068 39.5732 34.5744 39.6323 34.1323 39.6323C32.5944 39.6323 31.0735 39.2054 29.5766 38.3763L29.573 38.3743C28.1119 37.5524 26.843 36.5009 25.7693 35.2216L25.7651 35.2166L25.7651 35.2165C24.7787 34.0157 24.125 32.7437 23.8283 31.4022C23.4469 31.4413 23.0456 31.4815 22.6167 31.5151C18.342 33.9578 14.8524 35.7572 12.1479 36.9131C9.44352 38.069 7.34977 38.647 5.8667 38.647C4.40544 38.647 3.19499 38.189 2.23535 37.2729C1.27572 36.3351 0.795898 35.201 0.795898 33.8706C0.795898 32.9546 1.014 32.1367 1.4502 31.417C1.9082 30.6755 2.42074 30.0212 2.98779 29.4541C3.57666 28.887 4.08919 28.3854 4.52539 27.9492C4.9834 27.4912 5.2124 27.0659 5.2124 26.6733C5.2124 26.3026 5.04883 25.8228 4.72168 25.2339C4.41634 24.6232 4.1001 23.8708 3.77295 22.9766C3.46761 22.0605 3.31494 20.981 3.31494 19.7378C3.31494 17.2078 3.98014 14.8088 5.31055 12.5405C6.64095 10.2505 8.45117 8.22217 10.7412 6.45557C13.0531 4.66715 15.6921 3.27132 18.6582 2.26807C21.6243 1.243 24.7541 0.730469 28.0474 0.730469C31.4279 0.730469 34.8957 1.25391 38.4507 2.30078C42.0057 3.34766 45.4517 4.88525 48.7886 6.91357C49.4429 6.7391 50.1299 6.60824 50.8496 6.521C51.5693 6.43376 52.2891 6.39014 53.0088 6.39014C54.8626 6.39014 56.651 6.69548 58.374 7.30615C60.097 7.89502 61.5037 8.66927 62.5942 9.62891C63.7065 10.5667 64.2627 11.5809 64.2627 12.6714C64.2627 13.3475 64.0337 13.9364 63.5757 14.438C63.1177 14.9396 62.4743 15.3104 61.6455 15.5503C60.4023 15.8993 59.4645 16.4227 58.832 17.1206C58.1995 17.7967 57.8833 18.6255 57.8833 19.6069C57.8833 20.5884 57.9269 21.4499 58.0142 22.1914C58.1232 22.9329 58.2541 23.6636 58.4067 24.3833C58.5812 25.1685 58.723 26.019 58.832 26.9351C58.9411 27.8293 58.9956 28.9525 58.9956 30.3047C58.9956 34.3613 58.1668 38.1453 56.5093 41.6567C54.8517 45.1463 52.4854 48.1888 49.4102 50.7842C46.3568 53.3577 42.7254 55.2988 38.5161 56.6074C37.9709 58.4395 37.2184 60.1842 36.2588 61.8418C35.2992 63.4993 34.165 64.8516 32.8564 65.8984C31.5697 66.9453 30.1302 67.4688 28.5381 67.4688ZM25.8453 30.0015C25.4527 30.0094 25.0765 30.0361 24.6983 30.0629H24.6982C24.4646 30.0795 24.2303 30.0961 23.9907 30.1084C23.1619 30.1302 22.5731 30.1629 22.2241 30.2065C17.9712 32.6493 14.5252 34.4486 11.8862 35.6045C9.24723 36.7604 7.24072 37.3384 5.8667 37.3384C4.75439 37.3384 3.84928 37.0112 3.15137 36.3569C2.45345 35.6808 2.10449 34.8521 2.10449 33.8706C2.10449 33.1291 2.32259 32.4421 2.75879 31.8096C3.2168 31.1553 3.72933 30.5446 4.29639 29.9775C4.88525 29.4105 5.39779 28.8543 5.83398 28.3091C6.29199 27.7638 6.521 27.2186 6.521 26.6733C6.521 26.1935 6.35742 25.6374 6.03027 25.0049C5.72494 24.3506 5.40869 23.5872 5.08154 22.7148C4.7762 21.8424 4.62354 20.8501 4.62354 19.7378C4.62354 17.4041 5.25602 15.1795 6.521 13.064C7.78597 10.9266 9.50895 9.02913 11.6899 7.37158C13.8709 5.71403 16.3682 4.41634 19.1816 3.47852C21.9951 2.51888 24.9504 2.03906 28.0474 2.03906C31.3407 2.03906 34.7212 2.5625 38.189 3.60938C41.6785 4.63444 45.1572 6.20475 48.625 8.32031C49.3883 8.10221 50.1299 7.94954 50.8496 7.8623C51.5693 7.75326 52.2891 7.69873 53.0088 7.69873C54.6009 7.69873 56.1494 7.94954 57.6543 8.45117C59.181 8.93099 60.446 9.55257 61.4492 10.3159C62.4525 11.0793 62.9541 11.8644 62.9541 12.6714C62.9541 13.4347 62.4089 13.98 61.3184 14.3071C59.7699 14.7869 58.5921 15.474 57.7852 16.3682C56.9782 17.2406 56.5747 18.3202 56.5747 19.6069C56.5747 20.6756 56.6292 21.6025 56.7383 22.3877C56.8473 23.1729 56.9673 23.9362 57.0981 24.6777C57.2508 25.4629 57.3817 26.2917 57.4907 27.1641C57.6216 28.0146 57.687 29.0615 57.687 30.3047C57.687 34.1868 56.88 37.8182 55.2661 41.1987C53.6522 44.5793 51.3294 47.5127 48.2979 49.999C45.2881 52.4635 41.6567 54.3174 37.4038 55.5605C37.0985 56.8255 36.6623 58.0796 36.0952 59.3228C35.5282 60.5877 34.8521 61.7327 34.0669 62.7578C33.3035 63.8047 32.453 64.6335 31.5151 65.2441C30.5773 65.8548 29.585 66.1602 28.5381 66.1602C27.4258 66.1602 26.8696 65.8003 26.8696 65.0806C26.8696 64.5571 27.0223 63.9465 27.3276 63.2485C27.633 62.5506 27.7856 61.4928 27.7856 60.0752C27.7856 58.7448 27.9601 57.5343 28.3091 56.4438C28.658 55.3534 29.2251 54.3719 30.0103 53.4995C29.465 53.0633 29.007 52.6598 28.6362 52.2891C28.2873 51.8965 27.9165 51.3621 27.5239 50.686C27.1313 50.0099 26.6297 49.0503 26.019 47.8071C25.6483 47.0438 25.2121 46.3241 24.7104 45.6479C24.2088 44.95 23.958 44.2957 23.958 43.6851C23.958 42.9435 24.8413 42.5728 26.6079 42.5728C28.8761 42.5728 30.7736 43.238 32.3003 44.5684C33.827 45.877 35.0374 47.6545 35.9316 49.9009C36.4987 49.7918 37.1639 49.5519 37.9272 49.1812C38.6906 48.8104 39.4539 48.3088 40.2173 47.6763C41.0024 47.0438 41.6567 46.2804 42.1802 45.3862C42.4637 44.1431 42.6491 43.1616 42.7363 42.4419C42.8454 41.7222 42.8999 41.0679 42.8999 40.479C42.8999 37.0112 41.6349 34.394 39.105 32.6274C36.5968 30.839 33.1471 29.8904 28.5234 29.8904C28.497 29.8904 28.4691 29.8907 28.4397 29.8914L28.4188 29.8895L28.3756 29.8854L28.3322 29.8874L25.8453 30.0015ZM26.6467 31.2161L25.3178 31.2771L25.0902 31.3078C25.3553 32.3673 25.8947 33.4044 26.7289 34.4206C27.7045 35.5823 28.8551 36.5361 30.1839 37.2838C31.5217 38.0244 32.8355 38.3823 34.1323 38.3823C34.4723 38.3823 34.6456 38.3342 34.7175 38.2994C34.7119 38.0765 34.6163 37.8063 34.3413 37.4797L34.3362 37.4737L34.3313 37.4676C33.9356 36.973 33.582 36.3404 33.2625 35.5873L33.2591 35.5792L33.2559 35.571C33.0343 35.0047 32.8831 34.3273 32.7919 33.5515C32.7188 32.9303 32.6757 32.255 32.6618 31.5266L32.0408 31.4279L31.0595 31.3057C30.2621 31.2349 29.4175 31.199 28.5234 31.199C27.9217 31.199 27.2683 31.203 26.6467 31.2161ZM36.0625 25.1357L35.4736 23.958C36.7604 23.3691 38.1453 22.7148 39.6284 21.9951C41.1115 21.2754 42.769 20.3812 44.6011 19.3125C46.1496 18.4183 47.1855 17.7422 47.709 17.2842C48.2324 16.8044 48.4941 16.3573 48.4941 15.9429C48.4941 15.4631 48.1452 15.005 47.4473 14.5688C46.7712 14.1326 45.866 13.7728 44.7319 13.4893C43.5978 13.2057 42.3765 13.064 41.0679 13.064C36.6405 13.064 32.8237 14.4598 29.6177 17.2515L28.7671 16.27C30.4028 14.8306 32.2894 13.7183 34.4268 12.9331C36.5859 12.1479 38.7996 11.7554 41.0679 11.7554C43.467 11.7554 45.5171 12.1589 47.2183 12.9658C48.9412 13.7728 49.8027 14.7651 49.8027 15.9429C49.8027 16.8807 49.3338 17.7095 48.396 18.4292C47.4582 19.1271 46.4113 19.7923 45.2554 20.4248C43.4015 21.4717 41.7222 22.3768 40.2173 23.1401C38.7342 23.8817 37.3493 24.5469 36.0625 25.1357ZM16.7372 18.7823C16.981 19.0376 17.2712 19.1653 17.6078 19.1653C17.9096 19.1653 18.165 19.0551 18.3739 18.8345C18.5829 18.614 18.6873 18.3412 18.6873 18.0162C18.6873 17.6795 18.5654 17.3835 18.3217 17.1282C18.0895 16.8728 17.8051 16.7451 17.4685 16.7451C17.1667 16.7451 16.9055 16.8554 16.685 17.0759C16.4761 17.2965 16.3716 17.5693 16.3716 17.8943C16.3716 18.2309 16.4935 18.5269 16.7372 18.7823Z" fill="url(#paint0_linear_136_37)"/>
<defs>
<linearGradient id="paint0_linear_136_37" x1="25.7632" y1="5.73787" x2="25.7632" y2="47.7835" gradientUnits="userSpaceOnUse">
<stop stop-color="white"/>
<stop offset="1" stop-color="white" stop-opacity="0.32"/>
</linearGradient>
</defs>
</svg>
