<svg width="18" height="18" viewBox="0 0 18 18" fill="none" xmlns="http://www.w3.org/2000/svg">
<g clip-path="url(#clip0_353_1824)">
<mask id="mask0_353_1824" style="mask-type:luminance" maskUnits="userSpaceOnUse" x="0" y="0" width="18" height="18">
<path d="M18 0H0V18H18V0Z" fill="white"/>
</mask>
<g mask="url(#mask0_353_1824)">
<path d="M9.93339 5.82203L6.12505 2.01371C5.01618 0.90481 3.19389 0.929235 2.05484 2.06827C0.915808 3.20728 0.891383 5.02961 2.00028 6.13849L5.30664 9.44486" stroke="white" stroke-width="0.833333" stroke-linecap="round" stroke-linejoin="round"/>
<path d="M12.7095 8.58447L16.0159 11.8908C17.1248 12.9997 17.1003 14.822 15.9613 15.9611C14.8223 17.1001 13 17.1245 11.8911 16.0156L8.08276 12.2073" stroke="white" stroke-width="0.833333" stroke-linecap="round" stroke-linejoin="round"/>
<path d="M9.87891 9.89227C11.0179 8.75323 11.0424 6.93094 9.93349 5.82202" stroke="white" stroke-width="0.833333" stroke-linecap="round" stroke-linejoin="round"/>
<path d="M8.08292 8.08252C6.94388 9.22156 6.91946 11.0438 8.02834 12.1527" stroke="white" stroke-width="0.833333" stroke-linecap="round" stroke-linejoin="round"/>
</g>
</g>
<defs>
<clipPath id="clip0_353_1824">
<rect width="18" height="18" fill="white"/>
</clipPath>
</defs>
</svg>
