<svg width="26" height="26" viewBox="0 0 26 26" fill="none" xmlns="http://www.w3.org/2000/svg">
<path d="M13 22.1666C15.7317 22.1666 14.0706 18.104 15.75 16.2083C17.1829 14.5908 22.1667 15.3309 22.1667 13C22.1667 7.93737 18.0626 3.83331 13 3.83331C7.93739 3.83331 3.83333 7.93737 3.83333 13C3.83333 18.0626 7.93739 22.1666 13 22.1666Z" stroke="url(#paint0_linear_602_110)" stroke-width="0.916667" stroke-linejoin="round"/>
<path d="M13 22.1666C15.7317 22.1666 14.0706 18.104 15.75 16.2083C17.1829 14.5908 22.1667 15.3309 22.1667 13C22.1667 7.93737 18.0626 3.83331 13 3.83331C7.93739 3.83331 3.83333 7.93737 3.83333 13C3.83333 18.0626 7.93739 22.1666 13 22.1666Z" stroke="url(#paint1_linear_602_110)" stroke-width="0.916667" stroke-linejoin="round"/>
<path d="M13 22.1666C15.7317 22.1666 14.0706 18.104 15.75 16.2083C17.1829 14.5908 22.1667 15.3309 22.1667 13C22.1667 7.93737 18.0626 3.83331 13 3.83331C7.93739 3.83331 3.83333 7.93737 3.83333 13C3.83333 18.0626 7.93739 22.1666 13 22.1666Z" stroke="url(#paint2_linear_602_110)" stroke-width="0.916667" stroke-linejoin="round" style="mix-blend-mode:lighten"/>
<path d="M13 22.1666C15.7317 22.1666 14.0706 18.104 15.75 16.2083C17.1829 14.5908 22.1667 15.3309 22.1667 13C22.1667 7.93737 18.0626 3.83331 13 3.83331C7.93739 3.83331 3.83333 7.93737 3.83333 13C3.83333 18.0626 7.93739 22.1666 13 22.1666Z" stroke="url(#paint3_linear_602_110)" stroke-opacity="0.19" stroke-width="0.916667" stroke-linejoin="round"/>
<path d="M13 22.1666C15.7317 22.1666 14.0706 18.104 15.75 16.2083C17.1829 14.5908 22.1667 15.3309 22.1667 13C22.1667 7.93737 18.0626 3.83331 13 3.83331C7.93739 3.83331 3.83333 7.93737 3.83333 13C3.83333 18.0626 7.93739 22.1666 13 22.1666Z" stroke="url(#paint4_linear_602_110)" stroke-opacity="0.8334" stroke-width="0.916667" stroke-linejoin="round" style="mix-blend-mode:overlay"/>
<path d="M13 22.1666C15.7317 22.1666 14.0706 18.104 15.75 16.2083C17.1829 14.5908 22.1667 15.3309 22.1667 13C22.1667 7.93737 18.0626 3.83331 13 3.83331C7.93739 3.83331 3.83333 7.93737 3.83333 13C3.83333 18.0626 7.93739 22.1666 13 22.1666Z" stroke="url(#paint5_linear_602_110)" stroke-opacity="0.21" stroke-width="0.916667" stroke-linejoin="round" style="mix-blend-mode:overlay"/>
<path d="M13 22.1666C15.7317 22.1666 14.0706 18.104 15.75 16.2083C17.1829 14.5908 22.1667 15.3309 22.1667 13C22.1667 7.93737 18.0626 3.83331 13 3.83331C7.93739 3.83331 3.83333 7.93737 3.83333 13C3.83333 18.0626 7.93739 22.1666 13 22.1666Z" stroke="url(#paint6_linear_602_110)" stroke-opacity="0.37" stroke-width="0.916667" stroke-linejoin="round"/>
<path d="M13 22.1666C15.7317 22.1666 14.0706 18.104 15.75 16.2083C17.1829 14.5908 22.1667 15.3309 22.1667 13C22.1667 7.93737 18.0626 3.83331 13 3.83331C7.93739 3.83331 3.83333 7.93737 3.83333 13C3.83333 18.0626 7.93739 22.1666 13 22.1666Z" stroke="url(#paint7_linear_602_110)" stroke-opacity="0.2" stroke-width="0.916667" stroke-linejoin="round"/>
<path d="M14.8333 9.79165C15.5927 9.79165 16.2083 9.17606 16.2083 8.41665C16.2083 7.65723 15.5927 7.04165 14.8333 7.04165C14.0739 7.04165 13.4583 7.65723 13.4583 8.41665C13.4583 9.17606 14.0739 9.79165 14.8333 9.79165Z" stroke="url(#paint8_linear_602_110)" stroke-width="0.916667" stroke-linejoin="round"/>
<path d="M14.8333 9.79165C15.5927 9.79165 16.2083 9.17606 16.2083 8.41665C16.2083 7.65723 15.5927 7.04165 14.8333 7.04165C14.0739 7.04165 13.4583 7.65723 13.4583 8.41665C13.4583 9.17606 14.0739 9.79165 14.8333 9.79165Z" stroke="url(#paint9_linear_602_110)" stroke-width="0.916667" stroke-linejoin="round"/>
<path d="M14.8333 9.79165C15.5927 9.79165 16.2083 9.17606 16.2083 8.41665C16.2083 7.65723 15.5927 7.04165 14.8333 7.04165C14.0739 7.04165 13.4583 7.65723 13.4583 8.41665C13.4583 9.17606 14.0739 9.79165 14.8333 9.79165Z" stroke="url(#paint10_linear_602_110)" stroke-width="0.916667" stroke-linejoin="round" style="mix-blend-mode:lighten"/>
<path d="M14.8333 9.79165C15.5927 9.79165 16.2083 9.17606 16.2083 8.41665C16.2083 7.65723 15.5927 7.04165 14.8333 7.04165C14.0739 7.04165 13.4583 7.65723 13.4583 8.41665C13.4583 9.17606 14.0739 9.79165 14.8333 9.79165Z" stroke="url(#paint11_linear_602_110)" stroke-opacity="0.19" stroke-width="0.916667" stroke-linejoin="round"/>
<path d="M14.8333 9.79165C15.5927 9.79165 16.2083 9.17606 16.2083 8.41665C16.2083 7.65723 15.5927 7.04165 14.8333 7.04165C14.0739 7.04165 13.4583 7.65723 13.4583 8.41665C13.4583 9.17606 14.0739 9.79165 14.8333 9.79165Z" stroke="url(#paint12_linear_602_110)" stroke-opacity="0.8334" stroke-width="0.916667" stroke-linejoin="round" style="mix-blend-mode:overlay"/>
<path d="M14.8333 9.79165C15.5927 9.79165 16.2083 9.17606 16.2083 8.41665C16.2083 7.65723 15.5927 7.04165 14.8333 7.04165C14.0739 7.04165 13.4583 7.65723 13.4583 8.41665C13.4583 9.17606 14.0739 9.79165 14.8333 9.79165Z" stroke="url(#paint13_linear_602_110)" stroke-opacity="0.21" stroke-width="0.916667" stroke-linejoin="round" style="mix-blend-mode:overlay"/>
<path d="M14.8333 9.79165C15.5927 9.79165 16.2083 9.17606 16.2083 8.41665C16.2083 7.65723 15.5927 7.04165 14.8333 7.04165C14.0739 7.04165 13.4583 7.65723 13.4583 8.41665C13.4583 9.17606 14.0739 9.79165 14.8333 9.79165Z" stroke="url(#paint14_linear_602_110)" stroke-opacity="0.37" stroke-width="0.916667" stroke-linejoin="round"/>
<path d="M14.8333 9.79165C15.5927 9.79165 16.2083 9.17606 16.2083 8.41665C16.2083 7.65723 15.5927 7.04165 14.8333 7.04165C14.0739 7.04165 13.4583 7.65723 13.4583 8.41665C13.4583 9.17606 14.0739 9.79165 14.8333 9.79165Z" stroke="url(#paint15_linear_602_110)" stroke-opacity="0.2" stroke-width="0.916667" stroke-linejoin="round"/>
<path d="M9.33333 11.625C10.0927 11.625 10.7083 11.0094 10.7083 10.25C10.7083 9.49057 10.0927 8.87498 9.33333 8.87498C8.57392 8.87498 7.95833 9.49057 7.95833 10.25C7.95833 11.0094 8.57392 11.625 9.33333 11.625Z" stroke="url(#paint16_linear_602_110)" stroke-width="0.916667" stroke-linejoin="round"/>
<path d="M9.33333 11.625C10.0927 11.625 10.7083 11.0094 10.7083 10.25C10.7083 9.49057 10.0927 8.87498 9.33333 8.87498C8.57392 8.87498 7.95833 9.49057 7.95833 10.25C7.95833 11.0094 8.57392 11.625 9.33333 11.625Z" stroke="url(#paint17_linear_602_110)" stroke-width="0.916667" stroke-linejoin="round"/>
<path d="M9.33333 11.625C10.0927 11.625 10.7083 11.0094 10.7083 10.25C10.7083 9.49057 10.0927 8.87498 9.33333 8.87498C8.57392 8.87498 7.95833 9.49057 7.95833 10.25C7.95833 11.0094 8.57392 11.625 9.33333 11.625Z" stroke="url(#paint18_linear_602_110)" stroke-width="0.916667" stroke-linejoin="round" style="mix-blend-mode:lighten"/>
<path d="M9.33333 11.625C10.0927 11.625 10.7083 11.0094 10.7083 10.25C10.7083 9.49057 10.0927 8.87498 9.33333 8.87498C8.57392 8.87498 7.95833 9.49057 7.95833 10.25C7.95833 11.0094 8.57392 11.625 9.33333 11.625Z" stroke="url(#paint19_linear_602_110)" stroke-opacity="0.19" stroke-width="0.916667" stroke-linejoin="round"/>
<path d="M9.33333 11.625C10.0927 11.625 10.7083 11.0094 10.7083 10.25C10.7083 9.49057 10.0927 8.87498 9.33333 8.87498C8.57392 8.87498 7.95833 9.49057 7.95833 10.25C7.95833 11.0094 8.57392 11.625 9.33333 11.625Z" stroke="url(#paint20_linear_602_110)" stroke-opacity="0.8334" stroke-width="0.916667" stroke-linejoin="round" style="mix-blend-mode:overlay"/>
<path d="M9.33333 11.625C10.0927 11.625 10.7083 11.0094 10.7083 10.25C10.7083 9.49057 10.0927 8.87498 9.33333 8.87498C8.57392 8.87498 7.95833 9.49057 7.95833 10.25C7.95833 11.0094 8.57392 11.625 9.33333 11.625Z" stroke="url(#paint21_linear_602_110)" stroke-opacity="0.21" stroke-width="0.916667" stroke-linejoin="round" style="mix-blend-mode:overlay"/>
<path d="M9.33333 11.625C10.0927 11.625 10.7083 11.0094 10.7083 10.25C10.7083 9.49057 10.0927 8.87498 9.33333 8.87498C8.57392 8.87498 7.95833 9.49057 7.95833 10.25C7.95833 11.0094 8.57392 11.625 9.33333 11.625Z" stroke="url(#paint22_linear_602_110)" stroke-opacity="0.37" stroke-width="0.916667" stroke-linejoin="round"/>
<path d="M9.33333 11.625C10.0927 11.625 10.7083 11.0094 10.7083 10.25C10.7083 9.49057 10.0927 8.87498 9.33333 8.87498C8.57392 8.87498 7.95833 9.49057 7.95833 10.25C7.95833 11.0094 8.57392 11.625 9.33333 11.625Z" stroke="url(#paint23_linear_602_110)" stroke-opacity="0.2" stroke-width="0.916667" stroke-linejoin="round"/>
<path d="M9.79167 17.5833C10.5511 17.5833 11.1667 16.9677 11.1667 16.2083C11.1667 15.4489 10.5511 14.8333 9.79167 14.8333C9.03225 14.8333 8.41667 15.4489 8.41667 16.2083C8.41667 16.9677 9.03225 17.5833 9.79167 17.5833Z" stroke="url(#paint24_linear_602_110)" stroke-width="0.916667" stroke-linejoin="round"/>
<path d="M9.79167 17.5833C10.5511 17.5833 11.1667 16.9677 11.1667 16.2083C11.1667 15.4489 10.5511 14.8333 9.79167 14.8333C9.03225 14.8333 8.41667 15.4489 8.41667 16.2083C8.41667 16.9677 9.03225 17.5833 9.79167 17.5833Z" stroke="url(#paint25_linear_602_110)" stroke-width="0.916667" stroke-linejoin="round"/>
<path d="M9.79167 17.5833C10.5511 17.5833 11.1667 16.9677 11.1667 16.2083C11.1667 15.4489 10.5511 14.8333 9.79167 14.8333C9.03225 14.8333 8.41667 15.4489 8.41667 16.2083C8.41667 16.9677 9.03225 17.5833 9.79167 17.5833Z" stroke="url(#paint26_linear_602_110)" stroke-width="0.916667" stroke-linejoin="round" style="mix-blend-mode:lighten"/>
<path d="M9.79167 17.5833C10.5511 17.5833 11.1667 16.9677 11.1667 16.2083C11.1667 15.4489 10.5511 14.8333 9.79167 14.8333C9.03225 14.8333 8.41667 15.4489 8.41667 16.2083C8.41667 16.9677 9.03225 17.5833 9.79167 17.5833Z" stroke="url(#paint27_linear_602_110)" stroke-opacity="0.19" stroke-width="0.916667" stroke-linejoin="round"/>
<path d="M9.79167 17.5833C10.5511 17.5833 11.1667 16.9677 11.1667 16.2083C11.1667 15.4489 10.5511 14.8333 9.79167 14.8333C9.03225 14.8333 8.41667 15.4489 8.41667 16.2083C8.41667 16.9677 9.03225 17.5833 9.79167 17.5833Z" stroke="url(#paint28_linear_602_110)" stroke-opacity="0.8334" stroke-width="0.916667" stroke-linejoin="round" style="mix-blend-mode:overlay"/>
<path d="M9.79167 17.5833C10.5511 17.5833 11.1667 16.9677 11.1667 16.2083C11.1667 15.4489 10.5511 14.8333 9.79167 14.8333C9.03225 14.8333 8.41667 15.4489 8.41667 16.2083C8.41667 16.9677 9.03225 17.5833 9.79167 17.5833Z" stroke="url(#paint29_linear_602_110)" stroke-opacity="0.21" stroke-width="0.916667" stroke-linejoin="round" style="mix-blend-mode:overlay"/>
<path d="M9.79167 17.5833C10.5511 17.5833 11.1667 16.9677 11.1667 16.2083C11.1667 15.4489 10.5511 14.8333 9.79167 14.8333C9.03225 14.8333 8.41667 15.4489 8.41667 16.2083C8.41667 16.9677 9.03225 17.5833 9.79167 17.5833Z" stroke="url(#paint30_linear_602_110)" stroke-opacity="0.37" stroke-width="0.916667" stroke-linejoin="round"/>
<path d="M9.79167 17.5833C10.5511 17.5833 11.1667 16.9677 11.1667 16.2083C11.1667 15.4489 10.5511 14.8333 9.79167 14.8333C9.03225 14.8333 8.41667 15.4489 8.41667 16.2083C8.41667 16.9677 9.03225 17.5833 9.79167 17.5833Z" stroke="url(#paint31_linear_602_110)" stroke-opacity="0.2" stroke-width="0.916667" stroke-linejoin="round"/>
<defs>
<linearGradient id="paint0_linear_602_110" x1="13" y1="3.83331" x2="13" y2="22.1666" gradientUnits="userSpaceOnUse">
<stop stop-color="#AAAAAA"/>
<stop offset="1"/>
</linearGradient>
<linearGradient id="paint1_linear_602_110" x1="3.83333" y1="13" x2="22.1667" y2="13" gradientUnits="userSpaceOnUse">
<stop stop-color="#25C5DA"/>
<stop offset="0.24" stop-color="#25AFDA"/>
</linearGradient>
<linearGradient id="paint2_linear_602_110" x1="3.83333" y1="13" x2="22.1667" y2="13" gradientUnits="userSpaceOnUse">
<stop stop-color="#3BD7DD"/>
<stop offset="0.24" stop-color="#25AFDA"/>
</linearGradient>
<linearGradient id="paint3_linear_602_110" x1="13" y1="3.83331" x2="13" y2="22.1666" gradientUnits="userSpaceOnUse">
<stop stop-color="white"/>
<stop offset="1" stop-color="white" stop-opacity="0"/>
</linearGradient>
<linearGradient id="paint4_linear_602_110" x1="13" y1="3.83331" x2="13" y2="22.1666" gradientUnits="userSpaceOnUse">
<stop stop-color="#F8D362"/>
<stop offset="1" stop-color="#F8D362" stop-opacity="0"/>
</linearGradient>
<linearGradient id="paint5_linear_602_110" x1="22.1667" y1="3.83331" x2="3.67127" y2="3.99829" gradientUnits="userSpaceOnUse">
<stop stop-color="#FFBFDF"/>
<stop offset="1" stop-color="white" stop-opacity="0"/>
</linearGradient>
<linearGradient id="paint6_linear_602_110" x1="22.1667" y1="3.83331" x2="3.67127" y2="3.99829" gradientUnits="userSpaceOnUse">
<stop stop-color="#FF5BAD"/>
<stop offset="1" stop-color="white" stop-opacity="0"/>
</linearGradient>
<linearGradient id="paint7_linear_602_110" x1="3.83333" y1="5.24875" x2="22.3047" y2="5.40079" gradientUnits="userSpaceOnUse">
<stop stop-color="white" stop-opacity="0"/>
<stop offset="1" stop-color="#FF5BAD"/>
</linearGradient>
<linearGradient id="paint8_linear_602_110" x1="13" y1="3.83331" x2="13" y2="22.1666" gradientUnits="userSpaceOnUse">
<stop stop-color="#AAAAAA"/>
<stop offset="1"/>
</linearGradient>
<linearGradient id="paint9_linear_602_110" x1="3.83333" y1="13" x2="22.1667" y2="13" gradientUnits="userSpaceOnUse">
<stop stop-color="#25C5DA"/>
<stop offset="0.24" stop-color="#25AFDA"/>
</linearGradient>
<linearGradient id="paint10_linear_602_110" x1="3.83333" y1="13" x2="22.1667" y2="13" gradientUnits="userSpaceOnUse">
<stop stop-color="#3BD7DD"/>
<stop offset="0.24" stop-color="#25AFDA"/>
</linearGradient>
<linearGradient id="paint11_linear_602_110" x1="13" y1="3.83331" x2="13" y2="22.1666" gradientUnits="userSpaceOnUse">
<stop stop-color="white"/>
<stop offset="1" stop-color="white" stop-opacity="0"/>
</linearGradient>
<linearGradient id="paint12_linear_602_110" x1="13" y1="3.83331" x2="13" y2="22.1666" gradientUnits="userSpaceOnUse">
<stop stop-color="#F8D362"/>
<stop offset="1" stop-color="#F8D362" stop-opacity="0"/>
</linearGradient>
<linearGradient id="paint13_linear_602_110" x1="22.1667" y1="3.83331" x2="3.67127" y2="3.99829" gradientUnits="userSpaceOnUse">
<stop stop-color="#FFBFDF"/>
<stop offset="1" stop-color="white" stop-opacity="0"/>
</linearGradient>
<linearGradient id="paint14_linear_602_110" x1="22.1667" y1="3.83331" x2="3.67127" y2="3.99829" gradientUnits="userSpaceOnUse">
<stop stop-color="#FF5BAD"/>
<stop offset="1" stop-color="white" stop-opacity="0"/>
</linearGradient>
<linearGradient id="paint15_linear_602_110" x1="3.83333" y1="5.24875" x2="22.3047" y2="5.40079" gradientUnits="userSpaceOnUse">
<stop stop-color="white" stop-opacity="0"/>
<stop offset="1" stop-color="#FF5BAD"/>
</linearGradient>
<linearGradient id="paint16_linear_602_110" x1="13" y1="3.83331" x2="13" y2="22.1666" gradientUnits="userSpaceOnUse">
<stop stop-color="#AAAAAA"/>
<stop offset="1"/>
</linearGradient>
<linearGradient id="paint17_linear_602_110" x1="3.83333" y1="13" x2="22.1667" y2="13" gradientUnits="userSpaceOnUse">
<stop stop-color="#25C5DA"/>
<stop offset="0.24" stop-color="#25AFDA"/>
</linearGradient>
<linearGradient id="paint18_linear_602_110" x1="3.83333" y1="13" x2="22.1667" y2="13" gradientUnits="userSpaceOnUse">
<stop stop-color="#3BD7DD"/>
<stop offset="0.24" stop-color="#25AFDA"/>
</linearGradient>
<linearGradient id="paint19_linear_602_110" x1="13" y1="3.83331" x2="13" y2="22.1666" gradientUnits="userSpaceOnUse">
<stop stop-color="white"/>
<stop offset="1" stop-color="white" stop-opacity="0"/>
</linearGradient>
<linearGradient id="paint20_linear_602_110" x1="13" y1="3.83331" x2="13" y2="22.1666" gradientUnits="userSpaceOnUse">
<stop stop-color="#F8D362"/>
<stop offset="1" stop-color="#F8D362" stop-opacity="0"/>
</linearGradient>
<linearGradient id="paint21_linear_602_110" x1="22.1667" y1="3.83331" x2="3.67127" y2="3.99829" gradientUnits="userSpaceOnUse">
<stop stop-color="#FFBFDF"/>
<stop offset="1" stop-color="white" stop-opacity="0"/>
</linearGradient>
<linearGradient id="paint22_linear_602_110" x1="22.1667" y1="3.83331" x2="3.67127" y2="3.99829" gradientUnits="userSpaceOnUse">
<stop stop-color="#FF5BAD"/>
<stop offset="1" stop-color="white" stop-opacity="0"/>
</linearGradient>
<linearGradient id="paint23_linear_602_110" x1="3.83333" y1="5.24875" x2="22.3047" y2="5.40079" gradientUnits="userSpaceOnUse">
<stop stop-color="white" stop-opacity="0"/>
<stop offset="1" stop-color="#FF5BAD"/>
</linearGradient>
<linearGradient id="paint24_linear_602_110" x1="13" y1="3.83331" x2="13" y2="22.1666" gradientUnits="userSpaceOnUse">
<stop stop-color="#AAAAAA"/>
<stop offset="1"/>
</linearGradient>
<linearGradient id="paint25_linear_602_110" x1="3.83333" y1="13" x2="22.1667" y2="13" gradientUnits="userSpaceOnUse">
<stop stop-color="#25C5DA"/>
<stop offset="0.24" stop-color="#25AFDA"/>
</linearGradient>
<linearGradient id="paint26_linear_602_110" x1="3.83333" y1="13" x2="22.1667" y2="13" gradientUnits="userSpaceOnUse">
<stop stop-color="#3BD7DD"/>
<stop offset="0.24" stop-color="#25AFDA"/>
</linearGradient>
<linearGradient id="paint27_linear_602_110" x1="13" y1="3.83331" x2="13" y2="22.1666" gradientUnits="userSpaceOnUse">
<stop stop-color="white"/>
<stop offset="1" stop-color="white" stop-opacity="0"/>
</linearGradient>
<linearGradient id="paint28_linear_602_110" x1="13" y1="3.83331" x2="13" y2="22.1666" gradientUnits="userSpaceOnUse">
<stop stop-color="#F8D362"/>
<stop offset="1" stop-color="#F8D362" stop-opacity="0"/>
</linearGradient>
<linearGradient id="paint29_linear_602_110" x1="22.1667" y1="3.83331" x2="3.67127" y2="3.99829" gradientUnits="userSpaceOnUse">
<stop stop-color="#FFBFDF"/>
<stop offset="1" stop-color="white" stop-opacity="0"/>
</linearGradient>
<linearGradient id="paint30_linear_602_110" x1="22.1667" y1="3.83331" x2="3.67127" y2="3.99829" gradientUnits="userSpaceOnUse">
<stop stop-color="#FF5BAD"/>
<stop offset="1" stop-color="white" stop-opacity="0"/>
</linearGradient>
<linearGradient id="paint31_linear_602_110" x1="3.83333" y1="5.24875" x2="22.3047" y2="5.40079" gradientUnits="userSpaceOnUse">
<stop stop-color="white" stop-opacity="0"/>
<stop offset="1" stop-color="#FF5BAD"/>
</linearGradient>
</defs>
</svg>
