<svg width="19" height="19" viewBox="0 0 19 19" fill="none" xmlns="http://www.w3.org/2000/svg">
<g clip-path="url(#clip0_83_33505)">
<path d="M9.5 0.296875C4.41973 0.296875 0.296875 4.41973 0.296875 9.5C0.296875 14.5803 4.41973 18.7031 9.5 18.7031C14.5803 18.7031 18.7031 14.5803 18.7031 9.5C18.7031 4.41973 14.5803 0.296875 9.5 0.296875ZM13.2369 13.8381C13.0811 13.8381 12.9846 13.7898 12.8398 13.7045C10.5242 12.3092 7.83008 12.2498 5.16934 12.7953C5.02461 12.8324 4.83535 12.8918 4.72773 12.8918C4.36777 12.8918 4.14141 12.6061 4.14141 12.3055C4.14141 11.9232 4.36777 11.7414 4.64609 11.682C7.68535 11.0104 10.7914 11.0697 13.441 12.6543C13.6674 12.799 13.801 12.9289 13.801 13.2666C13.801 13.6043 13.5375 13.8381 13.2369 13.8381ZM14.2352 11.4037C14.0422 11.4037 13.9123 11.3184 13.7787 11.2479C11.4594 9.8748 8.00078 9.32188 4.92441 10.1568C4.74629 10.2051 4.6498 10.2533 4.48281 10.2533C4.08574 10.2533 3.76289 9.93047 3.76289 9.5334C3.76289 9.13633 3.95586 8.87285 4.33809 8.76523C5.36973 8.47578 6.42363 8.26055 7.96738 8.26055C10.3758 8.26055 12.7025 8.85801 14.5357 9.94902C14.8363 10.1271 14.9551 10.3572 14.9551 10.6801C14.9514 11.0809 14.6396 11.4037 14.2352 11.4037ZM15.3855 8.57598C15.1926 8.57598 15.0738 8.52773 14.9068 8.43125C12.2646 6.8541 7.54063 6.47559 4.48281 7.3291C4.34922 7.36621 4.18223 7.42559 4.0041 7.42559C3.51426 7.42559 3.13945 7.04336 3.13945 6.5498C3.13945 6.04512 3.45117 5.75938 3.78516 5.66289C5.09141 5.28066 6.55352 5.09883 8.14551 5.09883C10.8545 5.09883 13.6934 5.66289 15.7678 6.87266C16.0572 7.03965 16.2465 7.26973 16.2465 7.71133C16.2465 8.21602 15.8383 8.57598 15.3855 8.57598Z" fill="white"/>
</g>
<defs>
<clipPath id="clip0_83_33505">
<rect width="19" height="19" fill="white"/>
</clipPath>
</defs>
</svg>
