<svg width="15" height="13" viewBox="0 0 15 13" fill="none" xmlns="http://www.w3.org/2000/svg">
<path fill-rule="evenodd" clip-rule="evenodd" d="M5.99973 1.41095C5.99971 1.01642 5.56415 0.777321 5.23129 0.989134L1.11951 3.60566C0.822018 3.79496 0.808683 4.22446 1.09386 4.43186L5.20582 7.42238C5.53631 7.66273 5.99992 7.42664 5.99991 7.01799L5.99984 5.00016H9.9997C11.6565 5.00016 12.9997 6.34331 12.9997 8.00016C12.9997 9.65702 11.6565 11.0002 9.9997 11.0002H6.9997C6.44741 11.0002 5.9997 11.4479 5.9997 12.0002C5.9997 12.5524 6.44741 13.0002 6.9997 13.0002H9.9997C12.7611 13.0002 14.9997 10.7616 14.9997 8.00016C14.9997 5.23874 12.7611 3.00016 9.9997 3.00016H5.99978L5.99973 1.41095Z" fill="white"/>
</svg>
