<svg width="100" height="116" viewBox="0 0 100 116" fill="none" xmlns="http://www.w3.org/2000/svg">
<path fill-rule="evenodd" clip-rule="evenodd" d="M64.9617 4.91373C62.2129 5.52517 59.877 6.92063 58.3327 8.72309C57.2088 10.0348 56.4873 11.5879 56.3717 13.2093C56.2456 13.4004 56.1942 13.6403 56.2478 13.8814L56.4917 14.9777C56.4968 15.0019 56.502 15.026 56.5074 15.0502C56.5127 15.0743 56.5183 15.0984 56.5239 15.1224L63.6824 47.3049C59.6168 42.1644 52.8345 39.5034 46.008 41.0219C36.4994 43.1369 30.5058 52.5596 32.6209 62.0682C34.7359 71.5767 44.1586 77.5703 53.6672 75.4553C63.1616 73.3434 69.1515 63.9455 67.0637 54.4514C67.0612 54.4369 67.0584 54.4224 67.0551 54.4079L59.188 19.0399C59.6931 19.415 60.2492 19.7386 60.8426 20.0069C63.0054 20.9848 65.7125 21.2585 68.4614 20.6471C71.2102 20.0356 73.5461 18.6402 75.0904 16.8377C76.635 15.035 77.4197 12.7762 76.9157 10.5106C76.4118 8.24504 74.7436 6.53187 72.5805 5.55387C70.4177 4.576 67.7106 4.30229 64.9617 4.91373ZM58.2296 14.7312C58.6038 16.3111 59.8006 17.6153 61.5636 18.4123C63.3494 19.2198 65.6665 19.476 68.0814 18.9388C70.4964 18.4016 72.4863 17.1874 73.7615 15.6991C75.0365 14.211 75.565 12.4979 75.2075 10.8906C74.85 9.28327 73.6451 7.95575 71.8596 7.14845C70.0737 6.34102 67.7567 6.0848 65.3417 6.62198C62.9268 7.15915 60.9368 8.3734 59.6616 9.86171C58.4028 11.3309 57.8716 13.0195 58.2025 14.609L58.2296 14.7312ZM39.2492 10.6337C12.958 16.4817 -3.61442 42.5358 2.23367 68.827C8.08177 95.1182 34.1358 111.691 60.427 105.842C86.7182 99.9944 103.291 73.9403 97.4425 47.6491C96.0071 41.1963 93.3535 35.3268 89.777 30.2309C88.8564 28.9192 87.8748 27.6589 86.8372 26.4532C86.522 26.0869 85.9695 26.0456 85.6032 26.3608C85.2369 26.676 85.1956 27.2285 85.5108 27.5948C86.511 28.757 87.4572 29.9719 88.3446 31.2362C91.7913 36.1472 94.3497 41.8047 95.7342 48.0291C101.372 73.3769 85.3948 98.496 60.047 104.134C34.6993 109.772 9.58016 93.7947 3.94192 68.447C-1.69632 43.0992 14.2814 17.9801 39.6291 12.3419C40.1009 12.237 40.3982 11.7695 40.2933 11.2978C40.1884 10.8261 39.7209 10.5287 39.2492 10.6337ZM46.388 42.7301C37.8228 44.6353 32.4239 53.1231 34.3291 61.6882C36.2343 70.2533 44.7221 75.6522 53.2872 73.747C61.8523 71.8419 67.2512 63.3541 65.3461 54.7889C63.4409 46.2238 54.9531 40.8249 46.388 42.7301Z" fill="url(#paint0_linear_203_499)"/>
<path fill-rule="evenodd" clip-rule="evenodd" d="M64.9617 4.91373C62.2129 5.52517 59.877 6.92063 58.3327 8.72309C57.2088 10.0348 56.4873 11.5879 56.3717 13.2093C56.2456 13.4004 56.1942 13.6403 56.2478 13.8814L56.4917 14.9777C56.4968 15.0019 56.502 15.026 56.5074 15.0502C56.5127 15.0743 56.5183 15.0984 56.5239 15.1224L63.6824 47.3049C59.6168 42.1644 52.8345 39.5034 46.008 41.0219C36.4994 43.1369 30.5058 52.5596 32.6209 62.0682C34.7359 71.5767 44.1586 77.5703 53.6672 75.4553C63.1616 73.3434 69.1515 63.9455 67.0637 54.4514C67.0612 54.4369 67.0584 54.4224 67.0551 54.4079L59.188 19.0399C59.6931 19.415 60.2492 19.7386 60.8426 20.0069C63.0054 20.9848 65.7125 21.2585 68.4614 20.6471C71.2102 20.0356 73.5461 18.6402 75.0904 16.8377C76.635 15.035 77.4197 12.7762 76.9157 10.5106C76.4118 8.24504 74.7436 6.53187 72.5805 5.55387C70.4177 4.576 67.7106 4.30229 64.9617 4.91373ZM58.2296 14.7312C58.6038 16.3111 59.8006 17.6153 61.5636 18.4123C63.3494 19.2198 65.6665 19.476 68.0814 18.9388C70.4964 18.4016 72.4863 17.1874 73.7615 15.6991C75.0365 14.211 75.565 12.4979 75.2075 10.8906C74.85 9.28327 73.6451 7.95575 71.8596 7.14845C70.0737 6.34102 67.7567 6.0848 65.3417 6.62198C62.9268 7.15915 60.9368 8.3734 59.6616 9.86171C58.4028 11.3309 57.8716 13.0195 58.2025 14.609L58.2296 14.7312ZM39.2492 10.6337C12.958 16.4817 -3.61442 42.5358 2.23367 68.827C8.08177 95.1182 34.1358 111.691 60.427 105.842C86.7182 99.9944 103.291 73.9403 97.4425 47.6491C96.0071 41.1963 93.3535 35.3268 89.777 30.2309C88.8564 28.9192 87.8748 27.6589 86.8372 26.4532C86.522 26.0869 85.9695 26.0456 85.6032 26.3608C85.2369 26.676 85.1956 27.2285 85.5108 27.5948C86.511 28.757 87.4572 29.9719 88.3446 31.2362C91.7913 36.1472 94.3497 41.8047 95.7342 48.0291C101.372 73.3769 85.3948 98.496 60.047 104.134C34.6993 109.772 9.58016 93.7947 3.94192 68.447C-1.69632 43.0992 14.2814 17.9801 39.6291 12.3419C40.1009 12.237 40.3982 11.7695 40.2933 11.2978C40.1884 10.8261 39.7209 10.5287 39.2492 10.6337ZM46.388 42.7301C37.8228 44.6353 32.4239 53.1231 34.3291 61.6882C36.2343 70.2533 44.7221 75.6522 53.2872 73.747C61.8523 71.8419 67.2512 63.3541 65.3461 54.7889C63.4409 46.2238 54.9531 40.8249 46.388 42.7301Z" fill="url(#paint1_linear_203_499)" fill-opacity="0.4"/>
<defs>
<linearGradient id="paint0_linear_203_499" x1="39.2491" y1="10.6331" x2="60.427" y2="105.842" gradientUnits="userSpaceOnUse">
<stop stop-color="#FFD0F7"/>
<stop offset="0.25" stop-color="#E1C7FF"/>
<stop offset="0.5" stop-color="#C1C3F9"/>
<stop offset="0.75" stop-color="#94BDF1"/>
<stop offset="1" stop-color="#67BBEA"/>
</linearGradient>
<linearGradient id="paint1_linear_203_499" x1="39.2491" y1="10.6331" x2="60.427" y2="105.842" gradientUnits="userSpaceOnUse">
<stop stop-color="white" stop-opacity="0.75"/>
<stop offset="1" stop-color="white" stop-opacity="0.5"/>
</linearGradient>
</defs>
</svg>
