<svg width="20" height="20" viewBox="0 0 20 20" fill="none" xmlns="http://www.w3.org/2000/svg">
<path d="M18.2144 1.07129H1.78582C1.39073 1.07129 1.07153 1.39049 1.07153 1.78557V18.2141C1.07153 18.6092 1.39073 18.9284 1.78582 18.9284H18.2144C18.6095 18.9284 18.9287 18.6092 18.9287 18.2141V1.78557C18.9287 1.39049 18.6095 1.07129 18.2144 1.07129ZM6.36841 16.2878H3.71885V7.76549H6.36841V16.2878ZM5.04475 6.60031C4.74101 6.60031 4.4441 6.51024 4.19155 6.34149C3.939 6.17275 3.74217 5.9329 3.62593 5.65228C3.5097 5.37167 3.47929 5.06289 3.53854 4.76499C3.5978 4.46709 3.74406 4.19345 3.95883 3.97868C4.17361 3.76391 4.44725 3.61764 4.74514 3.55839C5.04304 3.49913 5.35182 3.52954 5.63244 3.64578C5.91305 3.76201 6.1529 3.95885 6.32165 4.2114C6.49039 4.46394 6.58046 4.76086 6.58046 5.06459C6.57823 5.91281 5.89073 6.60031 5.04475 6.60031ZM16.2881 16.2878H13.6407V12.1427C13.6407 11.1539 13.6229 9.88379 12.2635 9.88379C10.8863 9.88379 10.6742 10.9597 10.6742 12.0713V16.2878H8.02912V7.76549H10.5693V8.93066H10.605C10.9577 8.26102 11.8215 7.55343 13.1117 7.55343C15.7947 7.55343 16.2881 9.31906 16.2881 11.6137V16.2878Z" fill="white"/>
</svg>
