<svg width="52" height="52" viewBox="0 0 52 52" fill="none" xmlns="http://www.w3.org/2000/svg">
<path fill-rule="evenodd" clip-rule="evenodd" d="M26 51.25C12.0548 51.25 0.75 39.9452 0.75 26C0.75 12.0548 12.0548 0.75 26 0.75C39.9452 0.75 51.25 12.0548 51.25 26C51.25 39.9452 39.9452 51.25 26 51.25ZM0 26C0 11.6406 11.6406 0 26 0C40.3594 0 52 11.6406 52 26C52 40.3594 40.3594 52 26 52C11.6406 52 0 40.3594 0 26ZM26 3C13.2975 3 3 13.2975 3 26C3 38.7025 13.2975 49 26 49C38.7025 49 49 38.7025 49 26C49 13.2975 38.7025 3 26 3Z" fill="url(#paint0_linear_311_397)"/>
<path fill-rule="evenodd" clip-rule="evenodd" d="M26 51.25C12.0548 51.25 0.75 39.9452 0.75 26C0.75 12.0548 12.0548 0.75 26 0.75C39.9452 0.75 51.25 12.0548 51.25 26C51.25 39.9452 39.9452 51.25 26 51.25ZM0 26C0 11.6406 11.6406 0 26 0C40.3594 0 52 11.6406 52 26C52 40.3594 40.3594 52 26 52C11.6406 52 0 40.3594 0 26ZM26 3C13.2975 3 3 13.2975 3 26C3 38.7025 13.2975 49 26 49C38.7025 49 49 38.7025 49 26C49 13.2975 38.7025 3 26 3Z" fill="url(#paint1_linear_311_397)"/>
<path fill-rule="evenodd" clip-rule="evenodd" d="M26 51.25C12.0548 51.25 0.75 39.9452 0.75 26C0.75 12.0548 12.0548 0.75 26 0.75C39.9452 0.75 51.25 12.0548 51.25 26C51.25 39.9452 39.9452 51.25 26 51.25ZM0 26C0 11.6406 11.6406 0 26 0C40.3594 0 52 11.6406 52 26C52 40.3594 40.3594 52 26 52C11.6406 52 0 40.3594 0 26ZM26 3C13.2975 3 3 13.2975 3 26C3 38.7025 13.2975 49 26 49C38.7025 49 49 38.7025 49 26C49 13.2975 38.7025 3 26 3Z" fill="url(#paint2_linear_311_397)" style="mix-blend-mode:lighten"/>
<path fill-rule="evenodd" clip-rule="evenodd" d="M26 51.25C12.0548 51.25 0.75 39.9452 0.75 26C0.75 12.0548 12.0548 0.75 26 0.75C39.9452 0.75 51.25 12.0548 51.25 26C51.25 39.9452 39.9452 51.25 26 51.25ZM0 26C0 11.6406 11.6406 0 26 0C40.3594 0 52 11.6406 52 26C52 40.3594 40.3594 52 26 52C11.6406 52 0 40.3594 0 26ZM26 3C13.2975 3 3 13.2975 3 26C3 38.7025 13.2975 49 26 49C38.7025 49 49 38.7025 49 26C49 13.2975 38.7025 3 26 3Z" fill="url(#paint3_linear_311_397)" fill-opacity="0.19"/>
<path fill-rule="evenodd" clip-rule="evenodd" d="M26 51.25C12.0548 51.25 0.75 39.9452 0.75 26C0.75 12.0548 12.0548 0.75 26 0.75C39.9452 0.75 51.25 12.0548 51.25 26C51.25 39.9452 39.9452 51.25 26 51.25ZM0 26C0 11.6406 11.6406 0 26 0C40.3594 0 52 11.6406 52 26C52 40.3594 40.3594 52 26 52C11.6406 52 0 40.3594 0 26ZM26 3C13.2975 3 3 13.2975 3 26C3 38.7025 13.2975 49 26 49C38.7025 49 49 38.7025 49 26C49 13.2975 38.7025 3 26 3Z" fill="url(#paint4_linear_311_397)" fill-opacity="0.8334" style="mix-blend-mode:overlay"/>
<path fill-rule="evenodd" clip-rule="evenodd" d="M26 51.25C12.0548 51.25 0.75 39.9452 0.75 26C0.75 12.0548 12.0548 0.75 26 0.75C39.9452 0.75 51.25 12.0548 51.25 26C51.25 39.9452 39.9452 51.25 26 51.25ZM0 26C0 11.6406 11.6406 0 26 0C40.3594 0 52 11.6406 52 26C52 40.3594 40.3594 52 26 52C11.6406 52 0 40.3594 0 26ZM26 3C13.2975 3 3 13.2975 3 26C3 38.7025 13.2975 49 26 49C38.7025 49 49 38.7025 49 26C49 13.2975 38.7025 3 26 3Z" fill="url(#paint5_linear_311_397)" fill-opacity="0.21" style="mix-blend-mode:overlay"/>
<path fill-rule="evenodd" clip-rule="evenodd" d="M26 51.25C12.0548 51.25 0.75 39.9452 0.75 26C0.75 12.0548 12.0548 0.75 26 0.75C39.9452 0.75 51.25 12.0548 51.25 26C51.25 39.9452 39.9452 51.25 26 51.25ZM0 26C0 11.6406 11.6406 0 26 0C40.3594 0 52 11.6406 52 26C52 40.3594 40.3594 52 26 52C11.6406 52 0 40.3594 0 26ZM26 3C13.2975 3 3 13.2975 3 26C3 38.7025 13.2975 49 26 49C38.7025 49 49 38.7025 49 26C49 13.2975 38.7025 3 26 3Z" fill="url(#paint6_linear_311_397)" fill-opacity="0.37"/>
<path fill-rule="evenodd" clip-rule="evenodd" d="M26 51.25C12.0548 51.25 0.75 39.9452 0.75 26C0.75 12.0548 12.0548 0.75 26 0.75C39.9452 0.75 51.25 12.0548 51.25 26C51.25 39.9452 39.9452 51.25 26 51.25ZM0 26C0 11.6406 11.6406 0 26 0C40.3594 0 52 11.6406 52 26C52 40.3594 40.3594 52 26 52C11.6406 52 0 40.3594 0 26ZM26 3C13.2975 3 3 13.2975 3 26C3 38.7025 13.2975 49 26 49C38.7025 49 49 38.7025 49 26C49 13.2975 38.7025 3 26 3Z" fill="url(#paint7_linear_311_397)" fill-opacity="0.2"/>
<path fill-rule="evenodd" clip-rule="evenodd" d="M16.88 16.88H24.12V24.12H16.88V16.88ZM16 16H16.88H24.12H25V16.88V24.12V25H24.12H16.88H16V24.12V16.88V16ZM27.88 16.88H35.12V24.12H27.88V16.88ZM27 16H27.88H35.12H36V16.88V24.12V25H35.12H27.88H27V24.12V16.88V16ZM24.12 27.88H16.88V35.12H24.12V27.88ZM16.88 27H16V27.88V35.12V36H16.88H24.12H25V35.12V27.88V27H24.12H16.88ZM27.88 27.88H35.12V35.12H27.88V27.88ZM27 27H27.88H35.12H36V27.88V35.12V36H35.12H27.88H27V35.12V27.88V27Z" fill="url(#paint8_linear_311_397)"/>
<defs>
<linearGradient id="paint0_linear_311_397" x1="26" y1="0" x2="26" y2="52" gradientUnits="userSpaceOnUse">
<stop stop-color="#AAAAAA"/>
<stop offset="1"/>
</linearGradient>
<linearGradient id="paint1_linear_311_397" x1="0" y1="26" x2="52" y2="26" gradientUnits="userSpaceOnUse">
<stop stop-color="#25C5DA"/>
<stop offset="0.24" stop-color="#25AFDA"/>
</linearGradient>
<linearGradient id="paint2_linear_311_397" x1="0" y1="26" x2="52" y2="26" gradientUnits="userSpaceOnUse">
<stop stop-color="#3BD7DD"/>
<stop offset="0.24" stop-color="#25AFDA"/>
</linearGradient>
<linearGradient id="paint3_linear_311_397" x1="26" y1="0" x2="26" y2="52" gradientUnits="userSpaceOnUse">
<stop stop-color="white"/>
<stop offset="1" stop-color="white" stop-opacity="0"/>
</linearGradient>
<linearGradient id="paint4_linear_311_397" x1="26" y1="0" x2="26" y2="52" gradientUnits="userSpaceOnUse">
<stop stop-color="#F8D362"/>
<stop offset="1" stop-color="#F8D362" stop-opacity="0"/>
</linearGradient>
<linearGradient id="paint5_linear_311_397" x1="52" y1="3.09944e-06" x2="-0.459655" y2="0.46793" gradientUnits="userSpaceOnUse">
<stop stop-color="#FFBFDF"/>
<stop offset="1" stop-color="white" stop-opacity="0"/>
</linearGradient>
<linearGradient id="paint6_linear_311_397" x1="52" y1="3.09944e-06" x2="-0.459655" y2="0.46793" gradientUnits="userSpaceOnUse">
<stop stop-color="#FF5BAD"/>
<stop offset="1" stop-color="white" stop-opacity="0"/>
</linearGradient>
<linearGradient id="paint7_linear_311_397" x1="-6.36199e-09" y1="4.01471" x2="52.3914" y2="4.44594" gradientUnits="userSpaceOnUse">
<stop stop-color="white" stop-opacity="0"/>
<stop offset="1" stop-color="#FF5BAD"/>
</linearGradient>
<linearGradient id="paint8_linear_311_397" x1="26" y1="16" x2="26" y2="36" gradientUnits="userSpaceOnUse">
<stop stop-color="white"/>
<stop offset="1" stop-color="white" stop-opacity="0.68"/>
</linearGradient>
</defs>
</svg>
