<svg width="52" height="52" viewBox="0 0 52 52" fill="none" xmlns="http://www.w3.org/2000/svg">
<path fill-rule="evenodd" clip-rule="evenodd" d="M1 26C1 39.8071 12.1929 51 26 51C39.8071 51 51 39.8071 51 26C51 12.1929 39.8071 1 26 1C12.1929 1 1 12.1929 1 26ZM26 0C11.6406 0 0 11.6406 0 26C0 40.3594 11.6406 52 26 52C40.3594 52 52 40.3594 52 26C52 11.6406 40.3594 0 26 0ZM24 18H18V24H24V18ZM18 17H17V18V24V25H18H24H25V24V18V17H24H18ZM28 18H34V24H28V18ZM27 17H28H34H35V18V24V25H34H28H27V24V18V17ZM24 28H18V34H24V28ZM18 27H17V28V34V35H18H24H25V34V28V27H24H18ZM28 28H34V34H28V28ZM27 27H28H34H35V28V34V35H34H28H27V34V28V27Z" fill="#25C5DA"/>
<path fill-rule="evenodd" clip-rule="evenodd" d="M1 26C1 39.8071 12.1929 51 26 51C39.8071 51 51 39.8071 51 26C51 12.1929 39.8071 1 26 1C12.1929 1 1 12.1929 1 26ZM26 0C11.6406 0 0 11.6406 0 26C0 40.3594 11.6406 52 26 52C40.3594 52 52 40.3594 52 26C52 11.6406 40.3594 0 26 0ZM24 18H18V24H24V18ZM18 17H17V18V24V25H18H24H25V24V18V17H24H18ZM28 18H34V24H28V18ZM27 17H28H34H35V18V24V25H34H28H27V24V18V17ZM24 28H18V34H24V28ZM18 27H17V28V34V35H18H24H25V34V28V27H24H18ZM28 28H34V34H28V28ZM27 27H28H34H35V28V34V35H34H28H27V34V28V27Z" fill="url(#paint0_linear_305_363)" fill-opacity="0.19"/>
<path fill-rule="evenodd" clip-rule="evenodd" d="M1 26C1 39.8071 12.1929 51 26 51C39.8071 51 51 39.8071 51 26C51 12.1929 39.8071 1 26 1C12.1929 1 1 12.1929 1 26ZM26 0C11.6406 0 0 11.6406 0 26C0 40.3594 11.6406 52 26 52C40.3594 52 52 40.3594 52 26C52 11.6406 40.3594 0 26 0ZM24 18H18V24H24V18ZM18 17H17V18V24V25H18H24H25V24V18V17H24H18ZM28 18H34V24H28V18ZM27 17H28H34H35V18V24V25H34H28H27V24V18V17ZM24 28H18V34H24V28ZM18 27H17V28V34V35H18H24H25V34V28V27H24H18ZM28 28H34V34H28V28ZM27 27H28H34H35V28V34V35H34H28H27V34V28V27Z" fill="url(#paint1_linear_305_363)" fill-opacity="0.8334" style="mix-blend-mode:overlay"/>
<defs>
<linearGradient id="paint0_linear_305_363" x1="26" y1="0" x2="26" y2="52" gradientUnits="userSpaceOnUse">
<stop stop-color="white"/>
<stop offset="1" stop-color="white" stop-opacity="0"/>
</linearGradient>
<linearGradient id="paint1_linear_305_363" x1="26" y1="0" x2="26" y2="52" gradientUnits="userSpaceOnUse">
<stop stop-color="#F8D362"/>
<stop offset="1" stop-color="#F8D362" stop-opacity="0"/>
</linearGradient>
</defs>
</svg>
