<svg width="13" height="13" viewBox="0 0 13 13" fill="none" xmlns="http://www.w3.org/2000/svg">
<g clip-path="url(#clip0_460_294)">
<mask id="mask0_460_294" style="mask-type:luminance" maskUnits="userSpaceOnUse" x="0" y="0" width="13" height="13">
<path d="M13 0H0V13H13V0Z" fill="white"/>
</mask>
<g mask="url(#mask0_460_294)">
<path d="M12.3045 7.7764L7.78112 12.2998C7.54447 12.5368 7.22332 12.6699 6.88842 12.6699C6.55353 12.6699 6.23241 12.5368 5.99572 12.2998L0.328613 6.63902V0.3302H6.63744L12.3045 5.99731C12.7938 6.48944 12.7938 7.28428 12.3045 7.7764Z" stroke="url(#paint0_linear_460_294)" stroke-width="0.916667" stroke-linejoin="round"/>
<path d="M12.3045 7.7764L7.78112 12.2998C7.54447 12.5368 7.22332 12.6699 6.88842 12.6699C6.55353 12.6699 6.23241 12.5368 5.99572 12.2998L0.328613 6.63902V0.3302H6.63744L12.3045 5.99731C12.7938 6.48944 12.7938 7.28428 12.3045 7.7764Z" stroke="url(#paint1_linear_460_294)" stroke-width="0.916667" stroke-linejoin="round"/>
<path d="M12.3045 7.7764L7.78112 12.2998C7.54447 12.5368 7.22332 12.6699 6.88842 12.6699C6.55353 12.6699 6.23241 12.5368 5.99572 12.2998L0.328613 6.63902V0.3302H6.63744L12.3045 5.99731C12.7938 6.48944 12.7938 7.28428 12.3045 7.7764Z" stroke="url(#paint2_linear_460_294)" stroke-width="0.916667" stroke-linejoin="round" style="mix-blend-mode:lighten"/>
<path d="M12.3045 7.7764L7.78112 12.2998C7.54447 12.5368 7.22332 12.6699 6.88842 12.6699C6.55353 12.6699 6.23241 12.5368 5.99572 12.2998L0.328613 6.63902V0.3302H6.63744L12.3045 5.99731C12.7938 6.48944 12.7938 7.28428 12.3045 7.7764Z" stroke="url(#paint3_linear_460_294)" stroke-opacity="0.19" stroke-width="0.916667" stroke-linejoin="round"/>
<path d="M12.3045 7.7764L7.78112 12.2998C7.54447 12.5368 7.22332 12.6699 6.88842 12.6699C6.55353 12.6699 6.23241 12.5368 5.99572 12.2998L0.328613 6.63902V0.3302H6.63744L12.3045 5.99731C12.7938 6.48944 12.7938 7.28428 12.3045 7.7764Z" stroke="url(#paint4_linear_460_294)" stroke-opacity="0.8334" stroke-width="0.916667" stroke-linejoin="round" style="mix-blend-mode:overlay"/>
<path d="M12.3045 7.7764L7.78112 12.2998C7.54447 12.5368 7.22332 12.6699 6.88842 12.6699C6.55353 12.6699 6.23241 12.5368 5.99572 12.2998L0.328613 6.63902V0.3302H6.63744L12.3045 5.99731C12.7938 6.48944 12.7938 7.28428 12.3045 7.7764Z" stroke="url(#paint5_linear_460_294)" stroke-opacity="0.21" stroke-width="0.916667" stroke-linejoin="round" style="mix-blend-mode:overlay"/>
<path d="M12.3045 7.7764L7.78112 12.2998C7.54447 12.5368 7.22332 12.6699 6.88842 12.6699C6.55353 12.6699 6.23241 12.5368 5.99572 12.2998L0.328613 6.63902V0.3302H6.63744L12.3045 5.99731C12.7938 6.48944 12.7938 7.28428 12.3045 7.7764Z" stroke="url(#paint6_linear_460_294)" stroke-opacity="0.37" stroke-width="0.916667" stroke-linejoin="round"/>
<path d="M12.3045 7.7764L7.78112 12.2998C7.54447 12.5368 7.22332 12.6699 6.88842 12.6699C6.55353 12.6699 6.23241 12.5368 5.99572 12.2998L0.328613 6.63902V0.3302H6.63744L12.3045 5.99731C12.7938 6.48944 12.7938 7.28428 12.3045 7.7764Z" stroke="url(#paint7_linear_460_294)" stroke-opacity="0.2" stroke-width="0.916667" stroke-linejoin="round"/>
<path fill-rule="evenodd" clip-rule="evenodd" d="M4.00831 4.88636C4.49223 4.88636 4.88453 4.49406 4.88453 4.01014C4.88453 3.52621 4.49223 3.13391 4.00831 3.13391C3.52438 3.13391 3.13208 3.52621 3.13208 4.01014C3.13208 4.49406 3.52438 4.88636 4.00831 4.88636Z" fill="url(#paint8_linear_460_294)"/>
<path fill-rule="evenodd" clip-rule="evenodd" d="M4.00831 4.88636C4.49223 4.88636 4.88453 4.49406 4.88453 4.01014C4.88453 3.52621 4.49223 3.13391 4.00831 3.13391C3.52438 3.13391 3.13208 3.52621 3.13208 4.01014C3.13208 4.49406 3.52438 4.88636 4.00831 4.88636Z" fill="url(#paint9_linear_460_294)"/>
<path fill-rule="evenodd" clip-rule="evenodd" d="M4.00831 4.88636C4.49223 4.88636 4.88453 4.49406 4.88453 4.01014C4.88453 3.52621 4.49223 3.13391 4.00831 3.13391C3.52438 3.13391 3.13208 3.52621 3.13208 4.01014C3.13208 4.49406 3.52438 4.88636 4.00831 4.88636Z" fill="url(#paint10_linear_460_294)" style="mix-blend-mode:lighten"/>
<path fill-rule="evenodd" clip-rule="evenodd" d="M4.00831 4.88636C4.49223 4.88636 4.88453 4.49406 4.88453 4.01014C4.88453 3.52621 4.49223 3.13391 4.00831 3.13391C3.52438 3.13391 3.13208 3.52621 3.13208 4.01014C3.13208 4.49406 3.52438 4.88636 4.00831 4.88636Z" fill="url(#paint11_linear_460_294)" fill-opacity="0.19"/>
<path fill-rule="evenodd" clip-rule="evenodd" d="M4.00831 4.88636C4.49223 4.88636 4.88453 4.49406 4.88453 4.01014C4.88453 3.52621 4.49223 3.13391 4.00831 3.13391C3.52438 3.13391 3.13208 3.52621 3.13208 4.01014C3.13208 4.49406 3.52438 4.88636 4.00831 4.88636Z" fill="url(#paint12_linear_460_294)" fill-opacity="0.8334" style="mix-blend-mode:overlay"/>
<path fill-rule="evenodd" clip-rule="evenodd" d="M4.00831 4.88636C4.49223 4.88636 4.88453 4.49406 4.88453 4.01014C4.88453 3.52621 4.49223 3.13391 4.00831 3.13391C3.52438 3.13391 3.13208 3.52621 3.13208 4.01014C3.13208 4.49406 3.52438 4.88636 4.00831 4.88636Z" fill="url(#paint13_linear_460_294)" fill-opacity="0.21" style="mix-blend-mode:overlay"/>
<path fill-rule="evenodd" clip-rule="evenodd" d="M4.00831 4.88636C4.49223 4.88636 4.88453 4.49406 4.88453 4.01014C4.88453 3.52621 4.49223 3.13391 4.00831 3.13391C3.52438 3.13391 3.13208 3.52621 3.13208 4.01014C3.13208 4.49406 3.52438 4.88636 4.00831 4.88636Z" fill="url(#paint14_linear_460_294)" fill-opacity="0.37"/>
<path fill-rule="evenodd" clip-rule="evenodd" d="M4.00831 4.88636C4.49223 4.88636 4.88453 4.49406 4.88453 4.01014C4.88453 3.52621 4.49223 3.13391 4.00831 3.13391C3.52438 3.13391 3.13208 3.52621 3.13208 4.01014C3.13208 4.49406 3.52438 4.88636 4.00831 4.88636Z" fill="url(#paint15_linear_460_294)" fill-opacity="0.2"/>
</g>
</g>
<defs>
<linearGradient id="paint0_linear_460_294" x1="6.50004" y1="0.3302" x2="6.50004" y2="12.6699" gradientUnits="userSpaceOnUse">
<stop stop-color="#AAAAAA"/>
<stop offset="1"/>
</linearGradient>
<linearGradient id="paint1_linear_460_294" x1="0.328613" y1="6.50005" x2="12.6715" y2="6.50005" gradientUnits="userSpaceOnUse">
<stop stop-color="#25C5DA"/>
<stop offset="0.24" stop-color="#25AFDA"/>
</linearGradient>
<linearGradient id="paint2_linear_460_294" x1="0.328613" y1="6.50005" x2="12.6715" y2="6.50005" gradientUnits="userSpaceOnUse">
<stop stop-color="#3BD7DD"/>
<stop offset="0.24" stop-color="#25AFDA"/>
</linearGradient>
<linearGradient id="paint3_linear_460_294" x1="6.50004" y1="0.3302" x2="6.50004" y2="12.6699" gradientUnits="userSpaceOnUse">
<stop stop-color="white"/>
<stop offset="1" stop-color="white" stop-opacity="0"/>
</linearGradient>
<linearGradient id="paint4_linear_460_294" x1="6.50004" y1="0.3302" x2="6.50004" y2="12.6699" gradientUnits="userSpaceOnUse">
<stop stop-color="#F8D362"/>
<stop offset="1" stop-color="#F8D362" stop-opacity="0"/>
</linearGradient>
<linearGradient id="paint5_linear_460_294" x1="12.6715" y1="0.330201" x2="0.219509" y2="0.441298" gradientUnits="userSpaceOnUse">
<stop stop-color="#FFBFDF"/>
<stop offset="1" stop-color="white" stop-opacity="0"/>
</linearGradient>
<linearGradient id="paint6_linear_460_294" x1="12.6715" y1="0.330201" x2="0.219509" y2="0.441298" gradientUnits="userSpaceOnUse">
<stop stop-color="#FF5BAD"/>
<stop offset="1" stop-color="white" stop-opacity="0"/>
</linearGradient>
<linearGradient id="paint7_linear_460_294" x1="0.328613" y1="1.2829" x2="12.7644" y2="1.38528" gradientUnits="userSpaceOnUse">
<stop stop-color="white" stop-opacity="0"/>
<stop offset="1" stop-color="#FF5BAD"/>
</linearGradient>
<linearGradient id="paint8_linear_460_294" x1="4.00831" y1="3.13391" x2="4.00831" y2="4.88636" gradientUnits="userSpaceOnUse">
<stop stop-color="#AAAAAA"/>
<stop offset="1"/>
</linearGradient>
<linearGradient id="paint9_linear_460_294" x1="3.13208" y1="4.01014" x2="4.88453" y2="4.01014" gradientUnits="userSpaceOnUse">
<stop stop-color="#25C5DA"/>
<stop offset="0.24" stop-color="#25AFDA"/>
</linearGradient>
<linearGradient id="paint10_linear_460_294" x1="3.13208" y1="4.01014" x2="4.88453" y2="4.01014" gradientUnits="userSpaceOnUse">
<stop stop-color="#3BD7DD"/>
<stop offset="0.24" stop-color="#25AFDA"/>
</linearGradient>
<linearGradient id="paint11_linear_460_294" x1="4.00831" y1="3.13391" x2="4.00831" y2="4.88636" gradientUnits="userSpaceOnUse">
<stop stop-color="white"/>
<stop offset="1" stop-color="white" stop-opacity="0"/>
</linearGradient>
<linearGradient id="paint12_linear_460_294" x1="4.00831" y1="3.13391" x2="4.00831" y2="4.88636" gradientUnits="userSpaceOnUse">
<stop stop-color="#F8D362"/>
<stop offset="1" stop-color="#F8D362" stop-opacity="0"/>
</linearGradient>
<linearGradient id="paint13_linear_460_294" x1="4.88453" y1="3.13391" x2="3.11659" y2="3.14968" gradientUnits="userSpaceOnUse">
<stop stop-color="#FFBFDF"/>
<stop offset="1" stop-color="white" stop-opacity="0"/>
</linearGradient>
<linearGradient id="paint14_linear_460_294" x1="4.88453" y1="3.13391" x2="3.11659" y2="3.14968" gradientUnits="userSpaceOnUse">
<stop stop-color="#FF5BAD"/>
<stop offset="1" stop-color="white" stop-opacity="0"/>
</linearGradient>
<linearGradient id="paint15_linear_460_294" x1="3.13208" y1="3.26921" x2="4.89772" y2="3.28374" gradientUnits="userSpaceOnUse">
<stop stop-color="white" stop-opacity="0"/>
<stop offset="1" stop-color="#FF5BAD"/>
</linearGradient>
<clipPath id="clip0_460_294">
<rect width="13" height="13" fill="white"/>
</clipPath>
</defs>
</svg>
