<svg width="24" height="20" viewBox="0 0 24 20" fill="none" xmlns="http://www.w3.org/2000/svg">
<path d="M10.464 6.59606C10.7291 6.59606 10.944 8.7021 10.944 11.3001L10.9427 11.6511C10.9244 14.0851 10.717 16.0041 10.464 16.0041C10.2079 16.0041 9.99871 14.0392 9.98474 11.564L9.98408 11.2117C9.98889 8.6545 10.2019 6.59606 10.464 6.59606ZM8.8 7.55606C9.05863 7.55606 9.26949 9.3561 9.27962 11.6102V11.9499C9.26949 14.204 9.05863 16.0041 8.8 16.0041C8.5446 16.0041 8.33579 14.2488 8.32086 12.0343L8.3201 11.6949L8.32241 11.3544C8.34666 9.2214 8.55123 7.55606 8.8 7.55606ZM7.136 7.55606C7.3914 7.55606 7.60021 9.3114 7.61515 11.5259L7.6159 11.8652L7.61359 12.2057C7.58934 14.3387 7.38477 16.0041 7.136 16.0041C6.87737 16.0041 6.66651 14.204 6.65638 11.9499V11.6102C6.66651 9.3561 6.87737 7.55606 7.136 7.55606ZM5.472 8.1321C5.7371 8.1321 5.952 9.8943 5.952 12.0681L5.95028 12.4033C5.92954 14.4202 5.72333 16.0041 5.472 16.0041C5.21035 16.0041 4.99759 14.2873 4.99211 12.1525V11.9836C4.99759 9.8488 5.21035 8.1321 5.472 8.1321ZM3.808 9.8601C4.0731 9.8601 4.288 11.2354 4.288 12.9321L4.28738 13.0901C4.27452 14.7133 4.06481 16.0041 3.808 16.0041C3.5429 16.0041 3.328 14.6287 3.328 12.9321L3.32862 12.774C3.34148 11.1508 3.55119 9.8601 3.808 9.8601ZM14.592 5.06006C17.1727 5.06006 19.3129 6.94578 19.71 9.4145C20.0053 9.3295 20.3173 9.2841 20.64 9.2841C22.4957 9.2841 24 10.7884 24 12.6441C24 14.4786 22.5297 15.9698 20.7031 16.0035L20.64 16.0041H12.48C12.0558 16.0041 11.712 15.6602 11.712 15.2361V5.93296C12.5358 5.3816 13.5263 5.06006 14.592 5.06006ZM2.144 9.6681C2.4091 9.6681 2.624 11.0005 2.624 12.6441L2.62336 12.7996C2.6103 14.3709 2.40068 15.6201 2.144 15.6201C1.88311 15.6201 1.67084 14.3296 1.66416 12.7221L1.664 12.6441C1.664 11.0005 1.8789 9.6681 2.144 9.6681ZM0.48 10.6281C0.745097 10.6281 0.96 11.5736 0.96 12.7401L0.959091 12.8711C0.943709 13.9765 0.735093 14.8521 0.48 14.8521C0.214903 14.8521 0 13.9065 0 12.7401L0.000909213 12.609C0.0162906 11.5036 0.224907 10.6281 0.48 10.6281Z" fill="white"/>
</svg>
