<svg width="99" height="116" viewBox="0 0 99 116" fill="none" xmlns="http://www.w3.org/2000/svg">
<path fill-rule="evenodd" clip-rule="evenodd" d="M1.61833 16.53C1.66982 16.5339 1.72103 16.5424 1.7713 16.5555L71.2007 33.3143C71.5319 33.3942 71.7866 33.6592 71.8534 33.9933L78.7167 68.3095L82.3501 64.6761C82.6918 64.3344 83.2458 64.3344 83.5875 64.6761L97.9554 79.044C98.2971 79.3857 98.2971 79.9397 97.9554 80.2814L64.4304 113.806C64.0887 114.148 63.5346 114.148 63.1929 113.806L48.8251 99.4386C48.4834 99.0969 48.4834 98.5428 48.8251 98.2011L52.458 94.5683L18.1417 87.705C17.8076 87.6382 17.5427 87.3835 17.4627 87.0523L0.703881 17.6229C0.690841 17.5726 0.68234 17.5214 0.678377 17.4699C0.659453 17.224 0.744015 16.9717 0.932063 16.7836C1.087 16.6287 1.28558 16.544 1.48823 16.5296C1.53133 16.5265 1.57482 16.5266 1.61833 16.53ZM36.6697 53.7587L3.13105 20.2201L19.0328 86.0986L53.9452 93.081L77.2295 69.7968L70.247 34.8843L4.36848 18.9826L37.9072 52.5213C39.728 50.9812 42.0827 50.0527 44.6542 50.0527C50.4276 50.0527 55.1078 54.7329 55.1078 60.5062C55.1078 66.2796 50.4276 70.9598 44.6542 70.9598C38.8809 70.9598 34.2006 66.2796 34.2006 60.5062C34.2006 57.9345 35.1293 55.5796 36.6697 53.7587ZM38.4673 54.3846C36.9114 55.957 35.9506 58.1194 35.9506 60.5062C35.9506 65.3131 39.8474 69.2098 44.6542 69.2098C49.4611 69.2098 53.3578 65.3131 53.3578 60.5062C53.3578 55.6994 49.4611 51.8027 44.6542 51.8027C42.2676 51.8027 40.1053 52.7633 38.533 54.3189C38.5227 54.3304 38.512 54.3416 38.501 54.3526C38.49 54.3636 38.4788 54.3743 38.4673 54.3846ZM54.8405 94.6606L54.8516 94.6497L78.7981 70.7032L78.8092 70.6919L82.9688 66.5323L96.0992 79.6627L63.8117 111.95L50.6812 98.8199L54.8405 94.6606Z" fill="url(#paint0_linear_203_493)"/>
<path fill-rule="evenodd" clip-rule="evenodd" d="M1.61833 16.53C1.66982 16.5339 1.72103 16.5424 1.7713 16.5555L71.2007 33.3143C71.5319 33.3942 71.7866 33.6592 71.8534 33.9933L78.7167 68.3095L82.3501 64.6761C82.6918 64.3344 83.2458 64.3344 83.5875 64.6761L97.9554 79.044C98.2971 79.3857 98.2971 79.9397 97.9554 80.2814L64.4304 113.806C64.0887 114.148 63.5346 114.148 63.1929 113.806L48.8251 99.4386C48.4834 99.0969 48.4834 98.5428 48.8251 98.2011L52.458 94.5683L18.1417 87.705C17.8076 87.6382 17.5427 87.3835 17.4627 87.0523L0.703881 17.6229C0.690841 17.5726 0.68234 17.5214 0.678377 17.4699C0.659453 17.224 0.744015 16.9717 0.932063 16.7836C1.087 16.6287 1.28558 16.544 1.48823 16.5296C1.53133 16.5265 1.57482 16.5266 1.61833 16.53ZM36.6697 53.7587L3.13105 20.2201L19.0328 86.0986L53.9452 93.081L77.2295 69.7968L70.247 34.8843L4.36848 18.9826L37.9072 52.5213C39.728 50.9812 42.0827 50.0527 44.6542 50.0527C50.4276 50.0527 55.1078 54.7329 55.1078 60.5062C55.1078 66.2796 50.4276 70.9598 44.6542 70.9598C38.8809 70.9598 34.2006 66.2796 34.2006 60.5062C34.2006 57.9345 35.1293 55.5796 36.6697 53.7587ZM38.4673 54.3846C36.9114 55.957 35.9506 58.1194 35.9506 60.5062C35.9506 65.3131 39.8474 69.2098 44.6542 69.2098C49.4611 69.2098 53.3578 65.3131 53.3578 60.5062C53.3578 55.6994 49.4611 51.8027 44.6542 51.8027C42.2676 51.8027 40.1053 52.7633 38.533 54.3189C38.5227 54.3304 38.512 54.3416 38.501 54.3526C38.49 54.3636 38.4788 54.3743 38.4673 54.3846ZM54.8405 94.6606L54.8516 94.6497L78.7981 70.7032L78.8092 70.6919L82.9688 66.5323L96.0992 79.6627L63.8117 111.95L50.6812 98.8199L54.8405 94.6606Z" fill="url(#paint1_linear_203_493)" fill-opacity="0.4"/>
<defs>
<linearGradient id="paint0_linear_203_493" x1="49.4437" y1="16.5273" x2="49.4437" y2="114.063" gradientUnits="userSpaceOnUse">
<stop stop-color="#FFD0F7"/>
<stop offset="0.25" stop-color="#E1C7FF"/>
<stop offset="0.5" stop-color="#C1C3F9"/>
<stop offset="0.75" stop-color="#94BDF1"/>
<stop offset="1" stop-color="#67BBEA"/>
</linearGradient>
<linearGradient id="paint1_linear_203_493" x1="49.4437" y1="16.5273" x2="49.4437" y2="114.063" gradientUnits="userSpaceOnUse">
<stop stop-color="white" stop-opacity="0.75"/>
<stop offset="1" stop-color="white" stop-opacity="0.5"/>
</linearGradient>
</defs>
</svg>
