<svg width="52" height="82" viewBox="0 0 52 82" fill="none" xmlns="http://www.w3.org/2000/svg">
<path fill-rule="evenodd" clip-rule="evenodd" d="M20.3177 58.0349C22.9492 61.9433 24.6863 68.6379 24.6996 80.118C24.6997 80.2027 24.7081 80.2922 24.7248 80.3753C25.002 81.7544 26.9836 81.7544 27.2608 80.3753C27.2775 80.2922 27.2858 80.2027 27.2859 80.118C27.2992 68.6379 29.0363 61.9433 31.6678 58.0349C34.3179 54.099 37.7091 51.0403 40.9523 48.1151C46.6304 42.9937 51.8549 38.2813 51.8549 29.9869V26.21C51.8549 11.9978 40.276 0.476562 25.9928 0.476562C11.7095 0.476562 0.130615 11.9978 0.130615 26.21L0.130615 29.9869C0.130615 38.2813 5.35514 42.9937 11.0332 48.1151C14.2764 51.0403 17.6676 54.099 20.3177 58.0349ZM25.9928 37.7901C20.3079 37.7901 15.6479 33.1816 15.6479 27.4967V27.4967C15.6479 21.8118 20.3079 17.2033 25.9928 17.2033V17.2033C31.6776 17.2033 36.3376 21.8118 36.3376 27.4967V27.4967C36.3376 33.1816 31.6776 37.7901 25.9928 37.7901V37.7901Z" fill="#25C5DA"/>
<path fill-rule="evenodd" clip-rule="evenodd" d="M20.3177 58.0349C22.9492 61.9433 24.6863 68.6379 24.6996 80.118C24.6997 80.2027 24.7081 80.2922 24.7248 80.3753C25.002 81.7544 26.9836 81.7544 27.2608 80.3753C27.2775 80.2922 27.2858 80.2027 27.2859 80.118C27.2992 68.6379 29.0363 61.9433 31.6678 58.0349C34.3179 54.099 37.7091 51.0403 40.9523 48.1151C46.6304 42.9937 51.8549 38.2813 51.8549 29.9869V26.21C51.8549 11.9978 40.276 0.476562 25.9928 0.476562C11.7095 0.476562 0.130615 11.9978 0.130615 26.21L0.130615 29.9869C0.130615 38.2813 5.35514 42.9937 11.0332 48.1151C14.2764 51.0403 17.6676 54.099 20.3177 58.0349ZM25.9928 37.7901C20.3079 37.7901 15.6479 33.1816 15.6479 27.4967V27.4967C15.6479 21.8118 20.3079 17.2033 25.9928 17.2033V17.2033C31.6776 17.2033 36.3376 21.8118 36.3376 27.4967V27.4967C36.3376 33.1816 31.6776 37.7901 25.9928 37.7901V37.7901Z" fill="url(#paint0_linear_242_535)" fill-opacity="0.19"/>
<path fill-rule="evenodd" clip-rule="evenodd" d="M20.3177 58.0349C22.9492 61.9433 24.6863 68.6379 24.6996 80.118C24.6997 80.2027 24.7081 80.2922 24.7248 80.3753C25.002 81.7544 26.9836 81.7544 27.2608 80.3753C27.2775 80.2922 27.2858 80.2027 27.2859 80.118C27.2992 68.6379 29.0363 61.9433 31.6678 58.0349C34.3179 54.099 37.7091 51.0403 40.9523 48.1151C46.6304 42.9937 51.8549 38.2813 51.8549 29.9869V26.21C51.8549 11.9978 40.276 0.476562 25.9928 0.476562C11.7095 0.476562 0.130615 11.9978 0.130615 26.21L0.130615 29.9869C0.130615 38.2813 5.35514 42.9937 11.0332 48.1151C14.2764 51.0403 17.6676 54.099 20.3177 58.0349ZM25.9928 37.7901C20.3079 37.7901 15.6479 33.1816 15.6479 27.4967V27.4967C15.6479 21.8118 20.3079 17.2033 25.9928 17.2033V17.2033C31.6776 17.2033 36.3376 21.8118 36.3376 27.4967V27.4967C36.3376 33.1816 31.6776 37.7901 25.9928 37.7901V37.7901Z" fill="url(#paint1_linear_242_535)" fill-opacity="0.8334" style="mix-blend-mode:overlay"/>
<path fill-rule="evenodd" clip-rule="evenodd" d="M20.3177 58.0349C22.9492 61.9433 24.6863 68.6379 24.6996 80.118C24.6997 80.2027 24.7081 80.2922 24.7248 80.3753C25.002 81.7544 26.9836 81.7544 27.2608 80.3753C27.2775 80.2922 27.2858 80.2027 27.2859 80.118C27.2992 68.6379 29.0363 61.9433 31.6678 58.0349C34.3179 54.099 37.7091 51.0403 40.9523 48.1151C46.6304 42.9937 51.8549 38.2813 51.8549 29.9869V26.21C51.8549 11.9978 40.276 0.476562 25.9928 0.476562C11.7095 0.476562 0.130615 11.9978 0.130615 26.21L0.130615 29.9869C0.130615 38.2813 5.35514 42.9937 11.0332 48.1151C14.2764 51.0403 17.6676 54.099 20.3177 58.0349ZM25.9928 37.7901C20.3079 37.7901 15.6479 33.1816 15.6479 27.4967V27.4967C15.6479 21.8118 20.3079 17.2033 25.9928 17.2033V17.2033C31.6776 17.2033 36.3376 21.8118 36.3376 27.4967V27.4967C36.3376 33.1816 31.6776 37.7901 25.9928 37.7901V37.7901Z" fill="url(#paint2_linear_242_535)" fill-opacity="0.75" style="mix-blend-mode:overlay"/>
<defs>
<linearGradient id="paint0_linear_242_535" x1="25.9928" y1="0.476562" x2="25.9928" y2="86.6837" gradientUnits="userSpaceOnUse">
<stop stop-color="white"/>
<stop offset="1" stop-color="white" stop-opacity="0"/>
</linearGradient>
<linearGradient id="paint1_linear_242_535" x1="25.9928" y1="0.476562" x2="25.9928" y2="86.6837" gradientUnits="userSpaceOnUse">
<stop stop-color="#F8D362"/>
<stop offset="1" stop-color="#F8D362" stop-opacity="0"/>
</linearGradient>
<linearGradient id="paint2_linear_242_535" x1="0.130615" y1="43.5801" x2="38.0231" y2="62.1958" gradientUnits="userSpaceOnUse">
<stop stop-color="#62F8D4" stop-opacity="0.75"/>
<stop offset="1" stop-color="white" stop-opacity="0"/>
</linearGradient>
</defs>
</svg>
