<svg width="20" height="20" viewBox="0 0 20 20" fill="none" xmlns="http://www.w3.org/2000/svg">
<g clip-path="url(#clip0_108_3095)">
<path fill-rule="evenodd" clip-rule="evenodd" d="M1.66667 10C1.66667 5.39762 5.39762 1.66667 10 1.66667C14.6024 1.66667 18.3333 5.39762 18.3333 10C18.3333 13.7503 15.856 16.9219 12.4486 17.9678C12.5416 16.2838 12.5097 15.2406 12.3527 14.8384C12.187 14.4138 12.052 14.2397 11.971 14.1354C11.918 14.067 11.8881 14.0286 11.8881 13.9692C11.8881 13.8692 11.9585 13.7967 12.0993 13.7517C13.3272 13.4803 14.1506 12.7257 14.5694 11.488C15.1498 9.77291 14.3213 8.5258 13.9861 8.02127C13.9585 7.97962 13.9342 7.94303 13.9143 7.91166C13.6537 7.50024 13.9951 6.49891 14.4028 5.69758C13.0163 5.41961 12.4868 6.0638 12.183 6.43326C12.059 6.58416 11.9726 6.68923 11.8809 6.66691C11.799 6.64697 11.7108 6.60821 11.605 6.56171C11.3025 6.42869 10.8558 6.23237 10.0001 6.23237C8.93888 6.23237 8.23579 6.60304 8.12829 6.65971C8.11881 6.66471 8.11396 6.66727 8.11392 6.66691C7.55612 5.88949 6.76396 5.56641 5.73746 5.69758C6.02021 6.82737 6.04146 7.56537 5.80121 7.91166C5.44087 8.43108 4.76542 9.63937 5.28979 11.488C5.81412 13.3366 7.72312 13.7517 8.08654 13.7517C8.08682 13.7518 8.08764 13.752 8.08893 13.7523C8.1178 13.7585 8.38518 13.8162 8.30487 14.0422C8.28911 14.1022 8.27863 14.1841 8.26684 14.2763C8.22897 14.5721 8.17749 14.9744 7.89367 15.1052C7.52146 15.2767 6.70025 15.3703 6.35679 15.1562C6.24235 15.0849 6.16014 14.9357 6.06112 14.7561C5.86294 14.3964 5.59742 13.9146 4.87137 13.6904C3.78254 13.3542 3.85076 13.7987 4.12252 13.9078C4.18237 13.9318 4.26167 13.9543 4.3522 13.9799C4.67275 14.0708 5.13402 14.2014 5.37046 14.5818C5.4398 14.6934 5.51115 14.8156 5.58405 14.9405C5.82996 15.3618 6.09347 15.8132 6.35679 15.9863C6.58433 16.136 7.12975 16.1959 7.99304 16.166C7.9555 16.9807 7.93544 17.617 7.93286 18.0749C4.33042 17.1555 1.66667 13.8888 1.66667 10ZM10 0C4.47717 0 0 4.47717 0 10C0 15.5228 4.47717 20 10 20C15.5228 20 20 15.5228 20 10C20 4.47717 15.5228 0 10 0Z" fill="white"/>
</g>
<defs>
<clipPath id="clip0_108_3095">
<rect width="20" height="20" fill="white"/>
</clipPath>
</defs>
</svg>
