<svg width="121" height="122" viewBox="0 0 121 122" fill="none" xmlns="http://www.w3.org/2000/svg">
<path fill-rule="evenodd" clip-rule="evenodd" d="M71.1552 22.0523C71.6225 22.1752 71.9017 22.6537 71.7788 23.1211L51.3548 100.763C51.2319 101.23 50.7533 101.509 50.286 101.386C49.8186 101.263 49.5394 100.785 49.6624 100.318L70.0863 22.6759C70.2093 22.2085 70.6878 21.9293 71.1552 22.0523ZM31.7303 43.2474C32.0872 43.5731 32.1125 44.1266 31.7867 44.4835L14.1138 63.8488L33.479 81.5217C33.836 81.8475 33.8612 82.4009 33.5355 82.7579C33.2097 83.1148 32.6563 83.1401 32.2993 82.8144L12.2878 64.5516C11.9308 64.2258 11.9056 63.6724 12.2313 63.3154L30.4941 43.3039C30.8199 42.9469 31.3733 42.9216 31.7303 43.2474ZM87.9057 40.6807C88.2314 40.3238 88.7848 40.2985 89.1418 40.6243L109.153 58.8871C109.51 59.2128 109.536 59.7663 109.21 60.1232L90.947 80.1348C90.6213 80.4917 90.0678 80.517 89.7109 80.1912C89.3539 79.8655 89.3286 79.3121 89.6544 78.9551L107.327 59.5899L87.9621 41.9169C87.6052 41.5911 87.5799 41.0377 87.9057 40.6807Z" fill="url(#paint0_linear_203_489)"/>
<path fill-rule="evenodd" clip-rule="evenodd" d="M71.1552 22.0523C71.6225 22.1752 71.9017 22.6537 71.7788 23.1211L51.3548 100.763C51.2319 101.23 50.7533 101.509 50.286 101.386C49.8186 101.263 49.5394 100.785 49.6624 100.318L70.0863 22.6759C70.2093 22.2085 70.6878 21.9293 71.1552 22.0523ZM31.7303 43.2474C32.0872 43.5731 32.1125 44.1266 31.7867 44.4835L14.1138 63.8488L33.479 81.5217C33.836 81.8475 33.8612 82.4009 33.5355 82.7579C33.2097 83.1148 32.6563 83.1401 32.2993 82.8144L12.2878 64.5516C11.9308 64.2258 11.9056 63.6724 12.2313 63.3154L30.4941 43.3039C30.8199 42.9469 31.3733 42.9216 31.7303 43.2474ZM87.9057 40.6807C88.2314 40.3238 88.7848 40.2985 89.1418 40.6243L109.153 58.8871C109.51 59.2128 109.536 59.7663 109.21 60.1232L90.947 80.1348C90.6213 80.4917 90.0678 80.517 89.7109 80.1912C89.3539 79.8655 89.3286 79.3121 89.6544 78.9551L107.327 59.5899L87.9621 41.9169C87.6052 41.5911 87.5799 41.0377 87.9057 40.6807Z" fill="url(#paint1_linear_203_489)" fill-opacity="0.4"/>
<defs>
<linearGradient id="paint0_linear_203_489" x1="58.9319" y1="22.5706" x2="62.5093" y2="100.868" gradientUnits="userSpaceOnUse">
<stop stop-color="#FFD0F7"/>
<stop offset="0.25" stop-color="#E1C7FF"/>
<stop offset="0.5" stop-color="#C1C3F9"/>
<stop offset="0.75" stop-color="#94BDF1"/>
<stop offset="1" stop-color="#67BBEA"/>
</linearGradient>
<linearGradient id="paint1_linear_203_489" x1="58.9319" y1="22.5706" x2="62.5093" y2="100.868" gradientUnits="userSpaceOnUse">
<stop stop-color="white" stop-opacity="0.75"/>
<stop offset="1" stop-color="white" stop-opacity="0.5"/>
</linearGradient>
</defs>
</svg>
