<svg width="129" height="40" viewBox="0 0 129 40" fill="none" xmlns="http://www.w3.org/2000/svg">
<path d="M18.2043 29.5742C16.8753 29.5742 15.7259 29.3227 14.756 28.8199C13.8221 28.2811 12.9421 27.6704 12.1159 26.988C11.3257 26.2696 10.4816 25.641 9.58361 25.1022C8.72153 24.5634 7.69783 24.294 6.51248 24.294C5.29121 24.294 4.21362 24.7071 3.27971 25.5332C2.3458 26.3235 1.62741 27.4729 1.12453 28.9815L0.0469408 28.7121C0.406137 27.5268 0.891052 26.521 1.50169 25.6949C2.14824 24.8687 2.90255 24.2401 3.76462 23.8091C4.66261 23.3421 5.61449 23.1086 6.62024 23.1086C7.91334 23.1086 9.02685 23.378 9.96076 23.9168C10.8947 24.4556 11.7747 25.0842 12.6009 25.8026C13.427 26.4851 14.2891 27.0957 15.1871 27.6345C16.0851 28.1374 17.1088 28.3888 18.2582 28.3888C19.5154 28.3888 20.6109 27.9937 21.5448 27.2035C22.4788 26.3773 23.1792 25.2099 23.6461 23.7013L24.7237 23.9707C24.4005 25.1201 23.9155 26.1259 23.269 26.988C22.6224 27.85 21.8681 28.4966 21.0061 28.9276C20.1799 29.3587 19.246 29.5742 18.2043 29.5742ZM27.1917 38.6798V15.1345C27.1917 11.9376 27.6407 9.24366 28.5387 7.05256C29.4726 4.82554 30.8016 3.15528 32.5257 2.04177C34.2499 0.928265 36.3332 0.37151 38.7758 0.37151C39.7815 0.37151 40.7334 0.497228 41.6314 0.748664C42.5653 1.0001 43.3914 1.34134 44.1098 1.77237L43.5171 2.95772C42.7269 2.49077 41.9008 2.13157 41.0387 1.88013C40.1766 1.6287 39.2786 1.50298 38.3447 1.50298C36.5487 1.50298 35.0222 1.86217 33.765 2.58057C32.5437 3.29896 31.5559 4.28675 30.8016 5.54394C30.0473 6.80113 29.4905 8.23791 29.1313 9.8543C28.8081 11.4348 28.6464 13.105 28.6464 14.8651V38.6798H27.1917ZM22.2348 18.5828L22.2886 17.4513L38.0214 17.3435L37.9676 18.5828H22.2348ZM36.3428 38.6798V16.7509L37.6359 16.5892L37.7975 23.1625V38.6798H36.3428ZM37.5281 24.6173L37.0432 23.863C38.2285 21.5282 39.5576 19.7142 41.0303 18.4211C42.503 17.128 44.1732 16.4815 46.0411 16.4815C46.8313 16.4815 47.5317 16.6251 48.1424 16.9125C48.7889 17.1999 49.3457 17.6129 49.8126 18.1517L49.1122 19.3371C48.7171 18.8342 48.2142 18.457 47.6036 18.2056C47.0289 17.9183 46.3823 17.7746 45.6639 17.7746C44.0475 17.7746 42.5748 18.3852 41.2458 19.6065C39.9527 20.7918 38.7135 22.4621 37.5281 24.6173ZM57.163 38.9492C55.0796 38.9492 53.2118 38.4643 51.5595 37.4945C49.9431 36.5246 48.65 35.2136 47.6802 33.5613C46.7463 31.873 46.2793 29.9693 46.2793 27.85C46.2793 25.623 46.7642 23.6654 47.7341 21.9772C48.7398 20.253 50.1048 18.906 51.8289 17.9362C53.589 16.9305 55.5466 16.4276 57.7018 16.4276C59.7851 16.4276 61.635 16.9125 63.2513 17.8823C64.9036 18.8162 66.1968 20.1094 67.1307 21.7617C68.0646 23.414 68.5315 25.3177 68.5315 27.4729C68.5315 29.664 68.0466 31.6396 67.0768 33.3996C66.107 35.1238 64.76 36.4887 63.0358 37.4945C61.3117 38.4643 59.3541 38.9492 57.163 38.9492ZM57.2707 37.8177C59.2104 37.8177 60.8986 37.3687 62.3354 36.4708C63.8081 35.5728 64.9396 34.3515 65.7298 32.8069C66.5559 31.2624 66.969 29.5203 66.969 27.5806C66.969 25.6051 66.5559 23.8809 65.7298 22.4082C64.9396 20.8996 63.8261 19.7142 62.3893 18.8522C60.9884 17.9901 59.39 17.5591 57.594 17.5591C55.6903 17.5591 54.002 18.0081 52.5293 18.906C51.0566 19.7681 49.9072 20.9714 49.081 22.516C48.2549 24.0246 47.8418 25.7667 47.8418 27.7423C47.8418 29.6819 48.2549 31.424 49.081 32.9686C49.9072 34.4772 51.0207 35.6626 52.4216 36.5246C53.8584 37.3867 55.4747 37.8177 57.2707 37.8177ZM101.281 38.6798V25.3177C101.281 22.9111 100.779 21.0433 99.7728 19.7142C98.767 18.3493 97.2584 17.6668 95.2469 17.6668C93.415 17.6668 91.6549 18.2236 89.9667 19.3371C88.2785 20.4506 87.0393 22.0131 86.249 24.0246L85.6564 23.1625C86.1952 21.7617 86.9854 20.5583 88.0271 19.5526C89.0687 18.5468 90.272 17.7925 91.637 17.2897C93.0019 16.7509 94.3848 16.4815 95.7857 16.4815C98.0127 16.4815 99.7369 17.2358 100.958 18.7444C102.179 20.2171 102.79 22.3184 102.79 25.0483V38.6798H101.281ZM85.1714 38.6798V25.3177C85.1714 22.9111 84.6506 21.0433 83.6089 19.7142C82.5673 18.3493 81.0586 17.6668 79.0831 17.6668C78.0414 17.6668 76.9458 17.8823 75.7964 18.3134C74.647 18.7085 73.5514 19.373 72.5098 20.3069C71.4681 21.2408 70.6599 22.48 70.0852 24.0246L69.3309 23.4319C69.9774 21.7437 70.8754 20.3967 72.0249 19.391C73.1743 18.3852 74.4135 17.6489 75.7425 17.1819C77.1075 16.7149 78.3826 16.4815 79.568 16.4815C81.795 16.4815 83.5191 17.2358 84.7404 18.7444C85.9976 20.2171 86.6262 22.3184 86.6262 25.0483V38.6798H85.1714ZM68.8998 38.6798V16.8047L70.193 16.5892L70.4085 22.4082V38.6798H68.8998ZM122.057 29.5742C120.728 29.5742 119.579 29.3227 118.609 28.8199C117.675 28.2811 116.795 27.6704 115.969 26.988C115.178 26.2696 114.334 25.641 113.436 25.1022C112.574 24.5634 111.55 24.294 110.365 24.294C109.144 24.294 108.066 24.7071 107.132 25.5332C106.198 26.3235 105.48 27.4729 104.977 28.9815L103.9 28.7121C104.259 27.5268 104.744 26.521 105.354 25.6949C106.001 24.8687 106.755 24.2401 107.617 23.8091C108.515 23.3421 109.467 23.1086 110.473 23.1086C111.766 23.1086 112.88 23.378 113.813 23.9168C114.747 24.4556 115.627 25.0842 116.454 25.8026C117.28 26.4851 118.142 27.0957 119.04 27.6345C119.938 28.1374 120.961 28.3888 122.111 28.3888C123.368 28.3888 124.464 27.9937 125.398 27.2035C126.331 26.3773 127.032 25.2099 127.499 23.7013L128.576 23.9707C128.253 25.1201 127.768 26.1259 127.122 26.988C126.475 27.85 125.721 28.4966 124.859 28.9276C124.033 29.3587 123.099 29.5742 122.057 29.5742Z" fill="url(#paint0_linear_185_118)"/>
<defs>
<linearGradient id="paint0_linear_185_118" x1="64.5685" y1="3.67981" x2="64.5685" y2="38.6798" gradientUnits="userSpaceOnUse">
<stop stop-color="#F4D0FF"/>
<stop offset="0.25" stop-color="#E1C7FF"/>
<stop offset="0.5" stop-color="#C1C3F9"/>
<stop offset="0.75" stop-color="#94BDF1"/>
<stop offset="1" stop-color="#67BBEA"/>
</linearGradient>
</defs>
</svg>
