<svg width="129" height="40" viewBox="0 0 129 40" fill="none" xmlns="http://www.w3.org/2000/svg">
<path d="M18.0427 29.7358C16.7855 29.7358 15.672 29.4844 14.7022 28.9815C13.7323 28.4786 12.8343 27.886 12.0082 27.2035C11.2179 26.521 10.3918 25.9283 9.52973 25.4255C8.66766 24.9226 7.67987 24.6711 6.56636 24.6711C5.41693 24.6711 4.39322 25.0663 3.49523 25.8565C2.63316 26.6108 1.9866 27.7423 1.55557 29.2509L0.0469408 28.8737C0.370218 27.6166 0.837173 26.5569 1.44781 25.6949C2.09436 24.7969 2.86663 24.1144 3.76462 23.6474C4.66261 23.1805 5.6504 22.947 6.72799 22.947C7.98518 22.947 9.08073 23.1984 10.0146 23.7013C10.9486 24.2042 11.8286 24.7969 12.6547 25.4793C13.5168 26.1618 14.3789 26.7545 15.2409 27.2574C16.103 27.7602 17.0908 28.0117 18.2043 28.0117C19.3897 28.0117 20.4134 27.6345 21.2755 26.8802C22.1375 26.09 22.7841 24.9405 23.2151 23.4319L24.7237 23.8091C24.4364 25.0303 23.9694 26.09 23.3229 26.988C22.6763 27.886 21.904 28.5684 21.0061 29.0354C20.144 29.5023 19.1562 29.7358 18.0427 29.7358ZM26.8684 38.6798V15.2961C26.8684 12.0274 27.3533 9.29754 28.3231 7.10644C29.293 4.87943 30.6579 3.20916 32.418 2.09565C34.214 0.946224 36.3332 0.37151 38.7758 0.37151C39.8174 0.37151 40.8052 0.515189 41.7391 0.802546C42.709 1.05398 43.571 1.41318 44.3253 1.88013L43.3555 3.60428C42.6371 3.13732 41.8289 2.76017 40.9309 2.47281C40.0329 2.18545 39.0452 2.04177 37.9676 2.04177C36.1357 2.04177 34.627 2.45485 33.4417 3.281C32.2923 4.10715 31.3943 5.18474 30.7477 6.51377C30.1371 7.80688 29.706 9.18978 29.4546 10.6625C29.2391 12.1352 29.1313 13.5181 29.1313 14.8112V38.6798H26.8684ZM22.0731 18.9599L22.1809 17.2897L38.3447 17.128L38.1831 18.9599H22.0731ZM36.2851 38.6798V16.697L38.1709 16.3737L38.4941 22.6776V38.6798H36.2851ZM38.117 24.6711L37.4704 23.5397C38.6558 21.2767 39.9848 19.5167 41.4575 18.2595C42.9302 17.0023 44.6364 16.3737 46.5761 16.3737C47.2945 16.3737 47.9769 16.4815 48.6235 16.697C49.306 16.9125 49.8807 17.2537 50.3476 17.7207L49.3239 19.5526C48.9288 19.1575 48.4259 18.8522 47.8153 18.6366C47.2406 18.4211 46.6299 18.3134 45.9834 18.3134C44.4029 18.3134 42.9841 18.8701 41.7269 19.9836C40.4697 21.0971 39.2664 22.6596 38.117 24.6711ZM57.4799 39.0031C55.3607 39.0031 53.4749 38.5182 51.8226 37.5483C50.1703 36.5785 48.8592 35.2495 47.8894 33.5613C46.9196 31.873 46.4346 29.9513 46.4346 27.7962C46.4346 25.5691 46.9375 23.5936 47.9433 21.8694C48.9849 20.1094 50.3858 18.7444 52.1459 17.7746C53.9059 16.7688 55.8995 16.266 58.1265 16.266C60.2457 16.266 62.1315 16.7509 63.7838 17.7207C65.4361 18.6546 66.7292 19.9657 67.6631 21.6539C68.633 23.3062 69.1179 25.2099 69.1179 27.3651C69.1179 29.5921 68.615 31.5857 67.6093 33.3457C66.6035 35.1058 65.2206 36.4887 63.4605 37.4945C61.7364 38.5002 59.7429 39.0031 57.4799 39.0031ZM57.7493 37.3867C59.5812 37.3867 61.1617 36.9557 62.4907 36.0936C63.8557 35.1956 64.8973 34.0103 65.6157 32.5376C66.37 31.0648 66.7472 29.4125 66.7472 27.5806C66.7472 25.641 66.3521 23.9528 65.5618 22.516C64.8075 21.0433 63.7659 19.9118 62.4368 19.1216C61.1078 18.2954 59.5812 17.8823 57.8571 17.8823C56.097 17.8823 54.5166 18.3134 53.1157 19.1754C51.7507 20.0016 50.6911 21.151 49.9368 22.6237C49.1825 24.0605 48.8053 25.7128 48.8053 27.5806C48.8053 29.5203 49.2004 31.2265 49.9907 32.6992C50.7809 34.1719 51.8405 35.3213 53.1696 36.1475C54.5345 36.9736 56.0611 37.3867 57.7493 37.3867ZM100.947 38.6798V25.3716C100.947 23.0727 100.462 21.2767 99.492 19.9836C98.5581 18.6905 97.1572 18.044 95.2894 18.044C93.7449 18.044 92.1824 18.5648 90.6019 19.6065C89.0214 20.6122 87.7463 22.1568 86.7765 24.2401L85.9144 23.2164C86.5609 21.6359 87.441 20.3428 88.5545 19.3371C89.668 18.3313 90.8893 17.577 92.2183 17.0741C93.5473 16.5713 94.8584 16.3198 96.1515 16.3198C98.3426 16.3198 100.067 17.0741 101.324 18.5828C102.581 20.0914 103.21 22.1747 103.21 24.8328V38.6798H100.947ZM85.1601 38.6798V25.3716C85.1601 23.0727 84.6572 21.2767 83.6515 19.9836C82.6816 18.6905 81.2808 18.044 79.4489 18.044C78.4431 18.044 77.4014 18.2595 76.3238 18.6905C75.2822 19.1216 74.2764 19.7861 73.3066 20.6841C72.3368 21.5821 71.5106 22.7674 70.8281 24.2401L69.9661 23.3242C70.6485 21.6359 71.5645 20.289 72.7139 19.2832C73.8634 18.2415 75.1026 17.4872 76.4316 17.0203C77.7606 16.5533 79.0358 16.3198 80.257 16.3198C82.4841 16.3198 84.2262 17.0741 85.4834 18.5828C86.7405 20.0914 87.3691 22.1747 87.3691 24.8328V38.6798H85.1601ZM69.1579 38.6798V16.7509L71.0437 16.3737L71.4208 21.9772V38.6798H69.1579ZM122.106 29.7358C120.849 29.7358 119.735 29.4844 118.765 28.9815C117.795 28.4786 116.897 27.886 116.071 27.2035C115.281 26.521 114.455 25.9283 113.593 25.4255C112.731 24.9226 111.743 24.6711 110.629 24.6711C109.48 24.6711 108.456 25.0663 107.558 25.8565C106.696 26.6108 106.05 27.7423 105.619 29.2509L104.11 28.8737C104.433 27.6166 104.9 26.5569 105.511 25.6949C106.157 24.7969 106.93 24.1144 107.828 23.6474C108.726 23.1805 109.714 22.947 110.791 22.947C112.048 22.947 113.144 23.1984 114.078 23.7013C115.012 24.2042 115.892 24.7969 116.718 25.4793C117.58 26.1618 118.442 26.7545 119.304 27.2574C120.166 27.7602 121.154 28.0117 122.267 28.0117C123.453 28.0117 124.477 27.6345 125.339 26.8802C126.201 26.09 126.847 24.9405 127.278 23.4319L128.787 23.8091C128.5 25.0303 128.033 26.09 127.386 26.988C126.739 27.886 125.967 28.5684 125.069 29.0354C124.207 29.5023 123.219 29.7358 122.106 29.7358Z" fill="url(#paint0_linear_185_118)"/>
<defs>
<linearGradient id="paint0_linear_185_118" x1="64.5685" y1="3.67981" x2="64.5685" y2="38.6798" gradientUnits="userSpaceOnUse">
<stop stop-color="#F4D0FF"/>
<stop offset="0.25" stop-color="#E1C7FF"/>
<stop offset="0.5" stop-color="#C1C3F9"/>
<stop offset="0.75" stop-color="#94BDF1"/>
<stop offset="1" stop-color="#67BBEA"/>
</linearGradient>
</defs>
</svg>
