<svg width="84" height="85" viewBox="0 0 84 85" fill="none" xmlns="http://www.w3.org/2000/svg">
<path fill-rule="evenodd" clip-rule="evenodd" d="M37.5 6.40836C17.5671 6.40836 1.40833 22.5671 1.40833 42.5C1.40833 62.4329 17.5671 78.5917 37.5 78.5917C38.9029 78.5917 40.0696 78.3306 41.0337 77.8259C42.0016 77.3193 42.727 76.5871 43.2739 75.7055C44.3475 73.975 44.7458 71.6412 45.0082 69.2258C45.0886 68.4861 45.1564 67.7373 45.2246 66.9851L45.2246 66.985C45.3844 65.2213 45.5459 63.4384 45.8748 61.7088C46.3405 59.2598 47.1243 57.0433 48.6302 55.3435C49.8811 53.9315 51.9636 52.9814 54.5228 52.2371C56.3534 51.7047 58.3469 51.2978 60.3575 50.8873L60.358 50.8872C61.1522 50.7251 61.9492 50.5624 62.7398 50.3913C65.4892 49.796 68.1658 49.0967 70.1599 47.9414C72.1923 46.7639 73.5917 45.0614 73.5917 42.5C73.5917 22.5671 57.4329 6.40836 37.5 6.40836ZM2.75833 42.5C2.75833 23.3127 18.3127 7.75836 37.5 7.75836C56.6873 7.75836 72.2417 23.3127 72.2417 42.5C72.2417 44.4415 71.2342 45.7588 69.4831 46.7733C67.6938 47.81 65.2106 48.475 62.4541 49.0718C61.6999 49.2351 60.9251 49.3933 60.1433 49.5529L60.1431 49.5529L60.143 49.5529C58.1117 49.9676 56.033 50.3919 54.1458 50.9408C51.5376 51.6994 49.1371 52.7355 47.6197 54.4483C45.8814 56.4105 45.0343 58.9026 44.5486 61.4566C44.2068 63.2541 44.0353 65.1451 43.8729 66.9364C43.8062 67.6722 43.741 68.3911 43.6661 69.0799C43.4027 71.5041 43.021 73.5523 42.1267 74.9938C41.6898 75.6982 41.1343 76.2495 40.4076 76.6299C39.6772 77.0123 38.7356 77.2417 37.5 77.2417C18.3127 77.2417 2.75833 61.6873 2.75833 42.5ZM44.5833 18.8042C41.2764 18.8042 38.5958 21.4848 38.5958 24.7917C38.5958 28.0986 41.2764 30.7792 44.5833 30.7792C47.8902 30.7792 50.5708 28.0986 50.5708 24.7917C50.5708 21.4848 47.8902 18.8042 44.5833 18.8042ZM39.9458 24.7917C39.9458 22.2304 42.022 20.1542 44.5833 20.1542C47.1446 20.1542 49.2208 22.2304 49.2208 24.7917C49.2208 27.353 47.1446 29.4292 44.5833 29.4292C42.022 29.4292 39.9458 27.353 39.9458 24.7917ZM17.3458 31.875C17.3458 28.5681 20.0264 25.8875 23.3333 25.8875C26.6402 25.8875 29.3208 28.5681 29.3208 31.875C29.3208 35.1819 26.6402 37.8625 23.3333 37.8625C20.0264 37.8625 17.3458 35.1819 17.3458 31.875ZM23.3333 27.2375C20.772 27.2375 18.6958 29.3137 18.6958 31.875C18.6958 34.4363 20.772 36.5125 23.3333 36.5125C25.8946 36.5125 27.9708 34.4363 27.9708 31.875C27.9708 29.3137 25.8946 27.2375 23.3333 27.2375ZM25.1042 48.9084C21.7973 48.9084 19.1167 51.589 19.1167 54.8959C19.1167 58.2027 21.7973 60.8834 25.1042 60.8834C28.4111 60.8834 31.0917 58.2027 31.0917 54.8959C31.0917 51.589 28.4111 48.9084 25.1042 48.9084ZM20.4667 54.8959C20.4667 52.3346 22.5429 50.2584 25.1042 50.2584C27.6655 50.2584 29.7417 52.3346 29.7417 54.8959C29.7417 57.4572 27.6655 59.5334 25.1042 59.5334C22.5429 59.5334 20.4667 57.4572 20.4667 54.8959Z" fill="#25C5DA"/>
<path fill-rule="evenodd" clip-rule="evenodd" d="M37.5 6.40836C17.5671 6.40836 1.40833 22.5671 1.40833 42.5C1.40833 62.4329 17.5671 78.5917 37.5 78.5917C38.9029 78.5917 40.0696 78.3306 41.0337 77.8259C42.0016 77.3193 42.727 76.5871 43.2739 75.7055C44.3475 73.975 44.7458 71.6412 45.0082 69.2258C45.0886 68.4861 45.1564 67.7373 45.2246 66.9851L45.2246 66.985C45.3844 65.2213 45.5459 63.4384 45.8748 61.7088C46.3405 59.2598 47.1243 57.0433 48.6302 55.3435C49.8811 53.9315 51.9636 52.9814 54.5228 52.2371C56.3534 51.7047 58.3469 51.2978 60.3575 50.8873L60.358 50.8872C61.1522 50.7251 61.9492 50.5624 62.7398 50.3913C65.4892 49.796 68.1658 49.0967 70.1599 47.9414C72.1923 46.7639 73.5917 45.0614 73.5917 42.5C73.5917 22.5671 57.4329 6.40836 37.5 6.40836ZM2.75833 42.5C2.75833 23.3127 18.3127 7.75836 37.5 7.75836C56.6873 7.75836 72.2417 23.3127 72.2417 42.5C72.2417 44.4415 71.2342 45.7588 69.4831 46.7733C67.6938 47.81 65.2106 48.475 62.4541 49.0718C61.6999 49.2351 60.9251 49.3933 60.1433 49.5529L60.1431 49.5529L60.143 49.5529C58.1117 49.9676 56.033 50.3919 54.1458 50.9408C51.5376 51.6994 49.1371 52.7355 47.6197 54.4483C45.8814 56.4105 45.0343 58.9026 44.5486 61.4566C44.2068 63.2541 44.0353 65.1451 43.8729 66.9364C43.8062 67.6722 43.741 68.3911 43.6661 69.0799C43.4027 71.5041 43.021 73.5523 42.1267 74.9938C41.6898 75.6982 41.1343 76.2495 40.4076 76.6299C39.6772 77.0123 38.7356 77.2417 37.5 77.2417C18.3127 77.2417 2.75833 61.6873 2.75833 42.5ZM44.5833 18.8042C41.2764 18.8042 38.5958 21.4848 38.5958 24.7917C38.5958 28.0986 41.2764 30.7792 44.5833 30.7792C47.8902 30.7792 50.5708 28.0986 50.5708 24.7917C50.5708 21.4848 47.8902 18.8042 44.5833 18.8042ZM39.9458 24.7917C39.9458 22.2304 42.022 20.1542 44.5833 20.1542C47.1446 20.1542 49.2208 22.2304 49.2208 24.7917C49.2208 27.353 47.1446 29.4292 44.5833 29.4292C42.022 29.4292 39.9458 27.353 39.9458 24.7917ZM17.3458 31.875C17.3458 28.5681 20.0264 25.8875 23.3333 25.8875C26.6402 25.8875 29.3208 28.5681 29.3208 31.875C29.3208 35.1819 26.6402 37.8625 23.3333 37.8625C20.0264 37.8625 17.3458 35.1819 17.3458 31.875ZM23.3333 27.2375C20.772 27.2375 18.6958 29.3137 18.6958 31.875C18.6958 34.4363 20.772 36.5125 23.3333 36.5125C25.8946 36.5125 27.9708 34.4363 27.9708 31.875C27.9708 29.3137 25.8946 27.2375 23.3333 27.2375ZM25.1042 48.9084C21.7973 48.9084 19.1167 51.589 19.1167 54.8959C19.1167 58.2027 21.7973 60.8834 25.1042 60.8834C28.4111 60.8834 31.0917 58.2027 31.0917 54.8959C31.0917 51.589 28.4111 48.9084 25.1042 48.9084ZM20.4667 54.8959C20.4667 52.3346 22.5429 50.2584 25.1042 50.2584C27.6655 50.2584 29.7417 52.3346 29.7417 54.8959C29.7417 57.4572 27.6655 59.5334 25.1042 59.5334C22.5429 59.5334 20.4667 57.4572 20.4667 54.8959Z" fill="url(#paint0_linear_523_389)" fill-opacity="0.38"/>
<path fill-rule="evenodd" clip-rule="evenodd" d="M37.5 6.40836C17.5671 6.40836 1.40833 22.5671 1.40833 42.5C1.40833 62.4329 17.5671 78.5917 37.5 78.5917C38.9029 78.5917 40.0696 78.3306 41.0337 77.8259C42.0016 77.3193 42.727 76.5871 43.2739 75.7055C44.3475 73.975 44.7458 71.6412 45.0082 69.2258C45.0886 68.4861 45.1564 67.7373 45.2246 66.9851L45.2246 66.985C45.3844 65.2213 45.5459 63.4384 45.8748 61.7088C46.3405 59.2598 47.1243 57.0433 48.6302 55.3435C49.8811 53.9315 51.9636 52.9814 54.5228 52.2371C56.3534 51.7047 58.3469 51.2978 60.3575 50.8873L60.358 50.8872C61.1522 50.7251 61.9492 50.5624 62.7398 50.3913C65.4892 49.796 68.1658 49.0967 70.1599 47.9414C72.1923 46.7639 73.5917 45.0614 73.5917 42.5C73.5917 22.5671 57.4329 6.40836 37.5 6.40836ZM2.75833 42.5C2.75833 23.3127 18.3127 7.75836 37.5 7.75836C56.6873 7.75836 72.2417 23.3127 72.2417 42.5C72.2417 44.4415 71.2342 45.7588 69.4831 46.7733C67.6938 47.81 65.2106 48.475 62.4541 49.0718C61.6999 49.2351 60.9251 49.3933 60.1433 49.5529L60.1431 49.5529L60.143 49.5529C58.1117 49.9676 56.033 50.3919 54.1458 50.9408C51.5376 51.6994 49.1371 52.7355 47.6197 54.4483C45.8814 56.4105 45.0343 58.9026 44.5486 61.4566C44.2068 63.2541 44.0353 65.1451 43.8729 66.9364C43.8062 67.6722 43.741 68.3911 43.6661 69.0799C43.4027 71.5041 43.021 73.5523 42.1267 74.9938C41.6898 75.6982 41.1343 76.2495 40.4076 76.6299C39.6772 77.0123 38.7356 77.2417 37.5 77.2417C18.3127 77.2417 2.75833 61.6873 2.75833 42.5ZM44.5833 18.8042C41.2764 18.8042 38.5958 21.4848 38.5958 24.7917C38.5958 28.0986 41.2764 30.7792 44.5833 30.7792C47.8902 30.7792 50.5708 28.0986 50.5708 24.7917C50.5708 21.4848 47.8902 18.8042 44.5833 18.8042ZM39.9458 24.7917C39.9458 22.2304 42.022 20.1542 44.5833 20.1542C47.1446 20.1542 49.2208 22.2304 49.2208 24.7917C49.2208 27.353 47.1446 29.4292 44.5833 29.4292C42.022 29.4292 39.9458 27.353 39.9458 24.7917ZM17.3458 31.875C17.3458 28.5681 20.0264 25.8875 23.3333 25.8875C26.6402 25.8875 29.3208 28.5681 29.3208 31.875C29.3208 35.1819 26.6402 37.8625 23.3333 37.8625C20.0264 37.8625 17.3458 35.1819 17.3458 31.875ZM23.3333 27.2375C20.772 27.2375 18.6958 29.3137 18.6958 31.875C18.6958 34.4363 20.772 36.5125 23.3333 36.5125C25.8946 36.5125 27.9708 34.4363 27.9708 31.875C27.9708 29.3137 25.8946 27.2375 23.3333 27.2375ZM25.1042 48.9084C21.7973 48.9084 19.1167 51.589 19.1167 54.8959C19.1167 58.2027 21.7973 60.8834 25.1042 60.8834C28.4111 60.8834 31.0917 58.2027 31.0917 54.8959C31.0917 51.589 28.4111 48.9084 25.1042 48.9084ZM20.4667 54.8959C20.4667 52.3346 22.5429 50.2584 25.1042 50.2584C27.6655 50.2584 29.7417 52.3346 29.7417 54.8959C29.7417 57.4572 27.6655 59.5334 25.1042 59.5334C22.5429 59.5334 20.4667 57.4572 20.4667 54.8959Z" fill="url(#paint1_linear_523_389)" fill-opacity="0.8334" style="mix-blend-mode:overlay"/>
<defs>
<linearGradient id="paint0_linear_523_389" x1="37.5" y1="6.40836" x2="37.5" y2="78.5917" gradientUnits="userSpaceOnUse">
<stop stop-color="white"/>
<stop offset="1" stop-color="white" stop-opacity="0"/>
</linearGradient>
<linearGradient id="paint1_linear_523_389" x1="37.5" y1="6.40836" x2="37.5" y2="78.5917" gradientUnits="userSpaceOnUse">
<stop stop-color="#F8D362"/>
<stop offset="1" stop-color="#F8D362" stop-opacity="0"/>
</linearGradient>
</defs>
</svg>
