<svg width="372" height="80" viewBox="0 0 372 80" fill="none" xmlns="http://www.w3.org/2000/svg">
<path d="M16.7461 4.26311C19.9101 4.26311 22.6111 5.38209 24.8491 7.62006C27.1128 9.85802 28.2446 12.559 28.2446 15.723C28.2446 18.9128 26.6112 21.8838 23.3443 24.6363C26.2253 25.2279 28.9392 26.9257 31.4858 29.7296C35.6016 33.8711 37.6595 38.8744 37.6595 44.7394C37.6595 50.5786 35.6016 55.6333 31.4858 59.9035C27.653 63.8649 23.0742 65.8842 17.7494 65.9614V66H5.78783L5.78783 4.26311H16.7461ZM9.26053 27.2215L9.26053 62.5273H17.7494V62.5659C22.0452 62.2829 25.7494 60.5209 28.862 57.2797C32.2832 53.7555 33.9939 49.5754 33.9939 44.7394C33.9939 39.9033 32.2832 35.7746 28.862 32.3534C25.4407 28.9321 21.3121 27.2215 16.476 27.2215H9.26053ZM9.26053 7.73581V23.5173H17.6336C19.5629 23.3372 21.2092 22.617 22.5725 21.3565C24.1417 19.916 24.9263 18.0382 24.9263 15.723C24.9263 13.4079 24.1417 11.5043 22.5725 10.0124C21.0034 8.49466 19.0613 7.73581 16.7461 7.73581H9.26053ZM80.7086 66H77.2359V58.2829C76.5671 59.1832 75.834 60.045 75.0366 60.8681C70.895 65.0096 65.8918 67.0804 60.0268 67.0804C54.1875 67.0804 49.1971 65.0096 45.0556 60.8681C40.9141 56.7266 38.8433 51.7362 38.8433 45.8969C38.8433 40.0319 40.9141 35.0287 45.0556 30.8871C49.1971 26.7456 54.1875 24.6749 60.0268 24.6749C65.8918 24.6749 70.895 26.7456 75.0366 30.8871C75.834 31.7103 76.5671 32.572 77.2359 33.4724V28.109H80.7086V66ZM77.2359 49.331V42.4628C76.5928 39.0673 74.9851 36.0833 72.4127 33.511C68.9915 30.0897 64.8628 28.3791 60.0268 28.3791C55.1907 28.3791 51.0621 30.0897 47.6408 33.511C44.2196 36.9322 42.5089 41.0609 42.5089 45.8969C42.5089 50.733 44.2196 54.8616 47.6408 58.2829C51.0621 61.6784 55.1907 63.3762 60.0268 63.3762C64.8628 63.3762 68.9915 61.6656 72.4127 58.2443C74.9851 55.6719 76.5928 52.7008 77.2359 49.331ZM87.8937 79.6979H84.1994L93.7049 59.3171L80.007 29.9704H83.7013L95.5313 55.1247L107.403 29.9704H111.097L87.8937 79.6979ZM149.674 36.9024L140.749 12.2877L131.783 36.9024H149.674ZM142.451 7.3067L163.745 66H160.258L150.877 40.1816H130.58L121.033 66H117.504L139.047 7.3067H142.451ZM173.071 32.8761C170.719 33.2358 168.408 34.7301 166.139 37.359C163.87 39.9879 162.736 42.6444 162.736 45.3287V66H159.415V29.9704H162.736V37.7741C164.119 34.149 166.956 31.4509 171.245 29.6799L173.071 32.8761ZM171.813 41.6759H203.442C202.667 39.1577 201.353 36.9716 199.499 35.1175C196.234 31.8522 192.304 30.2195 187.71 30.2195C183.117 30.2195 179.187 31.8522 175.922 35.1175C173.985 37.0823 172.615 39.2684 171.813 41.6759ZM171.19 45.0381C171.107 45.6192 171.065 46.2419 171.065 46.906C171.065 51.4996 172.684 55.4153 175.922 58.653C179.187 61.8906 183.117 63.5095 187.71 63.5095C192.304 63.5095 196.234 61.8768 199.499 58.6115C200.052 58.058 200.578 57.4769 201.076 56.8681L204.605 58.1133C204.189 58.8052 203.318 59.8014 201.989 61.102C198.06 65.0591 193.3 67.0377 187.71 67.0377C182.176 67.0377 177.43 65.073 173.473 61.1435C169.543 57.1863 167.579 52.4405 167.579 46.906C167.579 41.3162 169.543 36.5565 173.473 32.627C177.43 28.6975 182.176 26.7328 187.71 26.7328C193.3 26.7328 198.06 28.6975 201.989 32.627C205.449 36.1137 207.178 40.2508 207.178 45.0381H171.19ZM247.71 66H244.237V58.2829C243.568 59.1832 242.835 60.045 242.038 60.8681C237.896 65.0096 232.893 67.0804 227.028 67.0804C221.189 67.0804 216.198 65.0096 212.057 60.8681C207.915 56.7266 205.845 51.7362 205.845 45.8969C205.845 40.0319 207.915 35.0287 212.057 30.8871C216.198 26.7456 221.189 24.6749 227.028 24.6749C232.893 24.6749 237.896 26.7456 242.038 30.8871C242.835 31.7103 243.568 32.572 244.237 33.4724V28.109H247.71V66ZM244.237 49.331V42.4628C243.594 39.0673 241.986 36.0833 239.414 33.511C235.993 30.0897 231.864 28.3791 227.028 28.3791C222.192 28.3791 218.063 30.0897 214.642 33.511C211.221 36.9322 209.51 41.0609 209.51 45.8969C209.51 50.733 211.221 54.8616 214.642 58.2829C218.063 61.6784 222.192 63.3762 227.028 63.3762C231.864 63.3762 235.993 61.6656 239.414 58.2443C241.986 55.6719 243.594 52.7008 244.237 49.331ZM256.265 59.8982L249.457 74.0527H246.386L250.163 59.8982H256.265ZM316.924 56.6605L319.456 58.902C313.728 64.1044 306.99 66.7056 299.241 66.7056C290.912 66.7056 283.814 63.7862 277.947 57.9473C272.108 52.0807 269.189 44.9828 269.189 36.6533C269.189 28.3793 272.108 21.309 277.947 15.4424C283.814 9.54817 290.912 6.60105 299.241 6.60105C306.99 6.60105 313.728 9.2161 319.456 14.4462L316.924 16.6877C311.888 12.2324 305.993 10.0048 299.241 10.0048C291.88 10.0048 285.585 12.606 280.355 17.8084C275.152 23.0108 272.551 29.2925 272.551 36.6533C272.551 44.0419 275.152 50.3374 280.355 55.5398C285.585 60.7422 291.88 63.3434 299.241 63.3434C305.993 63.3434 311.888 61.1158 316.924 56.6605ZM346.548 36.9024L337.624 12.2877L328.658 36.9024H346.548ZM339.325 7.3067L360.619 66H357.133L347.752 40.1816H327.454L317.907 66H314.379L335.922 7.3067H339.325ZM365.497 59.9397C366.383 59.9397 367.144 60.258 367.78 60.8944C368.445 61.5309 368.777 62.3057 368.777 63.2189C368.777 64.1321 368.445 64.9069 367.78 65.5434C367.144 66.1799 366.383 66.4981 365.497 66.4981C364.584 66.4981 363.796 66.1799 363.131 65.5434C362.495 64.9069 362.177 64.1321 362.177 63.2189C362.177 62.3057 362.495 61.5309 363.131 60.8944C363.796 60.258 364.584 59.9397 365.497 59.9397Z" fill="#25C5DA"/>
<path d="M16.7461 4.26311C19.9101 4.26311 22.6111 5.38209 24.8491 7.62006C27.1128 9.85802 28.2446 12.559 28.2446 15.723C28.2446 18.9128 26.6112 21.8838 23.3443 24.6363C26.2253 25.2279 28.9392 26.9257 31.4858 29.7296C35.6016 33.8711 37.6595 38.8744 37.6595 44.7394C37.6595 50.5786 35.6016 55.6333 31.4858 59.9035C27.653 63.8649 23.0742 65.8842 17.7494 65.9614V66H5.78783L5.78783 4.26311H16.7461ZM9.26053 27.2215L9.26053 62.5273H17.7494V62.5659C22.0452 62.2829 25.7494 60.5209 28.862 57.2797C32.2832 53.7555 33.9939 49.5754 33.9939 44.7394C33.9939 39.9033 32.2832 35.7746 28.862 32.3534C25.4407 28.9321 21.3121 27.2215 16.476 27.2215H9.26053ZM9.26053 7.73581V23.5173H17.6336C19.5629 23.3372 21.2092 22.617 22.5725 21.3565C24.1417 19.916 24.9263 18.0382 24.9263 15.723C24.9263 13.4079 24.1417 11.5043 22.5725 10.0124C21.0034 8.49466 19.0613 7.73581 16.7461 7.73581H9.26053ZM80.7086 66H77.2359V58.2829C76.5671 59.1832 75.834 60.045 75.0366 60.8681C70.895 65.0096 65.8918 67.0804 60.0268 67.0804C54.1875 67.0804 49.1971 65.0096 45.0556 60.8681C40.9141 56.7266 38.8433 51.7362 38.8433 45.8969C38.8433 40.0319 40.9141 35.0287 45.0556 30.8871C49.1971 26.7456 54.1875 24.6749 60.0268 24.6749C65.8918 24.6749 70.895 26.7456 75.0366 30.8871C75.834 31.7103 76.5671 32.572 77.2359 33.4724V28.109H80.7086V66ZM77.2359 49.331V42.4628C76.5928 39.0673 74.9851 36.0833 72.4127 33.511C68.9915 30.0897 64.8628 28.3791 60.0268 28.3791C55.1907 28.3791 51.0621 30.0897 47.6408 33.511C44.2196 36.9322 42.5089 41.0609 42.5089 45.8969C42.5089 50.733 44.2196 54.8616 47.6408 58.2829C51.0621 61.6784 55.1907 63.3762 60.0268 63.3762C64.8628 63.3762 68.9915 61.6656 72.4127 58.2443C74.9851 55.6719 76.5928 52.7008 77.2359 49.331ZM87.8937 79.6979H84.1994L93.7049 59.3171L80.007 29.9704H83.7013L95.5313 55.1247L107.403 29.9704H111.097L87.8937 79.6979ZM149.674 36.9024L140.749 12.2877L131.783 36.9024H149.674ZM142.451 7.3067L163.745 66H160.258L150.877 40.1816H130.58L121.033 66H117.504L139.047 7.3067H142.451ZM173.071 32.8761C170.719 33.2358 168.408 34.7301 166.139 37.359C163.87 39.9879 162.736 42.6444 162.736 45.3287V66H159.415V29.9704H162.736V37.7741C164.119 34.149 166.956 31.4509 171.245 29.6799L173.071 32.8761ZM171.813 41.6759H203.442C202.667 39.1577 201.353 36.9716 199.499 35.1175C196.234 31.8522 192.304 30.2195 187.71 30.2195C183.117 30.2195 179.187 31.8522 175.922 35.1175C173.985 37.0823 172.615 39.2684 171.813 41.6759ZM171.19 45.0381C171.107 45.6192 171.065 46.2419 171.065 46.906C171.065 51.4996 172.684 55.4153 175.922 58.653C179.187 61.8906 183.117 63.5095 187.71 63.5095C192.304 63.5095 196.234 61.8768 199.499 58.6115C200.052 58.058 200.578 57.4769 201.076 56.8681L204.605 58.1133C204.189 58.8052 203.318 59.8014 201.989 61.102C198.06 65.0591 193.3 67.0377 187.71 67.0377C182.176 67.0377 177.43 65.073 173.473 61.1435C169.543 57.1863 167.579 52.4405 167.579 46.906C167.579 41.3162 169.543 36.5565 173.473 32.627C177.43 28.6975 182.176 26.7328 187.71 26.7328C193.3 26.7328 198.06 28.6975 201.989 32.627C205.449 36.1137 207.178 40.2508 207.178 45.0381H171.19ZM247.71 66H244.237V58.2829C243.568 59.1832 242.835 60.045 242.038 60.8681C237.896 65.0096 232.893 67.0804 227.028 67.0804C221.189 67.0804 216.198 65.0096 212.057 60.8681C207.915 56.7266 205.845 51.7362 205.845 45.8969C205.845 40.0319 207.915 35.0287 212.057 30.8871C216.198 26.7456 221.189 24.6749 227.028 24.6749C232.893 24.6749 237.896 26.7456 242.038 30.8871C242.835 31.7103 243.568 32.572 244.237 33.4724V28.109H247.71V66ZM244.237 49.331V42.4628C243.594 39.0673 241.986 36.0833 239.414 33.511C235.993 30.0897 231.864 28.3791 227.028 28.3791C222.192 28.3791 218.063 30.0897 214.642 33.511C211.221 36.9322 209.51 41.0609 209.51 45.8969C209.51 50.733 211.221 54.8616 214.642 58.2829C218.063 61.6784 222.192 63.3762 227.028 63.3762C231.864 63.3762 235.993 61.6656 239.414 58.2443C241.986 55.6719 243.594 52.7008 244.237 49.331ZM256.265 59.8982L249.457 74.0527H246.386L250.163 59.8982H256.265ZM316.924 56.6605L319.456 58.902C313.728 64.1044 306.99 66.7056 299.241 66.7056C290.912 66.7056 283.814 63.7862 277.947 57.9473C272.108 52.0807 269.189 44.9828 269.189 36.6533C269.189 28.3793 272.108 21.309 277.947 15.4424C283.814 9.54817 290.912 6.60105 299.241 6.60105C306.99 6.60105 313.728 9.2161 319.456 14.4462L316.924 16.6877C311.888 12.2324 305.993 10.0048 299.241 10.0048C291.88 10.0048 285.585 12.606 280.355 17.8084C275.152 23.0108 272.551 29.2925 272.551 36.6533C272.551 44.0419 275.152 50.3374 280.355 55.5398C285.585 60.7422 291.88 63.3434 299.241 63.3434C305.993 63.3434 311.888 61.1158 316.924 56.6605ZM346.548 36.9024L337.624 12.2877L328.658 36.9024H346.548ZM339.325 7.3067L360.619 66H357.133L347.752 40.1816H327.454L317.907 66H314.379L335.922 7.3067H339.325ZM365.497 59.9397C366.383 59.9397 367.144 60.258 367.78 60.8944C368.445 61.5309 368.777 62.3057 368.777 63.2189C368.777 64.1321 368.445 64.9069 367.78 65.5434C367.144 66.1799 366.383 66.4981 365.497 66.4981C364.584 66.4981 363.796 66.1799 363.131 65.5434C362.495 64.9069 362.177 64.1321 362.177 63.2189C362.177 62.3057 362.495 61.5309 363.131 60.8944C363.796 60.258 364.584 59.9397 365.497 59.9397Z" fill="url(#paint0_linear_189_122)" fill-opacity="0.19"/>
<path d="M16.7461 4.26311C19.9101 4.26311 22.6111 5.38209 24.8491 7.62006C27.1128 9.85802 28.2446 12.559 28.2446 15.723C28.2446 18.9128 26.6112 21.8838 23.3443 24.6363C26.2253 25.2279 28.9392 26.9257 31.4858 29.7296C35.6016 33.8711 37.6595 38.8744 37.6595 44.7394C37.6595 50.5786 35.6016 55.6333 31.4858 59.9035C27.653 63.8649 23.0742 65.8842 17.7494 65.9614V66H5.78783L5.78783 4.26311H16.7461ZM9.26053 27.2215L9.26053 62.5273H17.7494V62.5659C22.0452 62.2829 25.7494 60.5209 28.862 57.2797C32.2832 53.7555 33.9939 49.5754 33.9939 44.7394C33.9939 39.9033 32.2832 35.7746 28.862 32.3534C25.4407 28.9321 21.3121 27.2215 16.476 27.2215H9.26053ZM9.26053 7.73581V23.5173H17.6336C19.5629 23.3372 21.2092 22.617 22.5725 21.3565C24.1417 19.916 24.9263 18.0382 24.9263 15.723C24.9263 13.4079 24.1417 11.5043 22.5725 10.0124C21.0034 8.49466 19.0613 7.73581 16.7461 7.73581H9.26053ZM80.7086 66H77.2359V58.2829C76.5671 59.1832 75.834 60.045 75.0366 60.8681C70.895 65.0096 65.8918 67.0804 60.0268 67.0804C54.1875 67.0804 49.1971 65.0096 45.0556 60.8681C40.9141 56.7266 38.8433 51.7362 38.8433 45.8969C38.8433 40.0319 40.9141 35.0287 45.0556 30.8871C49.1971 26.7456 54.1875 24.6749 60.0268 24.6749C65.8918 24.6749 70.895 26.7456 75.0366 30.8871C75.834 31.7103 76.5671 32.572 77.2359 33.4724V28.109H80.7086V66ZM77.2359 49.331V42.4628C76.5928 39.0673 74.9851 36.0833 72.4127 33.511C68.9915 30.0897 64.8628 28.3791 60.0268 28.3791C55.1907 28.3791 51.0621 30.0897 47.6408 33.511C44.2196 36.9322 42.5089 41.0609 42.5089 45.8969C42.5089 50.733 44.2196 54.8616 47.6408 58.2829C51.0621 61.6784 55.1907 63.3762 60.0268 63.3762C64.8628 63.3762 68.9915 61.6656 72.4127 58.2443C74.9851 55.6719 76.5928 52.7008 77.2359 49.331ZM87.8937 79.6979H84.1994L93.7049 59.3171L80.007 29.9704H83.7013L95.5313 55.1247L107.403 29.9704H111.097L87.8937 79.6979ZM149.674 36.9024L140.749 12.2877L131.783 36.9024H149.674ZM142.451 7.3067L163.745 66H160.258L150.877 40.1816H130.58L121.033 66H117.504L139.047 7.3067H142.451ZM173.071 32.8761C170.719 33.2358 168.408 34.7301 166.139 37.359C163.87 39.9879 162.736 42.6444 162.736 45.3287V66H159.415V29.9704H162.736V37.7741C164.119 34.149 166.956 31.4509 171.245 29.6799L173.071 32.8761ZM171.813 41.6759H203.442C202.667 39.1577 201.353 36.9716 199.499 35.1175C196.234 31.8522 192.304 30.2195 187.71 30.2195C183.117 30.2195 179.187 31.8522 175.922 35.1175C173.985 37.0823 172.615 39.2684 171.813 41.6759ZM171.19 45.0381C171.107 45.6192 171.065 46.2419 171.065 46.906C171.065 51.4996 172.684 55.4153 175.922 58.653C179.187 61.8906 183.117 63.5095 187.71 63.5095C192.304 63.5095 196.234 61.8768 199.499 58.6115C200.052 58.058 200.578 57.4769 201.076 56.8681L204.605 58.1133C204.189 58.8052 203.318 59.8014 201.989 61.102C198.06 65.0591 193.3 67.0377 187.71 67.0377C182.176 67.0377 177.43 65.073 173.473 61.1435C169.543 57.1863 167.579 52.4405 167.579 46.906C167.579 41.3162 169.543 36.5565 173.473 32.627C177.43 28.6975 182.176 26.7328 187.71 26.7328C193.3 26.7328 198.06 28.6975 201.989 32.627C205.449 36.1137 207.178 40.2508 207.178 45.0381H171.19ZM247.71 66H244.237V58.2829C243.568 59.1832 242.835 60.045 242.038 60.8681C237.896 65.0096 232.893 67.0804 227.028 67.0804C221.189 67.0804 216.198 65.0096 212.057 60.8681C207.915 56.7266 205.845 51.7362 205.845 45.8969C205.845 40.0319 207.915 35.0287 212.057 30.8871C216.198 26.7456 221.189 24.6749 227.028 24.6749C232.893 24.6749 237.896 26.7456 242.038 30.8871C242.835 31.7103 243.568 32.572 244.237 33.4724V28.109H247.71V66ZM244.237 49.331V42.4628C243.594 39.0673 241.986 36.0833 239.414 33.511C235.993 30.0897 231.864 28.3791 227.028 28.3791C222.192 28.3791 218.063 30.0897 214.642 33.511C211.221 36.9322 209.51 41.0609 209.51 45.8969C209.51 50.733 211.221 54.8616 214.642 58.2829C218.063 61.6784 222.192 63.3762 227.028 63.3762C231.864 63.3762 235.993 61.6656 239.414 58.2443C241.986 55.6719 243.594 52.7008 244.237 49.331ZM256.265 59.8982L249.457 74.0527H246.386L250.163 59.8982H256.265ZM316.924 56.6605L319.456 58.902C313.728 64.1044 306.99 66.7056 299.241 66.7056C290.912 66.7056 283.814 63.7862 277.947 57.9473C272.108 52.0807 269.189 44.9828 269.189 36.6533C269.189 28.3793 272.108 21.309 277.947 15.4424C283.814 9.54817 290.912 6.60105 299.241 6.60105C306.99 6.60105 313.728 9.2161 319.456 14.4462L316.924 16.6877C311.888 12.2324 305.993 10.0048 299.241 10.0048C291.88 10.0048 285.585 12.606 280.355 17.8084C275.152 23.0108 272.551 29.2925 272.551 36.6533C272.551 44.0419 275.152 50.3374 280.355 55.5398C285.585 60.7422 291.88 63.3434 299.241 63.3434C305.993 63.3434 311.888 61.1158 316.924 56.6605ZM346.548 36.9024L337.624 12.2877L328.658 36.9024H346.548ZM339.325 7.3067L360.619 66H357.133L347.752 40.1816H327.454L317.907 66H314.379L335.922 7.3067H339.325ZM365.497 59.9397C366.383 59.9397 367.144 60.258 367.78 60.8944C368.445 61.5309 368.777 62.3057 368.777 63.2189C368.777 64.1321 368.445 64.9069 367.78 65.5434C367.144 66.1799 366.383 66.4981 365.497 66.4981C364.584 66.4981 363.796 66.1799 363.131 65.5434C362.495 64.9069 362.177 64.1321 362.177 63.2189C362.177 62.3057 362.495 61.5309 363.131 60.8944C363.796 60.258 364.584 59.9397 365.497 59.9397Z" fill="url(#paint1_linear_189_122)" fill-opacity="0.8334" style="mix-blend-mode:overlay"/>
<defs>
<linearGradient id="paint0_linear_189_122" x1="186" y1="4" x2="186" y2="66" gradientUnits="userSpaceOnUse">
<stop stop-color="white"/>
<stop offset="1" stop-color="white" stop-opacity="0"/>
</linearGradient>
<linearGradient id="paint1_linear_189_122" x1="186" y1="4" x2="186" y2="66" gradientUnits="userSpaceOnUse">
<stop stop-color="#F8D362"/>
<stop offset="1" stop-color="#F8D362" stop-opacity="0"/>
</linearGradient>
</defs>
</svg>
